<svg width="492" height="176" viewBox="0 0 492 176" fill="none" xmlns="http://www.w3.org/2000/svg">
<path d="M149.774 133.795V155.636H146.01V133.795H149.774ZM158.682 143.351V146.336H148.814V143.351H158.682ZM159.926 133.795V136.795H148.814V133.795H159.926Z" fill="#929CA5"/>
<path d="M171.999 151.811V139.405H175.628V155.636H172.208L171.999 151.811ZM172.508 148.436L173.723 148.406C173.723 149.496 173.603 150.501 173.363 151.421C173.123 152.331 172.753 153.126 172.253 153.806C171.754 154.476 171.114 155.001 170.334 155.381C169.554 155.751 168.619 155.936 167.53 155.936C166.74 155.936 166.015 155.821 165.355 155.591C164.695 155.361 164.125 155.006 163.646 154.526C163.176 154.046 162.811 153.421 162.551 152.651C162.291 151.881 162.161 150.961 162.161 149.891V139.405H165.775V149.921C165.775 150.511 165.845 151.006 165.985 151.406C166.125 151.796 166.315 152.111 166.555 152.351C166.795 152.591 167.075 152.761 167.395 152.861C167.715 152.961 168.054 153.011 168.414 153.011C169.444 153.011 170.254 152.811 170.844 152.411C171.444 152.001 171.869 151.451 172.118 150.761C172.378 150.071 172.508 149.296 172.508 148.436Z" fill="#929CA5"/>
<path d="M186.77 139.405V142.046H177.622V139.405H186.77ZM180.262 135.43H183.876V151.151C183.876 151.651 183.946 152.036 184.086 152.306C184.236 152.566 184.441 152.741 184.7 152.831C184.96 152.921 185.265 152.966 185.615 152.966C185.865 152.966 186.105 152.951 186.335 152.921C186.565 152.891 186.75 152.861 186.89 152.831L186.905 155.591C186.605 155.681 186.255 155.761 185.855 155.831C185.465 155.901 185.015 155.936 184.506 155.936C183.676 155.936 182.941 155.791 182.301 155.501C181.661 155.201 181.161 154.716 180.801 154.046C180.441 153.376 180.262 152.486 180.262 151.376V135.43Z" fill="#929CA5"/>
<path d="M199.322 151.811V139.405H202.951V155.636H199.532L199.322 151.811ZM199.832 148.436L201.047 148.406C201.047 149.496 200.927 150.501 200.687 151.421C200.447 152.331 200.077 153.126 199.577 153.806C199.077 154.476 198.437 155.001 197.657 155.381C196.878 155.751 195.943 155.936 194.853 155.936C194.063 155.936 193.338 155.821 192.679 155.591C192.019 155.361 191.449 155.006 190.969 154.526C190.499 154.046 190.134 153.421 189.874 152.651C189.614 151.881 189.484 150.961 189.484 149.891V139.405H193.098V149.921C193.098 150.511 193.168 151.006 193.308 151.406C193.448 151.796 193.638 152.111 193.878 152.351C194.118 152.591 194.398 152.761 194.718 152.861C195.038 152.961 195.378 153.011 195.738 153.011C196.768 153.011 197.577 152.811 198.167 152.411C198.767 152.001 199.192 151.451 199.442 150.761C199.702 150.071 199.832 149.296 199.832 148.436Z" fill="#929CA5"/>
<path d="M210.284 142.496V155.636H206.67V139.405H210.119L210.284 142.496ZM215.248 139.3L215.218 142.661C214.998 142.621 214.758 142.591 214.498 142.571C214.248 142.551 213.998 142.541 213.749 142.541C213.129 142.541 212.584 142.631 212.114 142.811C211.644 142.981 211.249 143.231 210.929 143.561C210.619 143.881 210.379 144.271 210.209 144.731C210.039 145.191 209.939 145.706 209.909 146.276L209.085 146.336C209.085 145.316 209.185 144.371 209.385 143.501C209.585 142.631 209.884 141.866 210.284 141.206C210.694 140.546 211.204 140.03 211.814 139.66C212.434 139.29 213.149 139.105 213.958 139.105C214.178 139.105 214.413 139.125 214.663 139.165C214.923 139.205 215.118 139.25 215.248 139.3Z" fill="#929CA5"/>
<path d="M224.366 155.936C223.166 155.936 222.082 155.741 221.112 155.351C220.152 154.951 219.332 154.396 218.652 153.686C217.982 152.976 217.468 152.141 217.108 151.181C216.748 150.221 216.568 149.186 216.568 148.076V147.476C216.568 146.206 216.753 145.056 217.123 144.026C217.493 142.996 218.007 142.116 218.667 141.386C219.327 140.646 220.107 140.08 221.007 139.69C221.907 139.3 222.881 139.105 223.931 139.105C225.091 139.105 226.106 139.3 226.975 139.69C227.845 140.08 228.565 140.631 229.135 141.341C229.715 142.041 230.145 142.876 230.424 143.846C230.714 144.816 230.859 145.886 230.859 147.056V148.601H218.322V146.006H227.29V145.721C227.27 145.071 227.14 144.461 226.9 143.891C226.67 143.321 226.315 142.861 225.836 142.511C225.356 142.161 224.716 141.986 223.916 141.986C223.316 141.986 222.781 142.116 222.311 142.376C221.852 142.626 221.467 142.991 221.157 143.471C220.847 143.951 220.607 144.531 220.437 145.211C220.277 145.881 220.197 146.636 220.197 147.476V148.076C220.197 148.786 220.292 149.446 220.482 150.056C220.682 150.656 220.972 151.181 221.352 151.631C221.732 152.081 222.191 152.436 222.731 152.696C223.271 152.946 223.886 153.071 224.576 153.071C225.446 153.071 226.221 152.896 226.9 152.546C227.58 152.196 228.17 151.701 228.67 151.061L230.574 152.906C230.225 153.416 229.77 153.906 229.21 154.376C228.65 154.836 227.965 155.211 227.155 155.501C226.355 155.791 225.426 155.936 224.366 155.936Z" fill="#929CA5"/>
<path d="M241.687 133.795H249.41C251.07 133.795 252.484 134.045 253.654 134.545C254.824 135.045 255.718 135.785 256.338 136.765C256.968 137.735 257.283 138.935 257.283 140.366C257.283 141.456 257.083 142.416 256.683 143.246C256.283 144.076 255.718 144.776 254.989 145.346C254.259 145.906 253.389 146.341 252.379 146.651L251.24 147.206H244.296L244.266 144.221H249.47C250.37 144.221 251.12 144.061 251.719 143.741C252.319 143.421 252.769 142.986 253.069 142.436C253.379 141.876 253.534 141.246 253.534 140.546C253.534 139.785 253.384 139.125 253.084 138.565C252.794 137.995 252.344 137.56 251.734 137.26C251.125 136.95 250.35 136.795 249.41 136.795H245.451V155.636H241.687V133.795ZM254.149 155.636L249.02 145.826L252.964 145.811L258.168 155.441V155.636H254.149Z" fill="#929CA5"/>
<path d="M267.826 155.936C266.626 155.936 265.541 155.741 264.571 155.351C263.612 154.951 262.792 154.396 262.112 153.686C261.442 152.976 260.927 152.141 260.567 151.181C260.207 150.221 260.027 149.186 260.027 148.076V147.476C260.027 146.206 260.212 145.056 260.582 144.026C260.952 142.996 261.467 142.116 262.127 141.386C262.787 140.646 263.567 140.08 264.466 139.69C265.366 139.3 266.341 139.105 267.391 139.105C268.55 139.105 269.565 139.3 270.435 139.69C271.305 140.08 272.025 140.631 272.594 141.341C273.174 142.041 273.604 142.876 273.884 143.846C274.174 144.816 274.319 145.886 274.319 147.056V148.601H261.782V146.006H270.75V145.721C270.73 145.071 270.6 144.461 270.36 143.891C270.13 143.321 269.775 142.861 269.295 142.511C268.815 142.161 268.175 141.986 267.376 141.986C266.776 141.986 266.241 142.116 265.771 142.376C265.311 142.626 264.926 142.991 264.616 143.471C264.306 143.951 264.066 144.531 263.896 145.211C263.737 145.881 263.657 146.636 263.657 147.476V148.076C263.657 148.786 263.751 149.446 263.941 150.056C264.141 150.656 264.431 151.181 264.811 151.631C265.191 152.081 265.651 152.436 266.191 152.696C266.731 152.946 267.346 153.071 268.035 153.071C268.905 153.071 269.68 152.896 270.36 152.546C271.04 152.196 271.63 151.701 272.129 151.061L274.034 152.906C273.684 153.416 273.229 153.906 272.669 154.376C272.109 154.836 271.425 155.211 270.615 155.501C269.815 155.791 268.885 155.936 267.826 155.936Z" fill="#929CA5"/>
<path d="M286.286 152.381V144.641C286.286 144.061 286.181 143.561 285.971 143.141C285.761 142.721 285.441 142.396 285.011 142.166C284.591 141.936 284.062 141.821 283.422 141.821C282.832 141.821 282.322 141.921 281.892 142.121C281.462 142.321 281.127 142.591 280.887 142.931C280.647 143.271 280.527 143.656 280.527 144.086H276.928C276.928 143.446 277.083 142.826 277.393 142.226C277.703 141.626 278.153 141.091 278.743 140.621C279.333 140.15 280.038 139.78 280.857 139.51C281.677 139.24 282.597 139.105 283.617 139.105C284.836 139.105 285.916 139.31 286.856 139.72C287.806 140.13 288.551 140.751 289.09 141.581C289.64 142.401 289.915 143.431 289.915 144.671V151.886C289.915 152.626 289.965 153.291 290.065 153.881C290.175 154.461 290.33 154.966 290.53 155.396V155.636H286.826C286.656 155.246 286.521 154.751 286.421 154.151C286.331 153.541 286.286 152.951 286.286 152.381ZM286.811 145.766L286.841 148.001H284.247C283.577 148.001 282.987 148.066 282.477 148.196C281.967 148.316 281.542 148.496 281.202 148.736C280.862 148.976 280.607 149.266 280.437 149.606C280.268 149.946 280.183 150.331 280.183 150.761C280.183 151.191 280.283 151.586 280.482 151.946C280.682 152.296 280.972 152.571 281.352 152.771C281.742 152.971 282.212 153.071 282.762 153.071C283.502 153.071 284.147 152.921 284.696 152.621C285.256 152.311 285.696 151.936 286.016 151.496C286.336 151.046 286.506 150.621 286.526 150.221L287.696 151.826C287.576 152.236 287.371 152.676 287.081 153.146C286.791 153.616 286.411 154.066 285.941 154.496C285.481 154.916 284.926 155.261 284.277 155.531C283.637 155.801 282.897 155.936 282.057 155.936C280.997 155.936 280.053 155.726 279.223 155.306C278.393 154.876 277.743 154.301 277.273 153.581C276.803 152.851 276.568 152.026 276.568 151.106C276.568 150.246 276.728 149.486 277.048 148.826C277.378 148.156 277.858 147.596 278.488 147.146C279.128 146.696 279.908 146.356 280.827 146.126C281.747 145.886 282.797 145.766 283.977 145.766H286.811Z" fill="#929CA5"/>
<path d="M303.592 152.276V132.595H307.221V155.636H303.937L303.592 152.276ZM293.034 147.701V147.386C293.034 146.156 293.179 145.036 293.469 144.026C293.759 143.006 294.179 142.131 294.729 141.401C295.279 140.661 295.949 140.095 296.739 139.705C297.528 139.305 298.418 139.105 299.408 139.105C300.388 139.105 301.247 139.295 301.987 139.675C302.727 140.055 303.357 140.601 303.877 141.311C304.397 142.011 304.812 142.851 305.122 143.831C305.431 144.801 305.651 145.881 305.781 147.071V148.076C305.651 149.236 305.431 150.296 305.122 151.256C304.812 152.216 304.397 153.046 303.877 153.746C303.357 154.446 302.722 154.986 301.972 155.366C301.232 155.746 300.368 155.936 299.378 155.936C298.398 155.936 297.513 155.731 296.724 155.321C295.944 154.911 295.279 154.336 294.729 153.596C294.179 152.856 293.759 151.986 293.469 150.986C293.179 149.976 293.034 148.881 293.034 147.701ZM296.649 147.386V147.701C296.649 148.441 296.714 149.131 296.844 149.771C296.984 150.411 297.198 150.976 297.488 151.466C297.778 151.946 298.153 152.326 298.613 152.606C299.083 152.876 299.643 153.011 300.293 153.011C301.113 153.011 301.787 152.831 302.317 152.471C302.847 152.111 303.262 151.626 303.562 151.016C303.872 150.396 304.082 149.706 304.192 148.946V146.231C304.132 145.641 304.007 145.091 303.817 144.581C303.637 144.071 303.392 143.626 303.082 143.246C302.772 142.856 302.387 142.556 301.927 142.346C301.477 142.126 300.943 142.016 300.323 142.016C299.663 142.016 299.103 142.156 298.643 142.436C298.183 142.716 297.803 143.101 297.503 143.591C297.213 144.081 296.999 144.651 296.859 145.301C296.719 145.951 296.649 146.646 296.649 147.386Z" fill="#929CA5"/>
<path d="M315.709 153.866L320.118 139.405H323.987L317.479 158.111C317.329 158.511 317.134 158.946 316.894 159.416C316.654 159.886 316.339 160.331 315.949 160.751C315.569 161.181 315.094 161.526 314.524 161.786C313.954 162.056 313.265 162.191 312.455 162.191C312.135 162.191 311.825 162.161 311.525 162.101C311.235 162.051 310.96 161.996 310.7 161.936L310.685 159.176C310.785 159.186 310.905 159.196 311.045 159.206C311.195 159.216 311.315 159.221 311.405 159.221C312.005 159.221 312.505 159.146 312.905 158.996C313.305 158.856 313.63 158.626 313.879 158.306C314.139 157.986 314.359 157.556 314.539 157.016L315.709 153.866ZM313.22 139.405L317.074 151.556L317.719 155.366L315.214 156.011L309.321 139.405H313.22Z" fill="#929CA5"/>
<path d="M334.065 133.795H341.788C343.447 133.795 344.862 134.045 346.032 134.545C347.201 135.045 348.096 135.785 348.716 136.765C349.346 137.735 349.661 138.935 349.661 140.366C349.661 141.456 349.461 142.416 349.061 143.246C348.661 144.076 348.096 144.776 347.366 145.346C346.637 145.906 345.767 146.341 344.757 146.651L343.617 147.206H336.674L336.644 144.221H341.848C342.748 144.221 343.497 144.061 344.097 143.741C344.697 143.421 345.147 142.986 345.447 142.436C345.757 141.876 345.912 141.246 345.912 140.546C345.912 139.785 345.762 139.125 345.462 138.565C345.172 137.995 344.722 137.56 344.112 137.26C343.502 136.95 342.728 136.795 341.788 136.795H337.829V155.636H334.065V133.795ZM346.527 155.636L341.398 145.826L345.342 145.811L350.546 155.441V155.636H346.527Z" fill="#929CA5"/>
<path d="M360.203 155.936C359.004 155.936 357.919 155.741 356.949 155.351C355.989 154.951 355.17 154.396 354.49 153.686C353.82 152.976 353.305 152.141 352.945 151.181C352.585 150.221 352.405 149.186 352.405 148.076V147.476C352.405 146.206 352.59 145.056 352.96 144.026C353.33 142.996 353.845 142.116 354.505 141.386C355.165 140.646 355.944 140.08 356.844 139.69C357.744 139.3 358.719 139.105 359.768 139.105C360.928 139.105 361.943 139.3 362.813 139.69C363.683 140.08 364.402 140.631 364.972 141.341C365.552 142.041 365.982 142.876 366.262 143.846C366.552 144.816 366.697 145.886 366.697 147.056V148.601H354.16V146.006H363.128V145.721C363.108 145.071 362.978 144.461 362.738 143.891C362.508 143.321 362.153 142.861 361.673 142.511C361.193 142.161 360.553 141.986 359.753 141.986C359.154 141.986 358.619 142.116 358.149 142.376C357.689 142.626 357.304 142.991 356.994 143.471C356.684 143.951 356.444 144.531 356.274 145.211C356.114 145.881 356.034 146.636 356.034 147.476V148.076C356.034 148.786 356.129 149.446 356.319 150.056C356.519 150.656 356.809 151.181 357.189 151.631C357.569 152.081 358.029 152.436 358.569 152.696C359.109 152.946 359.723 153.071 360.413 153.071C361.283 153.071 362.058 152.896 362.738 152.546C363.418 152.196 364.007 151.701 364.507 151.061L366.412 152.906C366.062 153.416 365.607 153.906 365.047 154.376C364.487 154.836 363.802 155.211 362.993 155.501C362.193 155.791 361.263 155.936 360.203 155.936Z" fill="#929CA5"/>
<path d="M378.664 152.381V144.641C378.664 144.061 378.559 143.561 378.349 143.141C378.139 142.721 377.819 142.396 377.389 142.166C376.969 141.936 376.439 141.821 375.8 141.821C375.21 141.821 374.7 141.921 374.27 142.121C373.84 142.321 373.505 142.591 373.265 142.931C373.025 143.271 372.905 143.656 372.905 144.086H369.306C369.306 143.446 369.461 142.826 369.771 142.226C370.081 141.626 370.531 141.091 371.121 140.621C371.711 140.15 372.415 139.78 373.235 139.51C374.055 139.24 374.975 139.105 375.995 139.105C377.214 139.105 378.294 139.31 379.234 139.72C380.184 140.13 380.928 140.751 381.468 141.581C382.018 142.401 382.293 143.431 382.293 144.671V151.886C382.293 152.626 382.343 153.291 382.443 153.881C382.553 154.461 382.708 154.966 382.908 155.396V155.636H379.204C379.034 155.246 378.899 154.751 378.799 154.151C378.709 153.541 378.664 152.951 378.664 152.381ZM379.189 145.766L379.219 148.001H376.624C375.955 148.001 375.365 148.066 374.855 148.196C374.345 148.316 373.92 148.496 373.58 148.736C373.24 148.976 372.985 149.266 372.815 149.606C372.645 149.946 372.56 150.331 372.56 150.761C372.56 151.191 372.66 151.586 372.86 151.946C373.06 152.296 373.35 152.571 373.73 152.771C374.12 152.971 374.59 153.071 375.14 153.071C375.88 153.071 376.524 152.921 377.074 152.621C377.634 152.311 378.074 151.936 378.394 151.496C378.714 151.046 378.884 150.621 378.904 150.221L380.074 151.826C379.954 152.236 379.749 152.676 379.459 153.146C379.169 153.616 378.789 154.066 378.319 154.496C377.859 154.916 377.304 155.261 376.654 155.531C376.015 155.801 375.275 155.936 374.435 155.936C373.375 155.936 372.43 155.726 371.601 155.306C370.771 154.876 370.121 154.301 369.651 153.581C369.181 152.851 368.946 152.026 368.946 151.106C368.946 150.246 369.106 149.486 369.426 148.826C369.756 148.156 370.236 147.596 370.866 147.146C371.506 146.696 372.285 146.356 373.205 146.126C374.125 145.886 375.175 145.766 376.354 145.766H379.189Z" fill="#929CA5"/>
<path d="M389.941 132.595V155.636H386.312V132.595H389.941Z" fill="#929CA5"/>
<path d="M416.2 152.651V155.636H404.608V152.651H416.2ZM405.672 133.795V155.636H401.908V133.795H405.672ZM414.685 142.916V145.856H404.608V142.916H414.685ZM416.125 133.795V136.795H404.608V133.795H416.125Z" fill="#929CA5"/>
<path d="M428.017 151.241C428.017 150.881 427.927 150.556 427.747 150.266C427.567 149.966 427.222 149.696 426.712 149.456C426.212 149.216 425.473 148.996 424.493 148.796C423.633 148.606 422.843 148.381 422.123 148.121C421.414 147.851 420.804 147.526 420.294 147.146C419.784 146.766 419.389 146.316 419.109 145.796C418.829 145.276 418.689 144.676 418.689 143.996C418.689 143.336 418.834 142.711 419.124 142.121C419.414 141.531 419.829 141.011 420.369 140.561C420.909 140.11 421.564 139.755 422.333 139.495C423.113 139.235 423.983 139.105 424.943 139.105C426.302 139.105 427.467 139.335 428.437 139.795C429.417 140.245 430.167 140.861 430.686 141.641C431.206 142.411 431.466 143.281 431.466 144.251H427.852C427.852 143.821 427.742 143.421 427.522 143.051C427.312 142.671 426.992 142.366 426.562 142.136C426.133 141.896 425.593 141.776 424.943 141.776C424.323 141.776 423.808 141.876 423.398 142.076C422.998 142.266 422.698 142.516 422.498 142.826C422.308 143.136 422.213 143.476 422.213 143.846C422.213 144.116 422.263 144.361 422.363 144.581C422.473 144.791 422.653 144.986 422.903 145.166C423.153 145.336 423.493 145.496 423.923 145.646C424.363 145.796 424.913 145.941 425.573 146.081C426.812 146.341 427.877 146.676 428.767 147.086C429.667 147.486 430.356 148.006 430.836 148.646C431.316 149.276 431.556 150.076 431.556 151.046C431.556 151.766 431.401 152.426 431.091 153.026C430.791 153.616 430.351 154.131 429.772 154.571C429.192 155.001 428.497 155.336 427.687 155.576C426.887 155.816 425.988 155.936 424.988 155.936C423.518 155.936 422.273 155.676 421.254 155.156C420.234 154.626 419.459 153.951 418.929 153.131C418.409 152.301 418.149 151.441 418.149 150.551H421.644C421.684 151.221 421.869 151.756 422.198 152.156C422.538 152.546 422.958 152.831 423.458 153.011C423.968 153.181 424.493 153.266 425.033 153.266C425.683 153.266 426.227 153.181 426.667 153.011C427.107 152.831 427.442 152.591 427.672 152.291C427.902 151.981 428.017 151.631 428.017 151.241Z" fill="#929CA5"/>
<path d="M442.159 139.405V142.046H433.011V139.405H442.159ZM435.65 135.43H439.264V151.151C439.264 151.651 439.334 152.036 439.474 152.306C439.624 152.566 439.829 152.741 440.089 152.831C440.349 152.921 440.654 152.966 441.004 152.966C441.254 152.966 441.494 152.951 441.724 152.921C441.954 152.891 442.139 152.861 442.279 152.831L442.294 155.591C441.994 155.681 441.644 155.761 441.244 155.831C440.854 155.901 440.404 155.936 439.894 155.936C439.064 155.936 438.33 155.791 437.69 155.501C437.05 155.201 436.55 154.716 436.19 154.046C435.83 153.376 435.65 152.486 435.65 151.376V135.43Z" fill="#929CA5"/>
<path d="M454.096 152.381V144.641C454.096 144.061 453.991 143.561 453.781 143.141C453.571 142.721 453.251 142.396 452.821 142.166C452.401 141.936 451.871 141.821 451.231 141.821C450.642 141.821 450.132 141.921 449.702 142.121C449.272 142.321 448.937 142.591 448.697 142.931C448.457 143.271 448.337 143.656 448.337 144.086H444.738C444.738 143.446 444.893 142.826 445.203 142.226C445.513 141.626 445.963 141.091 446.553 140.621C447.142 140.15 447.847 139.78 448.667 139.51C449.487 139.24 450.407 139.105 451.426 139.105C452.646 139.105 453.726 139.31 454.666 139.72C455.615 140.13 456.36 140.751 456.9 141.581C457.45 142.401 457.725 143.431 457.725 144.671V151.886C457.725 152.626 457.775 153.291 457.875 153.881C457.985 154.461 458.14 154.966 458.34 155.396V155.636H454.636C454.466 155.246 454.331 154.751 454.231 154.151C454.141 153.541 454.096 152.951 454.096 152.381ZM454.621 145.766L454.651 148.001H452.056C451.386 148.001 450.797 148.066 450.287 148.196C449.777 148.316 449.352 148.496 449.012 148.736C448.672 148.976 448.417 149.266 448.247 149.606C448.077 149.946 447.992 150.331 447.992 150.761C447.992 151.191 448.092 151.586 448.292 151.946C448.492 152.296 448.782 152.571 449.162 152.771C449.552 152.971 450.022 153.071 450.572 153.071C451.311 153.071 451.956 152.921 452.506 152.621C453.066 152.311 453.506 151.936 453.826 151.496C454.146 151.046 454.316 150.621 454.336 150.221L455.505 151.826C455.385 152.236 455.181 152.676 454.891 153.146C454.601 153.616 454.221 154.066 453.751 154.496C453.291 154.916 452.736 155.261 452.086 155.531C451.446 155.801 450.707 155.936 449.867 155.936C448.807 155.936 447.862 155.726 447.032 155.306C446.203 154.876 445.553 154.301 445.083 153.581C444.613 152.851 444.378 152.026 444.378 151.106C444.378 150.246 444.538 149.486 444.858 148.826C445.188 148.156 445.668 147.596 446.298 147.146C446.938 146.696 447.717 146.356 448.637 146.126C449.557 145.886 450.607 145.766 451.786 145.766H454.621Z" fill="#929CA5"/>
<path d="M468.942 139.405V142.046H459.794V139.405H468.942ZM462.434 135.43H466.048V151.151C466.048 151.651 466.118 152.036 466.258 152.306C466.408 152.566 466.613 152.741 466.873 152.831C467.133 152.921 467.438 152.966 467.788 152.966C468.037 152.966 468.277 152.951 468.507 152.921C468.737 152.891 468.922 152.861 469.062 152.831L469.077 155.591C468.777 155.681 468.427 155.761 468.027 155.831C467.638 155.901 467.188 155.936 466.678 155.936C465.848 155.936 465.113 155.791 464.473 155.501C463.833 155.201 463.334 154.716 462.974 154.046C462.614 153.376 462.434 152.486 462.434 151.376V135.43Z" fill="#929CA5"/>
<path d="M478.885 155.936C477.685 155.936 476.6 155.741 475.631 155.351C474.671 154.951 473.851 154.396 473.171 153.686C472.501 152.976 471.987 152.141 471.627 151.181C471.267 150.221 471.087 149.186 471.087 148.076V147.476C471.087 146.206 471.272 145.056 471.642 144.026C472.011 142.996 472.526 142.116 473.186 141.386C473.846 140.646 474.626 140.08 475.526 139.69C476.425 139.3 477.4 139.105 478.45 139.105C479.61 139.105 480.624 139.3 481.494 139.69C482.364 140.08 483.084 140.631 483.654 141.341C484.234 142.041 484.663 142.876 484.943 143.846C485.233 144.816 485.378 145.886 485.378 147.056V148.601H472.841V146.006H481.809V145.721C481.789 145.071 481.659 144.461 481.419 143.891C481.189 143.321 480.834 142.861 480.354 142.511C479.875 142.161 479.235 141.986 478.435 141.986C477.835 141.986 477.3 142.116 476.83 142.376C476.37 142.626 475.986 142.991 475.676 143.471C475.366 143.951 475.126 144.531 474.956 145.211C474.796 145.881 474.716 146.636 474.716 147.476V148.076C474.716 148.786 474.811 149.446 475.001 150.056C475.201 150.656 475.491 151.181 475.871 151.631C476.25 152.081 476.71 152.436 477.25 152.696C477.79 152.946 478.405 153.071 479.095 153.071C479.965 153.071 480.739 152.896 481.419 152.546C482.099 152.196 482.689 151.701 483.189 151.061L485.093 152.906C484.743 153.416 484.289 153.906 483.729 154.376C483.169 154.836 482.484 155.211 481.674 155.501C480.874 155.791 479.945 155.936 478.885 155.936Z" fill="#929CA5"/>
<path fill-rule="evenodd" clip-rule="evenodd" d="M347.614 38.7137C347.712 38.8476 347.768 39.0036 347.885 39.0741C348.532 39.3413 349.067 39.7476 348.94 40.5062C348.821 41.233 348.665 42.0866 348.195 42.6019C347.472 43.4906 346.651 44.2454 346.302 45.3871C346.254 45.5456 346.132 45.7165 345.976 45.7728C344.927 46.3305 343.859 46.8711 342.774 47.3946C342.618 47.451 342.418 47.4245 342.198 47.4614C342.015 46.0182 342.36 45.569 343.756 45.5448C343.965 45.5396 344.236 45.4489 344.421 45.2974C345.529 44.2838 346.552 43.2092 346.976 41.709C347.148 41.0333 346.898 40.7143 346.218 40.7836C345.61 40.8407 344.996 41.0343 344.366 41.05C343.359 41.054 342.358 40.9215 341.351 40.9256C340.48 40.9368 339.602 41.0845 338.712 41.1591C337.79 41.2239 336.826 41.3108 335.882 41.3343C334.916 41.3164 333.937 41.2253 332.949 41.1659C331.551 41.0853 330.437 41.4382 329.512 42.6467C329.064 43.2033 328.214 43.6021 327.485 43.8301C326.11 44.2419 324.646 44.4881 323.167 44.1053C322.977 44.0471 322.636 44.2549 322.441 44.438C321.033 45.6375 319.701 46.9296 318.249 48.0462C317.56 48.5984 316.643 48.873 315.793 49.2718C315.394 47.6241 315.861 47.004 317.289 46.9895C317.699 47.0108 318.164 46.737 318.524 46.4657C319.789 45.3957 320.562 44.0022 320.919 42.3777C321.076 41.524 321.402 41.1382 322.386 41.439C323.433 41.7592 324.059 41.1876 324.34 39.8168C323.71 39.8324 323.093 39.9212 322.493 39.8417C319.003 39.3759 315.534 38.8817 312.085 38.3589C311.326 38.2309 310.138 39.3935 310.398 40.1319C310.476 40.3293 310.787 40.5628 311.05 40.6088C311.907 40.8707 312.793 41.0375 313.659 41.2678C315.246 41.7529 315.72 43.4931 314.586 44.7068C313.717 45.6201 312.987 46.6454 312.191 47.5464C311.376 48.5108 309.873 48.8839 308.66 49.4491C308.535 49.5151 308.044 49.1916 308.054 49.1599C308.158 48.7062 308.326 48.2719 308.557 47.857C308.668 47.7179 309.022 47.5832 309.212 47.6414C310.028 47.9254 310.561 47.4295 310.989 46.9363C311.754 46.0256 312.518 45.1149 313.048 44.0631C313.429 43.3822 313.053 43.0243 312.204 43.0769C310.423 43.2261 308.662 43.3118 306.919 42.8831C306.497 42.7887 306.007 42.9162 305.588 42.9267C303.636 42.9542 301.728 43.0646 299.793 42.9238C298.195 42.8167 296.753 42.6532 295.658 44.1911C295.284 44.7355 294.399 45.0197 293.721 45.194C292.228 45.5353 290.721 45.6987 289.21 45.3061C288.947 45.2602 288.606 45.468 288.369 45.6732C287.134 46.6481 286.029 47.7666 284.708 48.6807C283.822 49.3112 282.717 49.6324 281.669 50.1096C281.188 48.5059 281.728 47.8735 283.187 47.8687C283.711 47.8557 284.343 47.4938 284.796 47.1468C285.957 46.1843 286.67 44.8762 287.043 43.4296C287.263 42.5954 287.579 42.2413 288.553 42.5738C289.781 42.9839 290.651 42.0705 290.601 40.5296C288.659 40.5254 286.717 40.5212 284.763 40.4439C282.809 40.3666 280.893 40.1624 278.837 40.1926C279.093 40.375 279.321 40.6526 279.638 40.7497C280.539 41.0945 281.427 41.3661 282.328 41.7109C283.822 42.2717 283.941 44.0418 282.823 45.0872C281.9 45.9494 280.847 46.668 280.215 47.8272C279.984 48.2421 279.287 48.4797 278.778 48.6707C277.861 48.9453 276.951 49.0833 276.022 49.2848C275.959 48.017 276.336 47.5774 277.448 47.5708C277.617 47.5876 277.817 47.6141 277.941 47.548C279.277 46.8119 280.527 46.015 281.258 44.6435C281.47 44.292 281.568 43.6287 281.395 43.4022C281.158 43.1563 280.57 43.1499 280.096 43.1092C278.94 43.0331 277.764 43.0203 276.576 42.9345C275.397 42.8169 274.238 42.6359 273.059 42.5183C271.376 42.3504 269.663 42.2775 268.008 42.0144C266.363 41.7196 264.946 41.7024 263.69 43.0869C263.271 43.5485 262.415 43.7376 261.744 43.7753C260.349 43.7994 258.948 43.614 257.509 43.5553C257.236 43.5411 256.911 43.5807 256.726 43.7322C255.705 44.4604 254.738 45.2398 253.749 45.9778C252.492 46.9112 251.022 47.294 249.527 47.5305C249.261 46.1313 249.925 45.4329 251.129 45.6967C251.414 45.784 251.758 45.6811 252.007 45.549C253.788 44.6025 254.937 43.1157 255.582 41.2323C255.798 40.6394 256.098 40.4536 256.745 40.7208C257.934 41.2577 258.887 40.7515 259.243 39.4732C259.327 39.0829 259.38 38.683 259.504 38.1658C259.259 38.0565 259.025 37.9155 258.759 37.7647C258.545 37.6301 258.318 37.5029 258.077 37.383C258.082 37.292 258.083 37.2115 258.082 37.1416C258.644 36.9668 259.206 36.7919 259.769 36.6171C259.767 36.5472 259.755 36.474 259.732 36.3977C259.344 36.4178 258.924 36.4282 258.515 36.407C256.624 36.3491 254.701 36.2814 252.788 36.1821C252.251 36.122 252.025 36.2955 251.838 36.7932C250.578 39.6676 248.498 41.7021 245.744 43.2183C241.738 45.4266 237.442 46.5405 232.919 46.5795C230.63 46.5735 228.297 46.0335 226.059 45.5226C221.173 44.4796 216.568 42.5168 211.934 40.6492C209.463 39.6511 207.021 38.5578 204.496 37.5085C205.595 36.5265 206.67 36.3004 207.989 36.9811C209.159 37.5814 210.469 37.9475 211.732 38.4721C212.432 38.7904 212.891 38.6531 213.177 37.9431C213.357 37.582 213.559 37.2622 213.78 36.879C213.299 36.5238 212.796 36.1272 212.273 35.794C211.237 35.0959 210.603 34.1045 210.228 32.9493C209.837 31.6162 209.593 30.2584 209.651 28.8197C209.81 26.3714 209.873 23.8939 209.759 21.4314C209.635 19.4517 208.396 18.1711 206.47 17.5476C207.201 16.1761 208.464 15.4523 209.807 15.0307C211.357 14.4991 212.377 15.8166 213.684 16.4241C213.417 15.8222 213.223 15.2081 212.927 14.7014C212.586 14.1119 212.82 13.8018 213.285 13.528C214.104 13.1195 214.956 13.1717 215.793 13.4971C217.16 14.0191 217.16 14.0191 217.007 15.4287C217.536 15.1743 218.087 14.9613 218.647 14.7165C218.6 14.0778 218.53 13.3976 218.397 12.698C218.311 12.1861 218.471 11.8884 218.983 11.8022C219.308 11.7627 219.62 11.65 219.934 11.6422C221.025 11.5941 221.401 10.7035 221.949 9.93453C220.581 10.2098 219.212 10.4851 217.73 10.7948C217.732 10.8996 217.813 11.2018 217.733 11.3507C217.449 11.7145 217.096 12.3002 216.74 12.3301C216.279 12.3625 215.641 12.0636 215.38 11.6715C215.152 11.3939 215.302 10.6768 215.514 10.3253C215.827 9.86639 216.445 9.77761 216.958 10.1425C217.407 10.488 217.741 10.4168 218.165 10.165C219.045 9.671 220 9.26957 220.858 8.73419C221.83 8.16449 222.845 8.02387 223.953 8.2586C225.452 8.57804 226.97 8.83406 228.497 9.05836C229.088 9.16957 229.274 9.46918 229.277 10.0251C229.329 11.2198 229.411 12.4242 229.504 13.5969C229.507 13.7017 229.573 13.826 229.649 13.9185C230.677 15.019 231.705 16.1195 232.734 17.2199C232.859 17.1888 232.984 17.1577 233.109 17.1267C233.101 16.8121 233.135 16.4756 233.105 16.1196C233.028 15.576 232.92 15.0227 232.811 14.4694C232.74 14.1354 232.742 13.7892 232.67 13.4552C232.599 13.1213 232.359 12.7706 232.361 12.4243C232.326 11.8587 232.395 11.2904 232.433 10.7125C232.921 10.9312 233.429 11.0864 233.815 11.4125C234.233 11.7483 234.506 11.7625 234.994 11.5301C235.876 11.141 236.778 10.6884 237.831 11.2183C238.991 11.8504 239.193 12.7791 238.272 13.7461C238.119 13.9073 237.956 14.1002 237.761 14.2834C238.634 15.1744 238.94 16.1005 238.289 17.3231C237.959 17.9503 238.053 18.7767 237.903 19.4938C237.388 21.972 237.04 22.3164 234.54 22.6618C234.174 22.7233 233.767 22.8069 233.465 22.8879C233.306 25.3362 231.626 26.9726 230.342 28.9034C232.474 30.2142 234.735 31.2176 237.254 31.6061C237.854 31.6856 238.505 31.7113 239.118 31.864C240.458 32.1349 240.612 32.4248 240.23 33.903C243.552 34.387 246.849 34.875 250.123 35.3671C250.902 33.386 249.906 30.5152 248.223 29.5499C247.329 29.0686 247.112 29.2104 246.492 29.9916C245.973 30.6654 245.255 31.3128 244.497 31.6358C243.302 32.1376 242.144 31.1593 242.112 29.9012C242.027 27.3435 243.992 25.3433 246.524 25.4587C248.857 25.5476 250.503 26.7446 251.647 28.7934C252.812 30.8836 252.887 33.0219 252.267 35.5027C255.134 35.5468 257.864 35.5839 260.594 35.6209C260.762 35.6377 260.928 35.5497 261.094 35.4616C263.109 34.2051 265.168 34.2798 267.331 35.1492C269.907 36.1447 272.471 36.2698 275.008 34.8954C276.366 34.2007 277.029 33.0512 277.056 31.6028C277.083 30.6055 276.932 29.6231 276.918 28.6478C276.926 27.7139 277.007 26.7677 277.079 25.8532C275.469 26.124 274.469 25.1942 273.81 23.6054C274.449 23.5581 275.047 23.5327 275.686 23.4854C275.643 22.6052 275.427 21.9496 274.565 21.478C273.522 20.9164 272.569 20.1743 271.616 19.4321C269.827 18.0183 269.135 15.9688 268.599 13.863C268.689 13.7978 268.778 13.7326 268.867 13.6675C269.139 14.0279 269.452 14.3663 269.714 14.7585C269.975 15.1506 270.145 15.6185 270.499 15.9349C270.682 16.1297 271.102 16.1193 271.388 16.2066C271.433 15.9432 271.562 15.6357 271.493 15.4066C271.306 14.6559 270.91 13.9105 272.099 13.199C272.237 14.1083 272.414 14.8907 272.519 15.6854C272.62 16.3753 272.648 17.0775 272.813 17.7868C272.862 18.0793 273.163 18.3446 273.469 18.8196C273.602 18.2707 273.689 17.9853 273.764 17.6267C274.638 17.7204 274.956 18.2685 275.184 18.9972C275.334 19.5285 275.64 20.0035 275.873 20.4908C276.25 20.0513 276.659 19.6215 276.951 19.1212C277.213 18.716 277.305 18.1891 277.59 17.8254C277.763 17.6008 278.17 17.5172 278.504 17.446C278.577 17.4337 278.827 17.7527 278.807 17.8161C278.688 18.0918 278.518 18.4213 278.291 18.5948C277.468 19.2447 277.073 20.6498 277.514 21.4781C277.977 22.3479 278.939 22.6072 280.075 22.2957C281.055 22.0405 281.637 21.3861 282.13 20.566C282.383 20.1926 282.903 19.9698 283.305 19.6766C283.296 20.1594 283.436 20.7224 283.268 21.1567C283.04 21.6765 282.653 22.1477 282.222 22.5361C281.74 22.9782 281.16 23.2864 280.427 23.7557C281.935 24.0434 283.275 24.3143 284.583 24.5756C284.783 25.8505 283.926 26.837 282.709 26.8462C282.331 26.8347 281.994 26.8011 281.628 26.8626C280.623 26.9715 280.146 27.6233 280.412 28.5714C280.562 29.1027 280.794 29.59 280.986 30.0993C281.898 32.563 282.244 35.0617 280.783 37.4585C280.36 38.1614 279.702 38.7233 279.06 39.4632C282.881 39.9032 286.656 40.1556 290.472 39.5886C290.079 39.3991 289.686 39.2095 289.112 38.93C289.475 38.7636 289.661 38.6121 289.797 38.6192C290.534 38.7058 290.997 38.3271 291.394 37.8242C293.038 35.6222 295.341 35.3551 297.75 35.9876C299.705 36.516 301.636 36.8982 303.647 36.3341C304.981 35.9443 306.268 35.3668 307.075 34.0878C307.963 32.6599 307.672 31.1145 307.559 29.5541C307.467 28.3814 307.311 27.1894 307.155 25.9973C305.604 26.5289 304.653 25.4405 303.725 24.0473C304.438 23.9876 305.077 23.9402 305.757 23.8709C305.619 22.9616 305.288 22.3404 304.417 21.9004C302.959 21.1079 301.603 20.2079 300.308 19.2224C298.883 18.0934 298.39 16.4166 298.001 14.7372C298.063 14.6867 298.124 14.6362 298.186 14.5857C298.619 15.0995 299.052 15.6133 299.453 16.1174C299.604 16.3025 299.634 16.6584 299.783 16.7386C300.091 16.8674 300.469 16.879 300.796 16.9443C300.82 16.6394 300.958 16.3003 300.848 16.0932C300.42 15.338 300.099 14.6851 300.964 14.0131C301.616 14.49 301.781 15.1993 301.904 15.9306C302.028 16.6619 302.11 17.4152 302.274 18.1245C302.368 18.4998 302.681 18.8382 302.879 19.211C302.962 19.167 303.052 19.1367 303.15 19.1203C303.183 18.7838 303.217 18.4472 303.228 18.0693C304.026 18.0704 304.466 18.4477 304.755 19.0909C304.846 19.3614 304.854 19.676 304.976 19.9562C305.131 20.2461 305.326 20.514 305.522 20.7819C305.809 20.523 306.16 20.2834 306.33 19.954C306.549 19.466 306.628 18.866 306.825 18.3366C306.902 18.0829 307.104 17.7631 307.333 17.6945C307.636 17.6135 307.975 17.752 308.312 17.7855C308.256 18.0807 308.267 18.5001 308.091 18.6198C307.234 19.1552 307.182 20.0063 307.171 20.8353C307.161 21.6644 307.625 22.1878 308.396 22.389C309.507 22.7285 310.95 22.0947 311.543 21.0623C311.774 20.6474 311.942 20.2131 312.236 19.8177C312.399 19.6248 312.733 19.5535 313.023 19.3994C313.105 19.7017 313.376 20.0621 313.276 20.2744C312.846 21.1139 312.311 21.9559 311.764 22.7249C311.521 23.0667 311.075 23.2771 310.497 23.6901C311.603 23.82 312.486 23.8819 313.35 24.0073C313.909 24.1089 314.828 23.9391 314.773 24.6853C314.726 25.295 314.166 25.9908 313.62 26.4135C313.209 26.7385 312.516 26.7347 311.908 26.7918C310.799 26.9033 310.434 27.416 310.858 28.4125C311.282 29.4091 311.769 30.4251 312.11 31.4658C312.837 33.6298 313.122 35.7629 311.645 37.9817C315.899 38.9356 320.018 39.536 324.297 39.3877C324.355 39.1974 324.394 39.0706 324.433 38.9437C324.481 38.7852 324.489 38.6486 324.515 38.4486C323.985 38.252 323.465 38.0236 322.808 37.7881C323.045 37.5829 323.157 37.4438 323.22 37.4632C324.294 37.5834 324.809 36.8047 325.337 36.0992C326.313 34.837 327.6 34.2595 329.145 34.3155C330.479 34.3767 331.809 34.6794 333.125 34.804C335.45 35.0295 337.701 34.8162 339.559 33.1649C340.884 32.0094 341.172 30.502 340.983 28.8492C340.923 28.1373 340.59 27.4112 340.498 26.6896C340.35 25.812 340.339 24.9416 340.264 24.0517C338.695 24.3005 337.611 23.7609 336.859 22.2479C337.454 22.1178 338.008 22.0096 338.635 21.8891C338.445 21.0335 338.156 20.3903 337.223 20.0358C335.897 19.4917 334.62 18.7891 333.455 17.9474C331.83 16.7918 330.968 15.0717 330.476 13.0487C331.501 13.3274 331.805 14.1487 332.253 14.8404C332.679 15.4908 333.133 15.5949 333.673 14.9625C333.557 14.0946 332.372 13.3163 333.658 12.2877C333.857 12.6604 334.128 13.0208 334.222 13.3962C334.475 14.2711 334.581 15.1707 334.844 16.0139C335.004 16.5135 335.319 16.9568 335.562 17.4124C335.659 17.396 335.76 17.369 335.864 17.3314C335.929 17.0046 335.963 16.6681 336.038 16.3095C336.769 16.1864 337.126 16.6077 337.403 17.1778C337.557 17.4677 337.568 17.8871 337.754 18.1867C337.95 18.4546 338.26 18.6882 338.538 18.912C338.762 18.6337 339.072 18.4162 339.21 18.077C339.397 17.5793 339.457 17.0428 339.58 16.5257C339.708 15.7671 340.196 15.5347 341.206 15.6355C340.933 16.0724 340.817 16.453 340.561 16.7216C339.673 17.6984 339.649 19.2516 340.561 20.0158C341.482 20.7482 343.279 20.4308 343.987 19.3641C344.31 18.8735 344.495 18.2709 344.818 17.7803C344.991 17.5557 345.313 17.4113 345.571 17.2475C345.716 17.5691 345.997 17.8978 345.973 18.2027C345.853 19.2757 345.233 20.057 344.409 20.7069C344.141 20.9024 343.873 21.0979 343.379 21.4669C344.726 21.6013 345.853 21.7726 346.968 21.8708C347.673 21.9476 347.935 22.3398 347.658 23.0181C347.353 23.7915 346.734 24.2266 345.929 24.362C343.495 24.8316 343.364 25.0342 344.471 27.3147C345.034 28.4232 345.547 29.5855 345.871 30.7944C346.463 33.0562 346.097 35.1635 344.378 36.9267C344.173 37.1416 344.091 37.6367 344.131 37.961C344.156 38.1072 344.641 38.2211 344.905 38.267C345.823 38.4435 346.718 38.5786 347.636 38.7551L347.614 38.7137ZM227.457 41.858C227.177 43.6799 227.199 43.7213 228.886 43.9941C232.817 44.6412 236.713 44.2716 240.551 43.295C243.335 42.5858 245.606 41.0606 247.7 39.2041C248.655 38.3516 249.47 37.3871 249.941 36.0746C247.318 35.6887 244.79 35.3319 242.271 34.9434C241.512 34.8154 240.587 34.3243 240.026 34.569C239.414 34.8675 239.092 35.8092 238.742 36.4998C237.096 39.4992 234.721 41.4781 231.383 42.2954C231.007 42.3887 230.629 42.3771 230.229 42.3241C229.292 42.211 228.384 42.0028 227.457 41.858V41.858ZM225.853 41.5412C222.262 40.2351 218.776 38.9265 215.226 37.5985C214.895 38.2256 214.626 38.7674 214.336 39.3726C218.138 40.6734 221.843 41.9451 225.603 43.2679C225.68 42.7135 225.763 42.1379 225.853 41.5412Z" fill="#A1ACBC"/>
<path d="M408.137 41.9916C408.014 40.463 408.097 40.419 409.431 40.0291C409.889 39.8918 410.32 39.5034 410.605 39.1397C411.274 38.1998 412.006 37.2794 412.463 36.2399C412.878 35.2225 412.428 34.877 411.363 35.0713C410.214 35.3097 409.029 35.7798 407.965 35.6279C406.174 35.3577 404.633 35.8576 402.973 36.1821C401.636 36.4671 400.194 36.3036 398.777 36.2864C397.296 36.2498 396.121 36.6881 395.145 37.9503C393.853 39.5666 391.941 39.9184 389.964 39.7996C389.008 39.75 388.384 39.9753 387.712 40.8103C386.177 42.7683 384.328 44.3879 381.893 45.2038C381.429 43.883 381.823 43.2752 383.181 43.0316C383.506 42.9921 383.888 42.7623 384.166 42.535C385.501 41.3479 386.144 39.8107 386.489 38.113C386.702 36.9643 386.826 36.8982 387.978 37.2158C388.772 37.4583 389.425 37.1379 389.728 36.2596C389.864 35.8156 389.873 35.3328 389.993 34.7108C386.102 35.6363 382.299 35.9302 378.473 35.7315C380.368 35.548 382.254 35.3963 384.159 35.1811C386.064 34.9659 387.956 34.6775 389.839 34.4209C389.844 34.3299 389.852 34.2282 389.863 34.1161C389.365 33.9291 388.867 33.7422 388.274 33.5261C388.437 33.3332 388.568 33.1306 388.673 33.128C389.605 33.0314 390.018 32.3602 390.527 31.7181C391.938 29.8261 394.462 29.1759 396.795 29.7159C399.582 30.36 402.248 29.9265 404.508 27.982C405.884 26.7728 406.306 24.3704 405.527 22.6063C404.949 21.3198 404.771 20.0863 404.975 18.6229C403.344 19.3034 402.223 18.5445 401.137 17.1027C401.815 16.9285 402.305 16.8009 402.91 16.639C402.889 15.8003 402.443 15.2134 401.438 14.8712C399.172 14.1092 396.977 13.2301 395.612 11.1134C395.107 10.2656 394.686 9.37389 394.233 8.47244C394.371 8.39907 394.502 8.31189 394.625 8.21091C395.014 8.64187 395.434 9.08252 395.823 9.51348C395.997 9.73996 396.1 10.0836 396.334 10.2246C396.632 10.3851 397.077 10.5209 397.325 10.3889C397.844 10.1661 397.592 9.74226 397.333 9.45496C396.866 8.82662 396.504 8.19569 397.468 7.31145C397.757 7.95471 398.085 8.4711 398.289 9.05353C398.549 9.79193 398.621 10.577 398.923 11.2933C399.102 11.7295 399.519 12.0653 399.823 12.4355C399.905 12.3914 399.981 12.3336 400.049 12.262C400.049 11.9612 400.051 11.6499 400.057 11.3281C400.872 11.161 401.212 11.7505 401.571 12.2766C401.704 12.5251 401.712 12.8396 401.895 13.0344C402.122 13.312 402.42 13.4724 402.689 13.728C402.881 13.44 403.159 13.2128 403.256 12.8956C403.411 12.3882 403.408 11.8323 403.563 11.3249C403.66 11.0077 403.817 10.6051 404.076 10.4414C404.293 10.2996 404.715 10.394 405.061 10.3959C405.006 10.691 405.004 11.0372 404.895 11.2813C404.708 11.779 404.34 12.1868 404.195 12.6625C403.899 13.4042 404.073 14.0818 404.716 14.5904C405.327 15.0892 406.559 15.2579 407.124 14.7718C407.67 14.3491 408.044 13.8047 408.451 13.2701C408.623 13.0455 408.616 12.7309 408.779 12.538C409.022 12.1963 409.382 11.925 409.679 11.6344C409.795 12.0512 410.113 12.5993 409.985 12.9067C409.486 13.9682 408.817 14.908 408.122 16.0479C408.91 16.0807 409.803 16.111 410.718 16.1826C411.128 16.2039 411.562 16.3715 411.985 16.4659C411.82 17.005 411.826 17.6658 411.5 18.0516C411.132 18.4594 410.432 18.5922 409.913 18.8149C409.55 18.9813 409.197 19.116 408.865 19.2921C408.358 19.5879 408.274 19.9782 408.582 20.558C409.346 22.1441 410.079 23.7205 410.76 25.3507C411.523 27.283 411.202 29.1269 410.017 30.8454C409.835 31.1018 409.63 31.3167 409.48 31.5827C409.057 32.2856 409.258 32.7632 410.09 32.8789C410.976 33.0457 411.869 33.076 412.745 33.2745C414.507 33.6398 415.042 35.2946 413.945 36.7277C413.404 37.3601 412.759 37.9951 412.495 38.7465C412.124 39.8468 411.437 40.5038 410.484 41.0101C409.748 41.3746 408.968 41.6562 408.137 41.9916V41.9916Z" fill="#A1ACBC"/>
<path d="M347.636 38.7532C349.071 38.6021 350.505 38.4511 351.939 38.3C353.425 38.1302 354.904 37.9466 356.376 37.7491C357.432 37.5865 357.41 37.5451 357.59 36.3866C357.07 36.1582 356.528 35.8884 355.859 35.5798C356.168 35.3623 356.3 35.1598 356.468 35.1765C357.383 35.2482 357.85 34.6281 358.349 34.0177C360.165 31.9374 362.477 31.6386 364.933 32.4588C367.452 33.2984 369.81 32.7362 372.031 31.7158C373.515 31.06 374.32 29.6761 374.205 28.0109C374.115 26.9431 373.805 25.9122 373.684 24.8346C373.587 23.9034 373.626 22.9792 373.612 22.0039C371.998 22.5161 370.916 21.6303 370.061 20.2247C370.647 20.1263 371.208 20.0319 371.744 19.9416C371.988 18.8025 371.4 18.3451 370.508 17.9686C368.577 17.1353 366.633 16.229 365.359 14.3828C364.661 13.372 364.079 12.3269 364.076 10.9736C364.528 11.424 364.949 11.8646 365.359 12.337C365.533 12.5635 365.614 12.8657 365.817 12.9971C366.083 13.1478 366.43 13.1497 366.747 13.2467C366.78 12.9102 366.928 12.5393 366.828 12.3005C366.422 11.5867 366.059 10.9558 367.119 10.1007C367.357 10.7976 367.624 11.3995 367.786 12.0039C367.973 12.7546 368.004 13.5617 368.232 14.2904C368.389 14.6851 368.766 15.0429 369.069 15.4131C369.152 15.369 369.224 15.3218 369.286 15.2713C369.309 14.9665 369.301 14.6519 369.303 14.3057C370.298 14.2285 370.588 14.8718 370.848 15.6102C371.039 16.1195 371.006 16.9071 371.75 16.8571C372.526 16.8168 372.486 16.0415 372.619 15.4927C372.742 14.9756 372.78 14.3976 373.096 14.0436C373.311 13.7969 373.867 13.7936 374.284 13.6783C374.241 14.0466 374.295 14.5488 374.069 14.7223C373.35 15.3696 373.203 16.1915 373.307 16.9863C373.371 17.4568 373.836 17.9803 374.273 18.2526C375.262 18.7631 376.637 18.3512 377.243 17.392C377.566 16.9014 377.782 16.3085 378.106 15.8179C378.288 15.5616 378.632 15.4586 378.922 15.3045C379.035 15.6164 379.284 15.9355 379.229 16.2306C379.131 17.3451 378.469 18.1483 377.614 18.7886C377.378 18.9938 377.129 19.1258 376.867 19.531C378.179 19.7012 379.479 19.8787 380.764 20.0636C381.095 21.1359 380.633 21.9657 379.478 22.3406C378.905 22.5122 378.332 22.6838 377.759 22.8555C377.093 23.1028 376.862 23.5177 377.195 24.2438C377.705 25.3012 378.163 26.4123 378.59 27.5138C379.362 29.4144 379.464 31.3527 378.609 33.2414C378.29 33.9417 377.718 34.5644 377.222 35.2796C377.371 35.3598 377.542 35.4815 377.777 35.6225C377.484 35.6717 377.306 35.6867 377.118 35.7333C377.078 35.7903 377.034 35.8578 376.987 35.9359C377.275 36.1281 377.534 36.4154 377.861 36.4807C378.845 36.7814 379.909 36.9333 380.873 37.2975C381.955 37.7322 382.274 38.7314 381.757 39.8563C381.567 40.2492 381.26 40.5716 380.976 40.9353C380.428 41.7043 379.817 42.4538 379.292 43.2642C378.798 44.0843 376.213 45.6173 375.327 45.4505C375.19 45.4434 375.029 45.29 374.973 45.1341C374.764 44.3419 375.56 43.4409 376.411 43.4932C376.58 43.51 376.77 43.5682 376.926 43.5119C378.065 43.3052 380.151 40.6831 380.039 39.5738C380.021 39.291 379.613 38.9235 379.349 38.8776C378.927 38.7832 378.491 38.9619 378.03 38.9943C377.444 39.0928 376.83 39.2864 376.271 39.1849C374.423 38.7587 372.636 39.0445 370.794 39.2791C369.424 39.4495 367.95 39.2764 366.539 39.1226C364.992 38.9617 363.761 39.2441 362.668 40.4358C361.227 41.9718 359.197 42.253 357.301 41.9854C355.847 41.7488 355.062 42.2719 354.31 43.2558C353.12 44.7646 351.507 45.7279 349.752 46.4744C349.406 46.6229 349.06 46.7714 348.714 46.9198C348.286 45.3673 348.878 44.6812 350.232 44.679C350.578 44.6809 350.973 44.5242 351.251 44.297C352.578 43.2464 353.383 41.8625 353.824 40.194C354.199 38.8523 354.231 38.862 355.554 39.3012C356.316 39.5341 356.718 39.2408 357.101 38.2137C354.262 38.4206 351.413 38.6593 348.542 38.8566C348.249 38.9058 347.941 38.7771 347.614 38.7118L347.636 38.7532V38.7532Z" fill="#A1ACBC"/>
<path d="M146.01 121.41C148.97 121.815 153.664 122.22 159.788 122.22C171.015 122.22 178.771 120.195 183.466 115.841C187.038 112.601 189.386 108.044 189.386 102.172C189.386 92.0463 181.731 86.6799 175.199 85.1611V84.8573C182.344 82.326 186.834 76.5546 186.834 69.8718C186.834 64.5054 184.589 60.4553 181.017 57.8227C176.832 54.3801 171.117 52.8613 162.238 52.8613C156.114 52.8613 149.888 53.4688 146.01 54.3801V121.41ZM154.889 60.2528C156.318 59.949 158.665 59.6452 162.748 59.6452C171.729 59.6452 177.751 62.8854 177.751 70.7831C177.751 77.3646 172.24 82.326 162.952 82.326H154.889V60.2528ZM154.889 88.9075H162.238C171.933 88.9075 179.996 92.8564 179.996 102.07C179.996 111.993 171.525 115.335 162.34 115.335C159.176 115.335 156.726 115.233 154.889 114.93V88.9075Z" fill="#5B5B5B"/>
<path d="M201.02 121.612H210.001V49.7224H201.02V121.612Z" fill="#5B5B5B"/>
<path d="M234.121 121.612V72.6057H225.14V121.612H234.121ZM229.631 53.2663C226.263 53.2663 224.017 55.7976 224.017 58.8352C224.017 61.8728 226.161 64.3029 229.427 64.3029C232.999 64.3029 235.142 61.8728 235.142 58.8352C235.142 55.6964 232.897 53.2663 229.631 53.2663Z" fill="#5B5B5B"/>
<path d="M245.693 119.284C249.163 121.309 254.164 122.726 259.573 122.726C271.106 122.726 277.944 116.651 277.944 107.943C277.944 100.653 273.453 96.4002 264.982 93.2614C258.552 90.73 255.695 88.9075 255.695 84.8573C255.695 81.2122 258.552 78.1746 263.859 78.1746C268.452 78.1746 272.024 79.8959 273.964 81.111L276.107 74.6308C273.453 72.9094 269.065 71.5931 264.064 71.5931C253.551 71.5931 247.019 78.0734 247.019 85.9711C247.019 91.8438 251.204 96.6027 260.185 99.8429C266.717 102.273 269.269 104.501 269.269 108.753C269.269 112.905 266.207 116.043 259.777 116.043C255.286 116.043 250.592 114.221 247.836 112.601L245.693 119.284Z" fill="#5B5B5B"/>
<path d="M286.158 119.284C289.628 121.309 294.629 122.726 300.039 122.726C311.572 122.726 318.41 116.651 318.41 107.943C318.41 100.653 313.919 96.4002 305.448 93.2614C299.018 90.73 296.16 88.9075 296.16 84.8573C296.16 81.2122 299.018 78.1746 304.325 78.1746C308.918 78.1746 312.49 79.8959 314.429 81.111L316.573 74.6308C313.919 72.9094 309.53 71.5931 304.529 71.5931C294.017 71.5931 287.485 78.0734 287.485 85.9711C287.485 91.8438 291.67 96.6027 300.651 99.8429C307.183 102.273 309.734 104.501 309.734 108.753C309.734 112.905 306.673 116.043 300.243 116.043C295.752 116.043 291.057 114.221 288.302 112.601L286.158 119.284Z" fill="#5B5B5B"/>
<path d="M323.868 72.6057L342.648 121.612H351.221L370.612 72.6057H361.223L351.629 100.045C349.996 104.602 348.567 108.652 347.445 112.702H347.138C346.118 108.652 344.791 104.602 343.158 100.045L333.462 72.6057H323.868Z" fill="#5B5B5B"/>
<path d="M388.11 121.612V72.6057H379.129V121.612H388.11ZM383.62 53.2663C380.252 53.2663 378.006 55.7976 378.006 58.8352C378.006 61.8728 380.15 64.3029 383.416 64.3029C386.988 64.3029 389.131 61.8728 389.131 58.8352C389.131 55.6964 386.886 53.2663 383.62 53.2663Z" fill="#5B5B5B"/>
<path d="M403.05 121.612H412.031V49.7224H403.05V121.612Z" fill="#5B5B5B"/>
<path d="M427.17 121.612H436.151V49.7224H427.17V121.612Z" fill="#5B5B5B"/>
<path d="M490.991 98.7291C491.195 97.7165 491.298 96.4002 491.298 94.5777C491.298 85.5661 487.113 71.5931 470.885 71.5931C456.495 71.5931 447.717 83.136 447.717 97.919C447.717 112.702 456.801 122.726 472.008 122.726C479.867 122.726 485.378 121.005 488.542 119.587L486.909 113.208C483.643 114.626 479.663 115.74 473.233 115.74C464.149 115.74 456.495 110.778 456.291 98.7291H490.991ZM456.393 92.3501C457.107 86.1736 460.985 77.9721 470.171 77.9721C480.275 77.9721 482.724 86.7812 482.622 92.3501H456.393Z" fill="#5B5B5B"/>
<path d="M127.15 110.98C127.747 111.04 128.454 111.457 128.401 111.606C125.948 118.524 123.978 125.684 120.801 132.262C114.35 145.621 104.962 156.756 92.4622 164.939C80.923 172.492 68.055 175.999 54.2633 176C52.485 176 50.6866 175.499 48.9319 175.085C43.3765 173.775 41.8538 170.662 43.1962 165.015C46.9533 149.211 58.6998 141.843 72.7891 137.279C79.7669 135.018 87.1152 133.896 94.7353 132.159C87.1935 131.723 71.4272 134.163 61.5313 139.403C49.4747 145.788 45.4407 148.285 39.0026 163.394C34.3343 161.745 32.4942 159.598 32.7041 155.046C33.2124 144.019 38.1673 135.425 47.6935 129.728C57.7448 123.717 68.8221 121.182 80.4411 120.421C91.6928 119.684 102.998 119.113 114.125 117.444C118.597 116.773 122.658 113.371 127.15 110.98Z" fill="#26A65B"/>
<path fill-rule="evenodd" clip-rule="evenodd" d="M71.6642 41.2579C72.6259 40.1458 73.7165 39.1624 74.7301 38.2485C75.64 37.4281 76.4879 36.6635 77.125 35.9119C95.0812 43.2768 109.012 54.126 118.906 69.8563C124.691 79.0535 128.316 89.0698 130.144 99.7455C130.765 103.368 127.574 104.65 125.413 105.496L125.086 105.623C119.333 107.876 113.409 110.195 107.357 110.992C102.587 111.62 97.7491 111.693 92.907 111.767C89.1298 111.824 85.35 111.881 81.5984 112.201C66.9041 113.457 52.1717 115.258 39.7413 124.13C36.6699 126.322 34.074 129.178 31.5657 131.937L31.5647 131.938C30.4463 133.168 29.3453 134.379 28.2273 135.504V108.266H0.956027C-0.769582 108.266 0.367729 106.872 0.367729 106.872C1.18551 106.053 1.99411 105.223 2.80271 104.394C4.57017 102.581 6.33764 100.769 8.20092 99.0597C12.0213 95.5562 15.862 92.0746 19.7026 88.5931C24.3681 84.3639 29.0336 80.1347 33.6626 75.8661C34.2847 75.2924 34.4719 74.0106 34.4821 73.054C34.5341 68.181 34.5282 63.3074 34.5222 58.2737V58.2698C34.5202 56.6204 34.5182 54.9537 34.5182 53.2643C34.5182 53.1206 34.5169 52.9782 34.5157 52.8374C32.4653 52.836 30.8036 51.1776 30.8036 49.132C30.8036 47.0855 32.4667 45.4265 34.5183 45.4265H52.1628C54.2144 45.4265 55.8775 47.0855 55.8775 49.132C55.8775 51.1106 54.3228 52.727 52.3656 52.832C52.3868 52.9469 52.3901 53.0637 52.3727 53.1822C52.1183 54.9165 51.8925 60.0668 51.8925 60.0668C51.8925 60.0668 64.6855 47.6056 71.6642 41.2579ZM73.522 68.5855H82.8086V75.9964H73.522V68.5855ZM86.5233 68.5855H95.8099V75.9964H86.5233V68.5855ZM86.5233 79.7019H95.8099V87.1128H86.5233V79.7019ZM73.522 79.7019H82.8086V87.1128H73.522V79.7019Z" fill="#446CB2"/>
<path d="M79.3226 1.66128L82.8481 8.83972C83.103 9.30695 83.5702 9.64676 84.1224 9.73171L92.023 10.8786C93.4247 11.0909 93.9768 12.79 92.9574 13.7669L87.2232 19.3313C86.8409 19.7136 86.671 20.3082 86.7559 20.8179L88.1152 28.7185C88.3276 30.0777 86.8834 31.1396 85.6516 30.5025L78.6005 26.7646C78.0908 26.5097 77.4962 26.5097 77.0289 26.7646L69.9354 30.5025C68.7036 31.1396 67.2595 30.0777 67.5143 28.7185L68.8311 20.8179C68.9585 20.3082 68.7461 19.7136 68.3638 19.3313L62.6296 13.7669C61.6526 12.79 62.2048 11.0909 63.564 10.8786L71.4646 9.73171C72.0168 9.64676 72.484 9.30695 72.7389 8.83972L76.3068 1.66128C76.9015 0.386996 78.6855 0.386996 79.3226 1.66128V1.66128Z" fill="#446CB2"/>
<path d="M78.6794 7.44159L80.7607 11.6467C80.9306 11.944 81.1855 12.1564 81.5253 12.1989L86.1551 12.8785C87.0047 13.0059 87.302 13.9829 86.7073 14.5776L83.3517 17.8482C83.0969 18.0606 83.0119 18.4004 83.0544 18.7402L83.8615 23.3701C83.9889 24.1771 83.1393 24.8143 82.4173 24.432L78.2546 22.2232C77.9573 22.0533 77.6175 22.0533 77.3201 22.2232L73.1575 24.432C72.4354 24.8143 71.5859 24.1771 71.7133 23.3701L72.5204 18.7402C72.5628 18.4004 72.4779 18.0606 72.223 17.8482L68.8674 14.5776C68.2728 13.9829 68.6126 13.0059 69.4196 12.8785L74.092 12.1989C74.3893 12.1564 74.6866 11.944 74.8141 11.6467L76.8954 7.44159C77.2777 6.67702 78.2971 6.67702 78.6794 7.44159V7.44159Z" fill="#7090C8"/>
<path d="M78.1784 12.1137L79.1129 13.9402C79.1554 14.0676 79.2828 14.1526 79.4102 14.1951L81.4491 14.4499C81.8313 14.5349 81.9588 14.9596 81.7039 15.2145L80.2173 16.6587C80.1323 16.7436 80.0898 16.8711 80.0898 17.041L80.4296 19.0373C80.5146 19.4196 80.1323 19.6745 79.835 19.5046L78.0085 18.5276C77.8811 18.4851 77.7112 18.4851 77.5837 18.5276L75.7998 19.5046C75.4599 19.6745 75.0777 19.4196 75.1626 19.0373L75.5024 17.041C75.5449 16.8711 75.4599 16.7436 75.375 16.6587L73.8883 15.2145C73.6335 14.9596 73.8034 14.5349 74.1432 14.4499L76.182 14.1951C76.3095 14.1526 76.4369 14.0676 76.5218 13.9402L77.4138 12.1137C77.5837 11.7739 78.051 11.7739 78.1784 12.1137V12.1137Z" fill="#8CA6D3"/>
</svg>
