<svg width="519" height="176" viewBox="0 0 519 176" fill="none" xmlns="http://www.w3.org/2000/svg">
<g clip-path="url(#clip0_548_190)">
<path d="M154.836 147.279V169.086H151.063V147.279H154.836ZM163.764 156.82V159.8H153.874V156.82H163.764ZM165.011 147.279V150.275H153.874V147.279H165.011Z" fill="#828D96"/>
<path d="M177.11 165.267V152.881H180.747V169.086H177.32L177.11 165.267ZM177.621 161.897L178.838 161.867C178.838 162.955 178.718 163.959 178.478 164.878C178.237 165.786 177.866 166.58 177.365 167.259C176.864 167.928 176.223 168.452 175.442 168.832C174.66 169.201 173.723 169.386 172.631 169.386C171.839 169.386 171.113 169.271 170.452 169.041C169.79 168.812 169.219 168.457 168.738 167.978C168.267 167.499 167.902 166.875 167.641 166.106C167.381 165.337 167.25 164.418 167.25 163.35V152.881H170.873V163.38C170.873 163.969 170.943 164.463 171.083 164.863C171.223 165.252 171.414 165.567 171.654 165.806C171.895 166.046 172.175 166.216 172.496 166.315C172.816 166.415 173.157 166.465 173.518 166.465C174.55 166.465 175.361 166.265 175.953 165.866C176.554 165.457 176.98 164.908 177.23 164.219C177.491 163.53 177.621 162.756 177.621 161.897Z" fill="#828D96"/>
<path d="M191.914 152.881V155.517H182.746V152.881H191.914ZM185.391 148.912H189.013V164.608C189.013 165.107 189.084 165.492 189.224 165.761C189.374 166.021 189.579 166.196 189.84 166.285C190.101 166.375 190.406 166.42 190.757 166.42C191.007 166.42 191.248 166.405 191.478 166.375C191.709 166.345 191.894 166.315 192.034 166.285L192.049 169.041C191.749 169.131 191.398 169.211 190.997 169.281C190.607 169.351 190.156 169.386 189.645 169.386C188.813 169.386 188.077 169.241 187.435 168.951C186.794 168.652 186.293 168.168 185.932 167.499C185.572 166.83 185.391 165.941 185.391 164.833V148.912Z" fill="#828D96"/>
<path d="M204.494 165.267V152.881H208.131V169.086H204.704L204.494 165.267ZM205.005 161.897L206.222 161.867C206.222 162.955 206.102 163.959 205.862 164.878C205.621 165.786 205.25 166.58 204.749 167.259C204.248 167.928 203.607 168.452 202.826 168.832C202.044 169.201 201.107 169.386 200.015 169.386C199.224 169.386 198.497 169.271 197.836 169.041C197.174 168.812 196.603 168.457 196.122 167.978C195.651 167.499 195.286 166.875 195.025 166.106C194.765 165.337 194.634 164.418 194.634 163.35V152.881H198.257V163.38C198.257 163.969 198.327 164.463 198.467 164.863C198.607 165.252 198.798 165.567 199.038 165.806C199.279 166.046 199.559 166.216 199.88 166.315C200.2 166.415 200.541 166.465 200.902 166.465C201.934 166.465 202.745 166.265 203.337 165.866C203.938 165.457 204.364 164.908 204.614 164.219C204.875 163.53 205.005 162.756 205.005 161.897Z" fill="#828D96"/>
<path d="M215.481 155.966V169.086H211.858V152.881H215.315L215.481 155.966ZM220.455 152.776L220.425 156.131C220.205 156.091 219.964 156.061 219.704 156.041C219.453 156.021 219.203 156.011 218.952 156.011C218.331 156.011 217.785 156.101 217.314 156.281C216.843 156.45 216.448 156.7 216.127 157.029C215.816 157.349 215.576 157.738 215.405 158.198C215.235 158.657 215.135 159.171 215.105 159.74L214.278 159.8C214.278 158.782 214.378 157.838 214.579 156.97C214.779 156.101 215.08 155.337 215.481 154.678C215.891 154.019 216.402 153.505 217.014 153.135C217.635 152.766 218.351 152.581 219.163 152.581C219.383 152.581 219.619 152.601 219.869 152.641C220.13 152.681 220.325 152.726 220.455 152.776Z" fill="#828D96"/>
<path d="M229.593 169.386C228.391 169.386 227.304 169.191 226.332 168.802C225.37 168.402 224.549 167.848 223.867 167.139C223.196 166.43 222.68 165.596 222.319 164.638C221.958 163.679 221.778 162.646 221.778 161.538V160.939C221.778 159.67 221.963 158.522 222.334 157.494C222.705 156.465 223.221 155.587 223.882 154.858C224.544 154.119 225.325 153.555 226.227 153.165C227.129 152.776 228.106 152.581 229.158 152.581C230.32 152.581 231.337 152.776 232.209 153.165C233.08 153.555 233.802 154.104 234.373 154.813C234.954 155.512 235.385 156.345 235.665 157.314C235.956 158.283 236.101 159.351 236.101 160.519V162.062H223.537V159.471H232.524V159.186C232.504 158.537 232.374 157.928 232.133 157.359C231.903 156.79 231.547 156.331 231.066 155.981C230.585 155.632 229.944 155.457 229.143 155.457C228.541 155.457 228.005 155.587 227.534 155.846C227.074 156.096 226.688 156.46 226.377 156.94C226.067 157.419 225.826 157.998 225.656 158.677C225.495 159.346 225.415 160.1 225.415 160.939V161.538C225.415 162.247 225.51 162.906 225.701 163.515C225.901 164.114 226.192 164.638 226.573 165.087C226.953 165.537 227.414 165.891 227.955 166.151C228.496 166.4 229.113 166.525 229.804 166.525C230.676 166.525 231.452 166.35 232.133 166.001C232.815 165.651 233.406 165.157 233.907 164.518L235.816 166.36C235.465 166.87 235.009 167.359 234.448 167.828C233.887 168.287 233.201 168.662 232.389 168.951C231.587 169.241 230.656 169.386 229.593 169.386Z" fill="#828D96"/>
<path d="M246.953 147.279H254.693C256.356 147.279 257.774 147.529 258.946 148.028C260.119 148.527 261.015 149.266 261.637 150.245C262.268 151.213 262.584 152.411 262.584 153.839C262.584 154.928 262.383 155.886 261.982 156.715C261.582 157.544 261.015 158.243 260.284 158.812C259.553 159.371 258.681 159.805 257.669 160.115L256.527 160.669H249.568L249.538 157.688H254.753C255.655 157.688 256.406 157.529 257.008 157.209C257.609 156.89 258.06 156.455 258.36 155.906C258.671 155.347 258.826 154.718 258.826 154.019C258.826 153.26 258.676 152.601 258.375 152.042C258.085 151.473 257.634 151.039 257.023 150.739C256.411 150.429 255.635 150.275 254.693 150.275H250.725V169.086H246.953V147.279ZM259.442 169.086L254.302 159.291L258.255 159.276L263.47 168.891V169.086H259.442Z" fill="#828D96"/>
<path d="M273.149 169.386C271.947 169.386 270.86 169.191 269.888 168.802C268.926 168.402 268.104 167.848 267.423 167.139C266.752 166.43 266.236 165.596 265.875 164.638C265.514 163.679 265.334 162.646 265.334 161.538V160.939C265.334 159.67 265.519 158.522 265.89 157.494C266.261 156.465 266.777 155.587 267.438 154.858C268.099 154.119 268.881 153.555 269.783 153.165C270.685 152.776 271.662 152.581 272.714 152.581C273.876 152.581 274.893 152.776 275.765 153.165C276.636 153.555 277.358 154.104 277.929 154.813C278.51 155.512 278.941 156.345 279.221 157.314C279.512 158.283 279.657 159.351 279.657 160.519V162.062H267.092V159.471H276.08V159.186C276.06 158.537 275.93 157.928 275.689 157.359C275.459 156.79 275.103 156.331 274.622 155.981C274.141 155.632 273.5 155.457 272.699 155.457C272.097 155.457 271.561 155.587 271.09 155.846C270.629 156.096 270.244 156.46 269.933 156.94C269.622 157.419 269.382 157.998 269.212 158.677C269.051 159.346 268.971 160.1 268.971 160.939V161.538C268.971 162.247 269.066 162.906 269.257 163.515C269.457 164.114 269.748 164.638 270.128 165.087C270.509 165.537 270.97 165.891 271.511 166.151C272.052 166.4 272.668 166.525 273.36 166.525C274.232 166.525 275.008 166.35 275.689 166.001C276.371 165.651 276.962 165.157 277.463 164.518L279.372 166.36C279.021 166.87 278.565 167.359 278.004 167.828C277.443 168.287 276.757 168.662 275.945 168.951C275.143 169.241 274.212 169.386 273.149 169.386Z" fill="#828D96"/>
<path d="M291.651 165.836V158.108C291.651 157.529 291.546 157.029 291.335 156.61C291.125 156.191 290.804 155.866 290.373 155.637C289.953 155.407 289.422 155.292 288.78 155.292C288.189 155.292 287.678 155.392 287.247 155.592C286.816 155.791 286.481 156.061 286.24 156.4C286 156.74 285.88 157.124 285.88 157.554H282.272C282.272 156.915 282.428 156.296 282.738 155.696C283.049 155.097 283.5 154.563 284.091 154.094C284.682 153.625 285.389 153.255 286.21 152.986C287.032 152.716 287.954 152.581 288.976 152.581C290.198 152.581 291.28 152.786 292.222 153.195C293.174 153.605 293.92 154.224 294.462 155.052C295.013 155.871 295.288 156.9 295.288 158.138V165.342C295.288 166.081 295.338 166.745 295.438 167.334C295.549 167.913 295.704 168.417 295.904 168.847V169.086H292.192C292.022 168.697 291.886 168.203 291.786 167.603C291.696 166.994 291.651 166.405 291.651 165.836ZM292.177 159.231L292.207 161.463H289.607C288.936 161.463 288.344 161.528 287.833 161.657C287.322 161.777 286.897 161.957 286.556 162.197C286.215 162.436 285.96 162.726 285.789 163.065C285.619 163.405 285.534 163.789 285.534 164.219C285.534 164.648 285.634 165.042 285.834 165.402C286.035 165.751 286.325 166.026 286.706 166.226C287.097 166.425 287.568 166.525 288.119 166.525C288.86 166.525 289.507 166.375 290.058 166.076C290.619 165.766 291.06 165.392 291.38 164.952C291.701 164.503 291.871 164.079 291.891 163.679L293.064 165.282C292.944 165.691 292.738 166.131 292.448 166.6C292.157 167.069 291.776 167.519 291.305 167.948C290.844 168.367 290.288 168.712 289.637 168.981C288.996 169.251 288.254 169.386 287.413 169.386C286.35 169.386 285.404 169.176 284.572 168.757C283.74 168.327 283.089 167.753 282.618 167.034C282.147 166.305 281.912 165.482 281.912 164.563C281.912 163.704 282.072 162.945 282.393 162.286C282.723 161.617 283.204 161.058 283.836 160.609C284.477 160.16 285.258 159.82 286.18 159.591C287.102 159.351 288.154 159.231 289.336 159.231H292.177Z" fill="#828D96"/>
<path d="M308.995 165.731V146.081H312.632V169.086H309.341L308.995 165.731ZM298.414 161.163V160.849C298.414 159.621 298.56 158.502 298.85 157.494C299.141 156.475 299.562 155.602 300.113 154.873C300.664 154.134 301.335 153.57 302.127 153.18C302.918 152.781 303.81 152.581 304.802 152.581C305.784 152.581 306.646 152.771 307.387 153.15C308.128 153.53 308.76 154.074 309.281 154.783C309.802 155.482 310.218 156.321 310.528 157.299C310.839 158.268 311.059 159.346 311.19 160.534V161.538C311.059 162.696 310.839 163.754 310.528 164.713C310.218 165.671 309.802 166.5 309.281 167.199C308.76 167.898 308.123 168.437 307.372 168.817C306.631 169.196 305.764 169.386 304.772 169.386C303.79 169.386 302.903 169.181 302.112 168.772C301.33 168.362 300.664 167.788 300.113 167.049C299.562 166.31 299.141 165.442 298.85 164.443C298.56 163.435 298.414 162.341 298.414 161.163ZM302.036 160.849V161.163C302.036 161.902 302.102 162.591 302.232 163.23C302.372 163.869 302.588 164.433 302.878 164.922C303.169 165.402 303.544 165.781 304.005 166.061C304.476 166.33 305.037 166.465 305.689 166.465C306.51 166.465 307.187 166.285 307.718 165.926C308.249 165.567 308.665 165.082 308.965 164.473C309.276 163.854 309.486 163.165 309.596 162.406V159.695C309.536 159.106 309.411 158.557 309.221 158.048C309.04 157.539 308.795 157.094 308.484 156.715C308.174 156.326 307.788 156.026 307.327 155.816C306.876 155.597 306.34 155.487 305.719 155.487C305.057 155.487 304.496 155.627 304.035 155.906C303.574 156.186 303.194 156.57 302.893 157.059C302.603 157.549 302.387 158.118 302.247 158.767C302.107 159.416 302.036 160.11 302.036 160.849Z" fill="#828D96"/>
<path d="M321.139 167.319L325.558 152.881H329.436L322.913 171.557C322.762 171.957 322.567 172.391 322.327 172.86C322.086 173.33 321.77 173.774 321.38 174.193C320.999 174.623 320.523 174.967 319.952 175.227C319.381 175.496 318.689 175.631 317.878 175.631C317.557 175.631 317.246 175.601 316.946 175.541C316.655 175.491 316.38 175.437 316.119 175.377L316.104 172.621C316.204 172.631 316.325 172.641 316.465 172.651C316.615 172.661 316.735 172.666 316.826 172.666C317.427 172.666 317.928 172.591 318.329 172.441C318.729 172.301 319.055 172.072 319.306 171.752C319.566 171.433 319.786 171.003 319.967 170.464L321.139 167.319ZM318.644 152.881L322.507 165.012L323.153 168.817L320.643 169.461L314.737 152.881H318.644Z" fill="#828D96"/>
<path d="M339.535 147.279H347.276C348.939 147.279 350.357 147.529 351.529 148.028C352.701 148.527 353.598 149.266 354.219 150.245C354.851 151.213 355.166 152.411 355.166 153.839C355.166 154.928 354.966 155.886 354.565 156.715C354.164 157.544 353.598 158.243 352.867 158.812C352.135 159.371 351.264 159.805 350.252 160.115L349.109 160.669H342.151L342.121 157.688H347.336C348.238 157.688 348.989 157.529 349.59 157.209C350.192 156.89 350.642 156.455 350.943 155.906C351.254 155.347 351.409 154.718 351.409 154.019C351.409 153.26 351.259 152.601 350.958 152.042C350.667 151.473 350.217 151.039 349.605 150.739C348.994 150.429 348.218 150.275 347.276 150.275H343.308V169.086H339.535V147.279ZM352.025 169.086L346.885 159.291L350.838 159.276L356.053 168.891V169.086H352.025Z" fill="#828D96"/>
<path d="M365.732 169.386C364.53 169.386 363.443 169.191 362.471 168.802C361.509 168.402 360.687 167.848 360.006 167.139C359.335 166.43 358.819 165.596 358.458 164.638C358.097 163.679 357.917 162.646 357.917 161.538V160.939C357.917 159.67 358.102 158.522 358.473 157.494C358.844 156.465 359.36 155.587 360.021 154.858C360.682 154.119 361.464 153.555 362.366 153.165C363.267 152.776 364.244 152.581 365.296 152.581C366.459 152.581 367.476 152.776 368.347 153.165C369.219 153.555 369.94 154.104 370.512 154.813C371.093 155.512 371.524 156.345 371.804 157.314C372.095 158.283 372.24 159.351 372.24 160.519V162.062H359.675V159.471H368.663V159.186C368.643 158.537 368.513 157.928 368.272 157.359C368.042 156.79 367.686 156.331 367.205 155.981C366.724 155.632 366.083 155.457 365.281 155.457C364.68 155.457 364.144 155.587 363.673 155.846C363.212 156.096 362.826 156.46 362.516 156.94C362.205 157.419 361.965 157.998 361.794 158.677C361.634 159.346 361.554 160.1 361.554 160.939V161.538C361.554 162.247 361.649 162.906 361.839 163.515C362.04 164.114 362.33 164.638 362.711 165.087C363.092 165.537 363.553 165.891 364.094 166.151C364.635 166.4 365.251 166.525 365.943 166.525C366.814 166.525 367.591 166.35 368.272 166.001C368.954 165.651 369.545 165.157 370.046 164.518L371.954 166.36C371.604 166.87 371.148 167.359 370.587 167.828C370.026 168.287 369.339 168.662 368.528 168.951C367.726 169.241 366.794 169.386 365.732 169.386Z" fill="#828D96"/>
<path d="M384.234 165.836V158.108C384.234 157.529 384.128 157.029 383.918 156.61C383.708 156.191 383.387 155.866 382.956 155.637C382.535 155.407 382.004 155.292 381.363 155.292C380.772 155.292 380.261 155.392 379.83 155.592C379.399 155.791 379.063 156.061 378.823 156.4C378.583 156.74 378.462 157.124 378.462 157.554H374.855C374.855 156.915 375.01 156.296 375.321 155.696C375.632 155.097 376.083 154.563 376.674 154.094C377.265 153.625 377.971 153.255 378.793 152.986C379.615 152.716 380.536 152.581 381.558 152.581C382.781 152.581 383.863 152.786 384.805 153.195C385.757 153.605 386.503 154.224 387.044 155.052C387.595 155.871 387.871 156.9 387.871 158.138V165.342C387.871 166.081 387.921 166.745 388.021 167.334C388.131 167.913 388.287 168.417 388.487 168.847V169.086H384.775C384.604 168.697 384.469 168.203 384.369 167.603C384.279 166.994 384.234 166.405 384.234 165.836ZM384.76 159.231L384.79 161.463H382.19C381.518 161.463 380.927 161.528 380.416 161.657C379.905 161.777 379.479 161.957 379.139 162.197C378.798 162.436 378.542 162.726 378.372 163.065C378.202 163.405 378.117 163.789 378.117 164.219C378.117 164.648 378.217 165.042 378.417 165.402C378.618 165.751 378.908 166.026 379.289 166.226C379.68 166.425 380.151 166.525 380.702 166.525C381.443 166.525 382.089 166.375 382.641 166.076C383.202 165.766 383.643 165.392 383.963 164.952C384.284 164.503 384.454 164.079 384.474 163.679L385.646 165.282C385.526 165.691 385.321 166.131 385.03 166.6C384.74 167.069 384.359 167.519 383.888 167.948C383.427 168.367 382.871 168.712 382.22 168.981C381.578 169.251 380.837 169.386 379.995 169.386C378.933 169.386 377.986 169.176 377.155 168.757C376.323 168.327 375.672 167.753 375.201 167.034C374.73 166.305 374.494 165.482 374.494 164.563C374.494 163.704 374.655 162.945 374.975 162.286C375.306 161.617 375.787 161.058 376.418 160.609C377.06 160.16 377.841 159.82 378.763 159.591C379.685 159.351 380.737 159.231 381.919 159.231H384.76Z" fill="#828D96"/>
<path d="M395.536 146.081V169.086H391.899V146.081H395.536Z" fill="#828D96"/>
<path d="M421.853 166.106V169.086H410.235V166.106H421.853ZM411.302 147.279V169.086H407.53V147.279H411.302ZM420.335 156.385V159.321H410.235V156.385H420.335ZM421.778 147.279V150.275H410.235V147.279H421.778Z" fill="#828D96"/>
<path d="M433.696 164.698C433.696 164.338 433.606 164.014 433.426 163.724C433.245 163.425 432.9 163.155 432.389 162.916C431.888 162.676 431.146 162.456 430.164 162.257C429.303 162.067 428.511 161.842 427.79 161.583C427.078 161.313 426.467 160.988 425.956 160.609C425.445 160.23 425.049 159.78 424.769 159.261C424.488 158.742 424.348 158.143 424.348 157.464C424.348 156.805 424.493 156.181 424.784 155.592C425.074 155.003 425.49 154.483 426.031 154.034C426.572 153.585 427.229 153.23 428 152.971C428.782 152.711 429.653 152.581 430.615 152.581C431.978 152.581 433.145 152.811 434.117 153.27C435.099 153.719 435.851 154.334 436.372 155.112C436.893 155.881 437.153 156.75 437.153 157.718H433.531C433.531 157.289 433.421 156.89 433.2 156.52C432.99 156.141 432.669 155.836 432.238 155.607C431.808 155.367 431.267 155.247 430.615 155.247C429.994 155.247 429.478 155.347 429.067 155.547C428.666 155.736 428.366 155.986 428.165 156.296C427.975 156.605 427.88 156.945 427.88 157.314C427.88 157.584 427.93 157.828 428.03 158.048C428.14 158.258 428.321 158.452 428.571 158.632C428.822 158.802 429.162 158.962 429.593 159.111C430.034 159.261 430.585 159.406 431.246 159.546C432.489 159.805 433.556 160.14 434.448 160.549C435.35 160.949 436.041 161.468 436.522 162.107C437.003 162.736 437.243 163.535 437.243 164.503C437.243 165.222 437.088 165.881 436.777 166.48C436.477 167.069 436.036 167.583 435.455 168.023C434.874 168.452 434.177 168.787 433.366 169.026C432.564 169.266 431.662 169.386 430.66 169.386C429.187 169.386 427.94 169.126 426.918 168.607C425.896 168.078 425.119 167.404 424.588 166.585C424.067 165.756 423.807 164.898 423.807 164.009H427.309C427.349 164.678 427.534 165.212 427.865 165.611C428.205 166.001 428.626 166.285 429.127 166.465C429.638 166.635 430.164 166.72 430.705 166.72C431.357 166.72 431.903 166.635 432.344 166.465C432.785 166.285 433.12 166.046 433.351 165.746C433.581 165.437 433.696 165.087 433.696 164.698Z" fill="#828D96"/>
<path d="M447.869 152.881V155.517H438.701V152.881H447.869ZM441.346 148.912H444.969V164.608C444.969 165.107 445.039 165.492 445.179 165.761C445.329 166.021 445.535 166.196 445.795 166.285C446.056 166.375 446.361 166.42 446.712 166.42C446.963 166.42 447.203 166.405 447.433 166.375C447.664 166.345 447.849 166.315 447.99 166.285L448.005 169.041C447.704 169.131 447.353 169.211 446.952 169.281C446.562 169.351 446.111 169.386 445.6 169.386C444.768 169.386 444.032 169.241 443.39 168.951C442.749 168.652 442.248 168.168 441.887 167.499C441.527 166.83 441.346 165.941 441.346 164.833V148.912Z" fill="#828D96"/>
<path d="M459.833 165.836V158.108C459.833 157.529 459.728 157.029 459.517 156.61C459.307 156.191 458.986 155.866 458.555 155.637C458.135 155.407 457.604 155.292 456.962 155.292C456.371 155.292 455.86 155.392 455.429 155.592C454.998 155.791 454.663 156.061 454.422 156.4C454.182 156.74 454.062 157.124 454.062 157.554H450.454C450.454 156.915 450.61 156.296 450.92 155.696C451.231 155.097 451.682 154.563 452.273 154.094C452.864 153.625 453.571 153.255 454.392 152.986C455.214 152.716 456.136 152.581 457.158 152.581C458.38 152.581 459.462 152.786 460.404 153.195C461.356 153.605 462.102 154.224 462.643 155.052C463.195 155.871 463.47 156.9 463.47 158.138V165.342C463.47 166.081 463.52 166.745 463.62 167.334C463.731 167.913 463.886 168.417 464.086 168.847V169.086H460.374C460.204 168.697 460.068 168.203 459.968 167.603C459.878 166.994 459.833 166.405 459.833 165.836ZM460.359 159.231L460.389 161.463H457.789C457.118 161.463 456.526 161.528 456.015 161.657C455.504 161.777 455.079 161.957 454.738 162.197C454.397 162.436 454.142 162.726 453.971 163.065C453.801 163.405 453.716 163.789 453.716 164.219C453.716 164.648 453.816 165.042 454.016 165.402C454.217 165.751 454.507 166.026 454.888 166.226C455.279 166.425 455.75 166.525 456.301 166.525C457.042 166.525 457.689 166.375 458.24 166.076C458.801 165.766 459.242 165.392 459.562 164.952C459.883 164.503 460.053 164.079 460.073 163.679L461.246 165.282C461.125 165.691 460.92 166.131 460.629 166.6C460.339 167.069 459.958 167.519 459.487 167.948C459.026 168.367 458.47 168.712 457.819 168.981C457.178 169.251 456.436 169.386 455.595 169.386C454.532 169.386 453.586 169.176 452.754 168.757C451.922 168.327 451.271 167.753 450.8 167.034C450.329 166.305 450.094 165.482 450.094 164.563C450.094 163.704 450.254 162.945 450.575 162.286C450.905 161.617 451.386 161.058 452.017 160.609C452.659 160.16 453.44 159.82 454.362 159.591C455.284 159.351 456.336 159.231 457.518 159.231H460.359Z" fill="#828D96"/>
<path d="M474.712 152.881V155.517H465.544V152.881H474.712ZM468.189 148.912H471.812V164.608C471.812 165.107 471.882 165.492 472.022 165.761C472.172 166.021 472.378 166.196 472.638 166.285C472.899 166.375 473.204 166.42 473.555 166.42C473.805 166.42 474.046 166.405 474.276 166.375C474.507 166.345 474.692 166.315 474.833 166.285L474.848 169.041C474.547 169.131 474.196 169.211 473.795 169.281C473.405 169.351 472.954 169.386 472.443 169.386C471.611 169.386 470.875 169.241 470.233 168.951C469.592 168.652 469.091 168.168 468.73 167.499C468.37 166.83 468.189 165.941 468.189 164.833V148.912Z" fill="#828D96"/>
<path d="M484.677 169.386C483.475 169.386 482.387 169.191 481.416 168.802C480.454 168.402 479.632 167.848 478.951 167.139C478.279 166.43 477.763 165.596 477.403 164.638C477.042 163.679 476.862 162.646 476.862 161.538V160.939C476.862 159.67 477.047 158.522 477.418 157.494C477.788 156.465 478.304 155.587 478.966 154.858C479.627 154.119 480.409 153.555 481.31 153.165C482.212 152.776 483.189 152.581 484.241 152.581C485.403 152.581 486.42 152.776 487.292 153.165C488.164 153.555 488.885 154.104 489.456 154.813C490.038 155.512 490.468 156.345 490.749 157.314C491.04 158.283 491.185 159.351 491.185 160.519V162.062H478.62V159.471H487.608V159.186C487.588 158.537 487.457 157.928 487.217 157.359C486.987 156.79 486.631 156.331 486.15 155.981C485.669 155.632 485.028 155.457 484.226 155.457C483.625 155.457 483.089 155.587 482.618 155.846C482.157 156.096 481.771 156.46 481.461 156.94C481.15 157.419 480.91 157.998 480.739 158.677C480.579 159.346 480.499 160.1 480.499 160.939V161.538C480.499 162.247 480.594 162.906 480.784 163.515C480.985 164.114 481.275 164.638 481.656 165.087C482.037 165.537 482.498 165.891 483.039 166.151C483.58 166.4 484.196 166.525 484.887 166.525C485.759 166.525 486.536 166.35 487.217 166.001C487.898 165.651 488.489 165.157 488.99 164.518L490.899 166.36C490.549 166.87 490.093 167.359 489.532 167.828C488.97 168.287 488.284 168.662 487.472 168.951C486.671 169.241 485.739 169.386 484.677 169.386Z" fill="#828D96"/>
<path fill-rule="evenodd" clip-rule="evenodd" d="M214.439 134.695H205.41V62.1006H214.439V134.695ZM163.959 135.308C157.803 135.308 153.083 134.899 150.108 134.49V66.8039C154.007 65.8837 160.266 65.2702 166.422 65.2702C175.348 65.2702 181.094 66.8039 185.301 70.2802C188.892 72.9386 191.149 77.0284 191.149 82.4473C191.149 89.1955 186.634 95.0235 179.452 97.5796V97.8863C186.019 99.42 193.714 104.839 193.714 115.063C193.714 120.994 191.354 125.595 187.763 128.867C183.043 133.263 175.246 135.308 163.959 135.308ZM166.935 72.1206C162.831 72.1206 160.471 72.4273 159.034 72.7341V95.0235H167.14C176.477 95.0235 182.017 90.0135 182.017 83.3675C182.017 75.3924 175.964 72.1206 166.935 72.1206ZM166.422 101.669H159.034V127.946C160.881 128.253 163.344 128.355 166.524 128.355C175.759 128.355 184.275 124.981 184.275 114.961C184.275 105.657 176.169 101.669 166.422 101.669ZM238.687 134.695V85.2079H229.658V134.695H238.687ZM234.172 65.6792C230.786 65.6792 228.529 68.2353 228.529 71.3026C228.529 74.37 230.684 76.8239 233.967 76.8239C237.558 76.8239 239.713 74.37 239.713 71.3026C239.713 68.133 237.456 65.6792 234.172 65.6792ZM264.273 135.819C258.835 135.819 253.808 134.388 250.319 132.343L252.474 125.595C255.244 127.231 259.964 129.071 264.478 129.071C270.942 129.071 274.02 125.901 274.02 121.709C274.02 117.415 271.455 115.166 264.889 112.712C255.86 109.44 251.653 104.634 251.653 98.7043C251.653 90.7292 258.22 84.1855 268.788 84.1855C273.815 84.1855 278.227 85.5147 280.895 87.2528L278.74 93.7965C276.791 92.5696 273.2 90.8314 268.583 90.8314C263.247 90.8314 260.374 93.8988 260.374 97.5796C260.374 101.669 263.247 103.51 269.711 106.066C278.227 109.236 282.742 113.53 282.742 120.891C282.742 129.685 275.867 135.819 264.273 135.819ZM291 132.343C294.488 134.388 299.516 135.819 304.954 135.819C316.548 135.819 323.422 129.685 323.422 120.891C323.422 113.53 318.907 109.236 310.391 106.066C303.928 103.51 301.055 101.669 301.055 97.5796C301.055 93.8988 303.927 90.8314 309.263 90.8314C313.88 90.8314 317.471 92.5696 319.42 93.7965L321.575 87.2528C318.907 85.5147 314.496 84.1855 309.468 84.1855C298.9 84.1855 292.333 90.7292 292.333 98.7043C292.333 104.634 296.54 109.44 305.569 112.712C312.136 115.166 314.701 117.415 314.701 121.709C314.701 125.901 311.623 129.071 305.159 129.071C300.644 129.071 295.925 127.231 293.154 125.595L291 132.343ZM347.788 134.695L328.91 85.2079H338.554L348.301 112.916C349.943 117.517 351.277 121.607 352.303 125.697H352.611C353.739 121.607 355.176 117.517 356.817 112.916L366.462 85.2079H375.902L356.407 134.695H347.788ZM393.492 134.695V85.2079H384.463V134.695H393.492ZM388.978 65.6792C385.592 65.6792 383.335 68.2353 383.335 71.3026C383.335 74.37 385.489 76.8239 388.773 76.8239C392.364 76.8239 394.518 74.37 394.518 71.3026C394.518 68.133 392.261 65.6792 388.978 65.6792ZM417.54 134.695H408.511V62.1006H417.54V134.695ZM432.759 134.695H441.788V62.1006H432.759V134.695ZM497.227 107.395C497.227 109.236 497.124 110.565 496.919 111.587H462.034C462.239 123.754 469.934 128.764 479.066 128.764C485.53 128.764 489.531 127.64 492.815 126.208L494.456 132.65C491.276 134.081 485.735 135.819 477.835 135.819C462.547 135.819 453.415 125.697 453.415 110.769C453.415 95.8414 462.239 84.1855 476.706 84.1855C493.02 84.1855 497.227 98.2953 497.227 107.395ZM475.988 90.6269C466.754 90.6269 462.855 98.9088 462.137 105.146H488.505C488.608 99.5222 486.146 90.6269 475.988 90.6269ZM500.62 87.5057C500.62 82.5616 504.643 78.5528 509.604 78.5528C514.566 78.5528 518.589 82.5616 518.589 87.5057C518.589 92.4498 514.566 96.4586 509.604 96.4586C504.643 96.4586 500.62 92.4498 500.62 87.5057ZM502.144 87.5057C502.144 91.6105 505.485 94.9398 509.604 94.9398C513.724 94.9398 517.065 91.6105 517.065 87.5057C517.065 83.4009 513.724 80.0716 509.604 80.0716C505.485 80.0716 502.144 83.4009 502.144 87.5057ZM512.931 85.869C512.931 87.2719 512.057 87.9953 511.359 88.2511L512.975 91.5325C512.988 91.5567 512.994 91.5836 512.993 91.6108C512.992 91.6379 512.984 91.6643 512.969 91.6874C512.955 91.7105 512.935 91.7295 512.911 91.7427C512.887 91.7558 512.86 91.7626 512.833 91.7623H511.59C511.528 91.7623 511.471 91.7264 511.445 91.6704L509.949 88.4889H508.171V91.6025C508.171 91.6904 508.098 91.7623 508.01 91.7623H506.917C506.829 91.7623 506.757 91.6904 506.757 91.6025V83.4089C506.757 83.321 506.829 83.2491 506.917 83.2491H510.04C512.019 83.2491 512.931 84.4461 512.931 85.869ZM508.171 87.3658H509.805C510.868 87.3658 511.465 86.8542 511.465 85.917C511.465 84.9137 510.806 84.4081 509.843 84.4081H508.171V87.3658Z" fill="#484848"/>
<path fill-rule="evenodd" clip-rule="evenodd" d="M96.6216 107.542C83.3394 107.996 66.3174 108.576 50.3329 114.387C36.7628 119.327 30.454 127.045 27.4268 133.844V104.588L0 104.129L34.49 72.6976V47.3008C34.49 47.3027 34.372 47.3083 34.3145 47.3083C32.1026 47.3083 30.3064 45.7799 30.3064 43.8936C30.3064 42.0074 32.1016 40.479 34.3135 40.479C34.371 40.479 34.49 40.4846 34.49 40.4864V40.3426H50.6353V40.4864C52.6535 40.564 54.4688 42.0578 54.4688 43.8936C54.4688 45.7294 52.6535 47.2233 50.6353 47.3008V57.9841L78.6739 32.4319C106.764 43.9045 127.15 68.522 130.798 97.8667C130.482 98.2302 125.12 104.124 112.893 106.367C108.742 107.129 103.131 107.32 96.6219 107.542H96.6216ZM73.8442 74.2089H84.4396V65.8006H73.8442V74.2089ZM98.819 86.1206H88.2236V77.7123H98.819V86.1206ZM73.8442 86.1206H84.4396V77.7123H73.8442V86.1206ZM98.819 74.2089H88.2236V65.8006H98.819V74.2089Z" fill="#1F4E9F"/>
<path d="M113.87 115.494C102.946 117.686 80.6343 114.497 59.8987 122.91C39.1671 131.335 37.3276 148.496 38.1904 154.299C38.6798 157.635 41.1732 159.564 43.2135 160.6C44.3235 156.909 45.9048 152.984 48.2489 149.246C58.5364 134.648 77.0076 131.166 80.1146 130.357C81.7695 129.957 84.7644 129.421 88.2932 128.927C91.8694 128.482 95.7231 127.891 99.5273 126.87C107.046 125.039 113.56 122.666 113.547 122.666C113.56 122.666 107.408 125.753 100.05 128.385C96.4496 129.767 92.272 130.835 88.8441 131.547C85.3992 132.329 82.5404 133.037 80.9521 133.429C79.3729 133.823 74.4103 134.94 68.6373 137.812C65.7181 139.285 62.7837 141.105 59.603 143.49C56.6858 145.489 54.2378 148.281 52.4406 151.427C49.2912 156.922 47.8896 163.079 47.2176 168.065C48.8694 170.207 52.2024 172.257 58.7766 172.996C116.23 171.53 129.475 107.165 129.475 107.165C129.475 107.165 124.797 113.302 113.87 115.494Z" fill="#009E45"/>
<path d="M79.7995 0.950654L83.3063 8.09109C83.5599 8.55585 84.0246 8.89386 84.5739 8.97836L92.4327 10.1192C93.827 10.3304 94.3761 12.0205 93.3621 12.9922L87.6583 18.5271C87.278 18.9074 87.109 19.4989 87.1935 20.0059L88.5456 27.8646C88.7568 29.2166 87.3203 30.2729 86.095 29.6392L79.0812 25.9211C78.5742 25.6675 77.9828 25.6675 77.5179 25.9211L70.462 29.6392C69.2367 30.2729 67.8003 29.2166 68.0537 27.8646L69.3635 20.0059C69.4903 19.4989 69.279 18.9074 68.8987 18.5271L63.1949 12.9922C62.223 12.0205 62.7723 10.3304 64.1243 10.1192L71.9831 8.97836C72.5324 8.89386 72.9971 8.55585 73.2507 8.09109L76.7997 0.950654C77.3912 -0.316885 79.1658 -0.316885 79.7995 0.950654Z" fill="#1F4E9F"/>
<path d="M79.1595 6.70027L81.2298 10.8831C81.3988 11.1789 81.6524 11.3901 81.9904 11.4324L86.5957 12.1084C87.4408 12.2351 87.7365 13.207 87.1449 13.7985L83.8071 17.0518C83.5537 17.2631 83.4691 17.6011 83.5114 17.9391L84.3142 22.5445C84.4409 23.3472 83.5958 23.981 82.8776 23.6007L78.737 21.4036C78.4413 21.2346 78.1033 21.2346 77.8074 21.4036L73.6669 23.6007C72.9486 23.981 72.1036 23.3472 72.2303 22.5445L73.0331 17.9391C73.0753 17.6011 72.9909 17.2631 72.7373 17.0518L69.3995 13.7985C68.808 13.207 69.146 12.2351 69.9488 12.1084L74.5964 11.4324C74.8921 11.3901 75.1879 11.1789 75.3147 10.8831L77.385 6.70027C77.7653 5.93975 78.7793 5.93975 79.1595 6.70027Z" fill="#7090C8"/>
<path d="M78.6614 11.3477L79.5909 13.1646C79.6332 13.2913 79.7599 13.3758 79.8867 13.4181L81.9148 13.6716C82.2949 13.7561 82.4218 14.1786 82.1682 14.4321L80.6895 15.8687C80.6049 15.9531 80.5627 16.08 80.5627 16.249L80.9007 18.2347C80.9852 18.615 80.6049 18.8685 80.3092 18.6995L78.4924 17.7277C78.3657 17.6854 78.1967 17.6854 78.0698 17.7277L76.2954 18.6995C75.9573 18.8685 75.5771 18.615 75.6615 18.2347L75.9996 16.249C76.0418 16.08 75.9573 15.9531 75.8728 15.8687L74.394 14.4321C74.1405 14.1786 74.3095 13.7561 74.6475 13.6716L76.6756 13.4181C76.8024 13.3758 76.9291 13.2913 77.0136 13.1646L77.9008 11.3477C78.0698 11.0097 78.5347 11.0097 78.6614 11.3477Z" fill="#8CA6D3"/>
<path fill-rule="evenodd" clip-rule="evenodd" d="M349.919 48.9634C350.016 49.0966 350.072 49.2517 350.188 49.3218C350.832 49.5876 351.364 49.9917 351.238 50.7463C351.119 51.4692 350.964 52.3182 350.497 52.8307C349.778 53.7147 348.961 54.4654 348.614 55.601C348.566 55.7587 348.445 55.9287 348.29 55.9847C347.246 56.5394 346.184 57.0771 345.105 57.5978C344.95 57.6539 344.751 57.6275 344.532 57.6642C344.35 56.2287 344.693 55.782 346.081 55.7579C346.289 55.7527 346.559 55.6625 346.743 55.5118C347.845 54.5036 348.863 53.4348 349.284 51.9426C349.455 51.2706 349.207 50.9533 348.53 51.0222C347.926 51.079 347.315 51.2715 346.688 51.2872C345.687 51.2911 344.691 51.1593 343.689 51.1634C342.823 51.1746 341.95 51.3215 341.064 51.3957C340.147 51.4601 339.189 51.5466 338.25 51.5699C337.289 51.5521 336.315 51.4615 335.332 51.4024C333.942 51.3223 332.834 51.6733 331.914 52.8753C331.468 53.4289 330.623 53.8256 329.898 54.0524C328.53 54.462 327.074 54.7068 325.603 54.3261C325.414 54.2682 325.075 54.4749 324.881 54.657C323.48 55.8501 322.155 57.1353 320.711 58.2459C320.026 58.7951 319.114 59.0683 318.268 59.4649C317.871 57.8261 318.336 57.2093 319.756 57.1948C320.164 57.216 320.627 56.9437 320.985 56.6739C322.243 55.6096 323.012 54.2235 323.367 52.6078C323.523 51.7586 323.847 51.3749 324.826 51.6741C325.867 51.9926 326.49 51.424 326.769 50.0606C326.143 50.0761 325.529 50.1644 324.932 50.0853C321.461 49.622 318.011 49.1305 314.58 48.6105C313.825 48.4832 312.644 49.6395 312.902 50.374C312.98 50.5703 313.289 50.8026 313.551 50.8483C314.403 51.1088 315.284 51.2747 316.146 51.5038C317.724 51.9863 318.196 53.7172 317.068 54.9244C316.203 55.8328 315.477 56.8526 314.686 57.7488C313.875 58.708 312.38 59.0791 311.173 59.6413C311.049 59.7069 310.561 59.3852 310.571 59.3536C310.674 58.9024 310.841 58.4704 311.071 58.0577C311.181 57.9193 311.534 57.7854 311.723 57.8433C312.534 58.1257 313.064 57.6325 313.49 57.1419C314.251 56.2361 315.011 55.3303 315.538 54.2841C315.917 53.6069 315.543 53.2509 314.698 53.3032C312.927 53.4516 311.175 53.5368 309.442 53.1104C309.022 53.0165 308.535 53.1434 308.118 53.1538C306.176 53.1812 304.279 53.291 302.354 53.1509C300.765 53.0444 299.33 52.8818 298.241 54.4114C297.869 54.9529 296.989 55.2356 296.314 55.409C294.829 55.7484 293.331 55.911 291.828 55.5205C291.566 55.4748 291.227 55.6815 290.991 55.8856C289.763 56.8553 288.664 57.9678 287.35 58.877C286.469 59.5041 285.369 59.8236 284.327 60.2982C283.849 58.7031 284.386 58.0741 285.837 58.0693C286.358 58.0564 286.987 57.6964 287.437 57.3513C288.592 56.394 289.301 55.0929 289.672 53.654C289.891 52.8243 290.205 52.4721 291.174 52.8028C292.396 53.2107 293.261 52.3022 293.211 50.7695C291.28 50.7654 289.348 50.7612 287.404 50.6843C285.461 50.6074 283.555 50.4043 281.51 50.4344C281.765 50.6158 281.992 50.8919 282.307 50.9885C283.203 51.3314 284.086 51.6016 284.983 51.9445C286.468 52.5023 286.587 54.2629 285.475 55.3027C284.557 56.1603 283.509 56.8751 282.881 58.0281C282.651 58.4407 281.958 58.6771 281.452 58.867C280.539 59.1402 279.634 59.2774 278.71 59.4779C278.648 58.2168 279.023 57.7796 280.129 57.773C280.297 57.7897 280.496 57.8161 280.619 57.7504C281.948 57.0182 283.191 56.2256 283.918 54.8614C284.129 54.5118 284.227 53.852 284.054 53.6268C283.819 53.3822 283.234 53.3758 282.762 53.3353C281.613 53.2596 280.443 53.2469 279.261 53.1616C278.089 53.0446 276.936 52.8646 275.763 52.7476C274.089 52.5806 272.385 52.5081 270.739 52.2464C269.103 51.9532 267.694 51.9361 266.444 53.3132C266.028 53.7723 265.176 53.9604 264.509 53.9979C263.121 54.0218 261.728 53.8374 260.296 53.779C260.025 53.7649 259.702 53.8043 259.518 53.955C258.502 54.6793 257.54 55.4545 256.557 56.1886C255.306 57.117 253.844 57.4977 252.357 57.7329C252.093 56.3412 252.753 55.6466 253.951 55.909C254.234 55.9958 254.576 55.8935 254.824 55.7621C256.595 54.8206 257.738 53.3418 258.38 51.4685C258.595 50.8788 258.893 50.694 259.537 50.9597C260.719 51.4937 261.667 50.9903 262.021 49.7188C262.105 49.3306 262.157 48.9328 262.281 48.4184C262.037 48.3097 261.804 48.1695 261.54 48.0195C261.327 47.8856 261.101 47.7591 260.861 47.6398C260.866 47.5493 260.867 47.4692 260.866 47.3997C261.425 47.2258 261.984 47.0519 262.544 46.878C262.542 46.8085 262.53 46.7357 262.508 46.6598C262.122 46.6798 261.704 46.6901 261.297 46.669C259.416 46.6114 257.503 46.5441 255.601 46.4453C255.067 46.3856 254.842 46.5581 254.656 47.0532C253.403 49.9122 251.334 51.9358 248.594 53.4438C244.61 55.6403 240.337 56.7483 235.838 56.787C233.561 56.7811 231.241 56.244 229.015 55.7358C224.155 54.6984 219.575 52.7461 214.966 50.8885C212.508 49.8958 210.079 48.8083 207.567 47.7646C208.66 46.7879 209.73 46.563 211.042 47.2401C212.205 47.8371 213.508 48.2013 214.765 48.7231C215.461 49.0397 215.917 48.9031 216.202 48.1969C216.381 47.8377 216.582 47.5197 216.802 47.1385C216.323 46.7852 215.823 46.3907 215.303 46.0593C214.272 45.365 213.642 44.3789 213.269 43.2298C212.88 41.9039 212.637 40.5534 212.695 39.1224C212.853 36.6872 212.916 34.223 212.802 31.7736C212.679 29.8045 211.446 28.5308 209.531 27.9106C210.258 26.5465 211.514 25.8266 212.85 25.4072C214.392 24.8785 215.406 26.1889 216.706 26.7932C216.441 26.1945 216.248 25.5837 215.953 25.0797C215.614 24.4933 215.847 24.1849 216.309 23.9126C217.124 23.5063 217.971 23.5582 218.804 23.8818C220.164 24.401 220.164 24.401 220.011 25.8031C220.538 25.5501 221.086 25.3382 221.643 25.0947C221.596 24.4594 221.526 23.7829 221.394 23.087C221.308 22.5779 221.468 22.2818 221.977 22.196C222.3 22.1567 222.61 22.0446 222.923 22.0369C224.008 21.989 224.382 21.1032 224.927 20.3384C223.566 20.6121 222.205 20.886 220.73 21.194C220.732 21.2983 220.813 21.5988 220.733 21.7469C220.451 22.1088 220.1 22.6914 219.746 22.7211C219.287 22.7533 218.653 22.456 218.393 22.066C218.166 21.7899 218.316 21.0766 218.526 20.727C218.838 20.2706 219.452 20.1823 219.963 20.5452C220.409 20.8889 220.741 20.818 221.163 20.5676C222.038 20.0762 222.988 19.677 223.842 19.1444C224.809 18.5778 225.818 18.4379 226.92 18.6714C228.411 18.9891 229.921 19.2438 231.44 19.4669C232.028 19.5775 232.213 19.8755 232.216 20.4284C232.267 21.6167 232.349 22.8147 232.441 23.9811C232.444 24.0853 232.51 24.209 232.586 24.301C233.608 25.3956 234.631 26.4902 235.654 27.5847C235.778 27.5538 235.903 27.5228 236.027 27.492C236.019 27.1791 236.053 26.8444 236.023 26.4903C235.947 25.9496 235.839 25.3993 235.731 24.8489C235.66 24.5167 235.662 24.1724 235.59 23.8402C235.52 23.5081 235.281 23.1592 235.283 22.8148C235.248 22.2522 235.317 21.687 235.355 21.1122C235.84 21.3297 236.345 21.4841 236.729 21.8084C237.145 22.1424 237.417 22.1565 237.902 21.9254C238.779 21.5384 239.676 21.0882 240.724 21.6152C241.878 22.244 242.079 23.1677 241.162 24.1295C241.01 24.2898 240.848 24.4817 240.654 24.6639C241.523 25.5502 241.827 26.4713 241.179 27.6873C240.851 28.3112 240.945 29.1332 240.795 29.8464C240.283 32.3113 239.937 32.6539 237.45 32.9975C237.086 33.0586 236.682 33.1418 236.381 33.2223C236.223 35.6575 234.552 37.2852 233.275 39.2056C235.396 40.5094 237.644 41.5074 240.15 41.8938C240.747 41.9729 241.394 41.9985 242.004 42.1504C243.337 42.4198 243.49 42.7082 243.11 44.1784C246.414 44.6598 249.694 45.1452 252.95 45.6347C253.725 43.6642 252.734 40.8088 251.06 39.8487C250.171 39.3699 249.955 39.511 249.338 40.288C248.822 40.9582 248.108 41.6021 247.354 41.9234C246.166 42.4225 245.014 41.4494 244.982 40.1981C244.897 37.6541 246.852 35.6646 249.37 35.7794C251.691 35.8678 253.328 37.0584 254.466 39.0962C255.625 41.1752 255.699 43.3021 255.083 45.7696C257.934 45.8134 260.65 45.8503 263.365 45.8871C263.532 45.9038 263.697 45.8163 263.862 45.7287C265.866 44.4789 267.914 44.5532 270.066 45.418C272.628 46.4081 275.178 46.5326 277.702 45.1655C279.052 44.4745 279.712 43.3312 279.739 41.8906C279.766 40.8986 279.615 39.9215 279.601 38.9514C279.609 38.0225 279.69 37.0814 279.762 36.1718C278.16 36.4411 277.166 35.5163 276.51 33.936C277.146 33.889 277.741 33.8637 278.376 33.8166C278.333 32.9412 278.118 32.2891 277.261 31.82C276.224 31.2614 275.276 30.5233 274.328 29.7851C272.548 28.3788 271.86 26.3403 271.327 24.2458C271.417 24.1809 271.505 24.1161 271.594 24.0513C271.864 24.4098 272.175 24.7464 272.436 25.1365C272.696 25.5265 272.865 25.9919 273.217 26.3066C273.399 26.5003 273.817 26.49 274.101 26.5768C274.146 26.3148 274.274 26.009 274.206 25.7811C274.02 25.0344 273.626 24.293 274.808 23.5853C274.946 24.4898 275.122 25.268 275.226 26.0584C275.327 26.7446 275.354 27.4431 275.518 28.1486C275.567 28.4395 275.867 28.7034 276.171 29.1758C276.303 28.6299 276.39 28.346 276.464 27.9893C277.334 28.0825 277.65 28.6277 277.877 29.3525C278.026 29.8809 278.33 30.3534 278.562 30.8381C278.937 30.4009 279.344 29.9734 279.634 29.4758C279.895 29.0728 279.986 28.5487 280.27 28.187C280.442 27.9636 280.847 27.8804 281.179 27.8096C281.252 27.7974 281.5 28.1146 281.48 28.1777C281.362 28.4519 281.193 28.7797 280.967 28.9522C280.149 29.5987 279.756 30.9962 280.194 31.8201C280.655 32.6852 281.612 32.9431 282.742 32.6333C283.716 32.3795 284.295 31.7286 284.786 30.9129C285.037 30.5415 285.554 30.3199 285.954 30.0282C285.945 30.5085 286.085 31.0684 285.917 31.5004C285.691 32.0174 285.306 32.4861 284.877 32.8724C284.398 33.3122 283.821 33.6187 283.092 34.0855C284.592 34.3717 285.924 34.6411 287.225 34.901C287.424 36.1691 286.572 37.1503 285.361 37.1594C284.985 37.148 284.65 37.1146 284.286 37.1758C283.287 37.2841 282.812 37.9324 283.077 38.8754C283.226 39.4039 283.457 39.8885 283.648 40.3951C284.555 42.8456 284.899 45.3309 283.446 47.7149C283.025 48.414 282.371 48.9729 281.732 49.7089C285.533 50.1465 289.287 50.3976 293.083 49.8336C292.692 49.6451 292.301 49.4565 291.73 49.1785C292.091 49.013 292.276 48.8623 292.411 48.8694C293.145 48.9555 293.605 48.5788 294 48.0786C295.635 45.8884 297.926 45.6228 300.322 46.2519C302.266 46.7774 304.187 47.1576 306.187 46.5965C307.514 46.2088 308.794 45.6344 309.597 44.3623C310.48 42.942 310.191 41.4049 310.078 39.8528C309.987 38.6864 309.832 37.5008 309.677 36.3151C308.134 36.8438 307.188 35.7613 306.265 34.3755C306.974 34.3162 307.61 34.269 308.286 34.2001C308.149 33.2956 307.82 32.6778 306.953 32.2401C305.503 31.4519 304.154 30.5567 302.866 29.5765C301.449 28.4535 300.958 26.7857 300.572 25.1153C300.633 25.0651 300.694 25.0148 300.756 24.9646C301.186 25.4757 301.617 25.9867 302.016 26.4881C302.166 26.6722 302.196 27.0262 302.344 27.106C302.65 27.2341 303.026 27.2456 303.352 27.3106C303.375 27.0073 303.513 26.67 303.403 26.464C302.978 25.7129 302.658 25.0635 303.519 24.3951C304.167 24.8694 304.331 25.5749 304.454 26.3023C304.577 27.0297 304.659 27.779 304.822 28.4845C304.915 28.8577 305.226 29.1943 305.423 29.5651C305.506 29.5214 305.595 29.4912 305.693 29.4749C305.726 29.1402 305.76 28.8054 305.771 28.4296C306.564 28.4306 307.002 28.8059 307.289 29.4457C307.38 29.7147 307.388 30.0276 307.509 30.3063C307.663 30.5947 307.857 30.8612 308.052 31.1276C308.338 30.8701 308.687 30.6318 308.856 30.3042C309.074 29.8188 309.152 29.222 309.348 28.6954C309.425 28.4431 309.626 28.125 309.854 28.0568C310.155 27.9762 310.492 28.114 310.827 28.1473C310.772 28.4409 310.783 28.858 310.608 28.9771C309.755 29.5096 309.703 30.3562 309.692 31.1807C309.682 32.0054 310.144 32.526 310.911 32.7261C312.016 33.0638 313.451 32.4334 314.041 31.4065C314.271 30.9938 314.438 30.5619 314.73 30.1686C314.892 29.9767 315.225 29.9058 315.513 29.7525C315.595 30.0532 315.864 30.4117 315.765 30.6228C315.337 31.4578 314.805 32.2953 314.261 33.0602C314.019 33.4002 313.576 33.6095 313.001 34.0202C314.101 34.1494 314.979 34.211 315.838 34.3357C316.394 34.4368 317.308 34.2679 317.254 35.0101C317.207 35.6165 316.65 36.3086 316.107 36.7291C315.698 37.0523 315.009 37.0485 314.404 37.1053C313.301 37.2162 312.938 37.7262 313.36 38.7174C313.781 39.7086 314.266 40.7192 314.605 41.7543C315.328 43.9067 315.612 46.0284 314.142 48.2353C318.374 49.1841 322.471 49.7813 326.727 49.6338C326.784 49.4445 326.823 49.3184 326.862 49.1921C326.91 49.0345 326.918 48.8986 326.944 48.6997C326.416 48.5041 325.899 48.277 325.246 48.0427C325.481 47.8386 325.593 47.7003 325.655 47.7196C326.724 47.8391 327.236 47.0646 327.761 46.3629C328.732 45.1074 330.012 44.533 331.549 44.5887C332.876 44.6496 334.198 44.9507 335.507 45.0746C337.82 45.2989 340.059 45.0868 341.907 43.4443C343.225 42.295 343.511 40.7957 343.323 39.1517C343.264 38.4436 342.932 37.7214 342.841 37.0037C342.694 36.1308 342.683 35.265 342.608 34.3799C341.048 34.6274 339.969 34.0907 339.221 32.5858C339.813 32.4564 340.364 32.3487 340.988 32.2289C340.799 31.3779 340.511 30.7381 339.583 30.3855C338.265 29.8443 336.994 29.1455 335.836 28.3083C334.219 27.1589 333.362 25.448 332.873 23.4358C333.892 23.713 334.194 24.53 334.64 25.2179C335.064 25.8649 335.515 25.9684 336.052 25.3394C335.937 24.4761 334.758 23.702 336.038 22.6789C336.235 23.0496 336.505 23.4081 336.599 23.7815C336.85 24.6517 336.956 25.5465 337.217 26.3852C337.376 26.8821 337.69 27.323 337.931 27.7762C338.028 27.7599 338.128 27.733 338.232 27.6956C338.296 27.3706 338.33 27.0359 338.405 26.6792C339.132 26.5567 339.487 26.9758 339.763 27.5428C339.916 27.8312 339.927 28.2483 340.112 28.5463C340.307 28.8128 340.615 29.0451 340.891 29.2677C341.114 28.9909 341.423 28.7746 341.56 28.4372C341.746 27.9422 341.805 27.4085 341.928 26.8942C342.055 26.1397 342.541 25.9085 343.545 26.0088C343.274 26.4433 343.158 26.8219 342.904 27.0891C342.02 28.0606 341.996 29.6055 342.904 30.3656C343.82 31.0941 345.607 30.7784 346.311 29.7174C346.633 29.2294 346.817 28.6301 347.138 28.1421C347.31 27.9187 347.63 27.7751 347.887 27.6122C348.031 27.932 348.31 28.259 348.287 28.5622C348.167 29.6295 347.551 30.4066 346.731 31.053C346.464 31.2475 346.198 31.4419 345.706 31.809C347.046 31.9426 348.167 32.113 349.276 32.2107C349.977 32.2871 350.238 32.6772 349.963 33.3518C349.659 34.1211 349.044 34.5539 348.243 34.6885C345.822 35.1556 345.692 35.3571 346.793 37.6254C347.353 38.728 347.863 39.8841 348.185 41.0865C348.774 43.3362 348.41 45.4322 346.7 47.1859C346.496 47.3997 346.415 47.8921 346.454 48.2147C346.479 48.3601 346.962 48.4734 347.224 48.5191C348.137 48.6946 349.028 48.829 349.941 49.0046L349.919 48.9634ZM230.405 52.0908C230.127 53.903 230.149 53.9442 231.827 54.2155C235.737 54.8591 239.612 54.4915 243.429 53.5201C246.198 52.8147 248.457 51.2977 250.54 49.4512C251.49 48.6032 252.3 47.6439 252.769 46.3384C250.16 45.9546 247.646 45.5997 245.14 45.2133C244.385 45.086 243.465 44.5975 242.907 44.8409C242.298 45.1378 241.978 46.0744 241.63 46.7613C239.993 49.7447 237.63 51.713 234.31 52.5259C233.936 52.6187 233.56 52.6072 233.163 52.5544C232.231 52.4419 231.327 52.2349 230.405 52.0908ZM228.81 51.7757C225.238 50.4766 221.771 49.175 218.24 47.8541C217.911 48.4779 217.643 49.0168 217.355 49.6187C221.136 50.9126 224.821 52.1775 228.561 53.4932C228.638 52.9417 228.72 52.3692 228.81 51.7757Z" fill="#A1ACBC"/>
<path d="M410.118 52.2239C409.996 50.7035 410.078 50.6597 411.405 50.2719C411.861 50.1353 412.289 49.749 412.573 49.3873C413.238 48.4524 413.966 47.5369 414.421 46.503C414.834 45.491 414.386 45.1474 413.327 45.3407C412.184 45.5778 411.005 46.0454 409.947 45.8943C408.165 45.6255 406.633 46.1227 404.982 46.4455C403.652 46.729 402.217 46.5664 400.808 46.5492C399.335 46.5128 398.166 46.9488 397.195 48.2042C395.91 49.8119 394.009 50.1618 392.042 50.0436C391.091 49.9943 390.471 50.2184 389.802 51.0489C388.276 52.9964 386.436 54.6074 384.014 55.4189C383.553 54.1052 383.945 53.5006 385.296 53.2583C385.619 53.219 385.999 52.9905 386.275 52.7644C387.603 51.5836 388.243 50.0547 388.586 48.3661C388.798 47.2235 388.921 47.1578 390.067 47.4737C390.857 47.7149 391.506 47.3962 391.808 46.5226C391.943 46.081 391.952 45.6008 392.071 44.9821C388.201 45.9026 384.418 46.195 380.613 45.9973C382.498 45.8148 384.374 45.6639 386.268 45.4499C388.163 45.2358 390.045 44.949 391.918 44.6937C391.923 44.6032 391.931 44.5021 391.942 44.3906C391.446 44.2046 390.951 44.0187 390.361 43.8037C390.523 43.6119 390.654 43.4103 390.758 43.4078C391.685 43.3117 392.096 42.6441 392.602 42.0054C394.006 40.1236 396.516 39.4768 398.837 40.0139C401.609 40.6546 404.26 40.2234 406.508 38.2893C407.877 37.0866 408.297 34.6971 407.522 32.9424C406.947 31.6628 406.77 30.4359 406.973 28.9804C405.351 29.6572 404.236 28.9024 403.155 27.4683C403.83 27.295 404.317 27.1681 404.919 27.0071C404.898 26.1729 404.454 25.5891 403.455 25.2488C401.201 24.4908 399.018 23.6164 397.66 21.5111C397.158 20.6678 396.739 19.7809 396.288 18.8843C396.426 18.8113 396.556 18.7246 396.678 18.6241C397.065 19.0528 397.483 19.4911 397.87 19.9197C398.043 20.145 398.145 20.4868 398.378 20.627C398.675 20.7867 399.117 20.9218 399.364 20.7905C399.88 20.5689 399.629 20.1473 399.372 19.8615C398.907 19.2365 398.547 18.609 399.506 17.7295C399.794 18.3693 400.12 18.8829 400.323 19.4622C400.581 20.1967 400.653 20.9776 400.953 21.69C401.131 22.1239 401.546 22.4579 401.848 22.8261C401.93 22.7822 402.006 22.7247 402.073 22.6535C402.073 22.3543 402.075 22.0447 402.081 21.7246C402.892 21.5584 403.23 22.1448 403.587 22.668C403.719 22.9152 403.727 23.228 403.909 23.4218C404.135 23.6979 404.432 23.8574 404.699 24.1117C404.89 23.8252 405.167 23.5992 405.263 23.2837C405.417 22.7791 405.414 22.2261 405.568 21.7214C405.665 21.4059 405.821 21.0055 406.079 20.8427C406.294 20.7016 406.714 20.7955 407.058 20.7974C407.004 21.0909 407.002 21.4353 406.893 21.6781C406.707 22.1731 406.341 22.5787 406.197 23.0519C405.903 23.7896 406.076 24.4636 406.715 24.9695C407.323 25.4656 408.548 25.6334 409.11 25.1499C409.653 24.7294 410.025 24.188 410.43 23.6562C410.601 23.4328 410.594 23.1199 410.756 22.928C410.998 22.5882 411.356 22.3183 411.652 22.0293C411.767 22.4439 412.083 22.989 411.956 23.2948C411.46 24.3506 410.794 25.2854 410.103 26.4191C410.887 26.4518 411.775 26.4819 412.685 26.5531C413.093 26.5743 413.525 26.741 413.945 26.8349C413.781 27.3711 413.787 28.0284 413.463 28.4121C413.097 28.8177 412.401 28.9498 411.884 29.1713C411.523 29.3368 411.172 29.4708 410.842 29.646C410.338 29.9402 410.254 30.3284 410.561 30.9051C411.32 32.4827 412.05 34.0507 412.727 35.6721C413.486 37.5941 413.166 39.4281 411.988 41.1374C411.807 41.3924 411.603 41.6062 411.454 41.8707C411.033 42.5699 411.233 43.0449 412.06 43.16C412.942 43.3259 413.83 43.356 414.701 43.5535C416.454 43.9168 416.986 45.5628 415.895 46.9882C415.357 47.6172 414.715 48.2488 414.453 48.9962C414.084 50.0906 413.4 50.7441 412.452 51.2476C411.72 51.6102 410.944 51.8903 410.118 52.2239Z" fill="#A1ACBC"/>
<path d="M349.941 49.0024C351.368 48.8522 352.794 48.702 354.221 48.5517C355.699 48.3828 357.17 48.2002 358.634 48.0037C359.684 47.842 359.662 47.8008 359.841 46.6485C359.324 46.4213 358.785 46.153 358.12 45.846C358.427 45.6297 358.558 45.4283 358.725 45.4449C359.636 45.5162 360.1 44.8994 360.596 44.2923C362.403 42.2232 364.702 41.926 367.145 42.7418C369.651 43.5769 371.996 43.0177 374.205 42.0027C375.681 41.3505 376.482 39.974 376.367 38.3177C376.278 37.2556 375.97 36.2302 375.849 35.1584C375.753 34.2322 375.792 33.3129 375.778 32.3429C374.172 32.8523 373.096 31.9713 372.246 30.5732C372.829 30.4753 373.387 30.3814 373.92 30.2916C374.162 29.1586 373.578 28.7037 372.69 28.3292C370.77 27.5003 368.836 26.5989 367.569 24.7626C366.875 23.7572 366.296 22.7177 366.293 21.3716C366.742 21.8196 367.161 22.2579 367.569 22.7277C367.742 22.953 367.823 23.2536 368.024 23.3843C368.289 23.5342 368.634 23.5361 368.949 23.6326C368.982 23.2979 369.129 22.929 369.03 22.6914C368.626 21.9815 368.265 21.3539 369.319 20.5034C369.556 21.1966 369.822 21.7953 369.983 22.3964C370.169 23.1431 370.2 23.9459 370.426 24.6707C370.583 25.0633 370.958 25.4191 371.259 25.7874C371.342 25.7435 371.413 25.6966 371.475 25.6463C371.498 25.3432 371.49 25.0302 371.492 24.6859C372.481 24.6091 372.77 25.249 373.028 25.9834C373.218 26.49 373.186 27.2734 373.926 27.2236C374.697 27.1835 374.658 26.4124 374.79 25.8665C374.912 25.3522 374.95 24.7773 375.264 24.4252C375.478 24.1798 376.031 24.1765 376.446 24.0619C376.403 24.4282 376.457 24.9277 376.232 25.1003C375.517 25.7441 375.371 26.5616 375.474 27.3521C375.538 27.8201 376 28.3408 376.435 28.6117C377.419 29.1194 378.786 28.7097 379.389 27.7557C379.711 27.2677 379.925 26.678 380.248 26.19C380.429 25.9351 380.771 25.8326 381.059 25.6793C381.172 25.9896 381.419 26.307 381.365 26.6005C381.267 27.709 380.609 28.5079 379.758 29.1448C379.524 29.3489 379.276 29.4802 379.015 29.8832C380.32 30.0525 381.613 30.229 382.891 30.413C383.221 31.4795 382.761 32.3049 381.612 32.6778C381.042 32.8484 380.472 33.0191 379.902 33.1899C379.24 33.4359 379.01 33.8486 379.341 34.5708C379.849 35.6225 380.304 36.7276 380.729 37.8232C381.497 39.7137 381.598 41.6416 380.748 43.5202C380.431 44.2167 379.862 44.8361 379.368 45.5475C379.517 45.6272 379.687 45.7483 379.92 45.8885C379.629 45.9375 379.452 45.9524 379.265 45.9987C379.225 46.0554 379.181 46.1226 379.135 46.2002C379.421 46.3914 379.679 46.6772 380.004 46.7421C380.983 47.0412 382.041 47.1923 383 47.5545C384.076 47.9869 384.393 48.9808 383.879 50.0996C383.69 50.4904 383.385 50.8111 383.102 51.1729C382.557 51.9377 381.949 52.6832 381.427 53.4893C380.936 54.305 378.365 55.8298 377.483 55.6639C377.347 55.6568 377.187 55.5042 377.131 55.3492C376.924 54.5612 377.715 53.665 378.562 53.7171C378.73 53.7338 378.919 53.7917 379.074 53.7357C380.207 53.5301 382.282 50.922 382.17 49.8187C382.152 49.5374 381.747 49.1718 381.484 49.1262C381.064 49.0323 380.631 49.21 380.172 49.2423C379.589 49.3402 378.978 49.5328 378.422 49.4318C376.584 49.0079 374.807 49.2922 372.975 49.5255C371.612 49.695 370.146 49.5228 368.743 49.3699C367.204 49.2098 365.979 49.4907 364.892 50.676C363.459 52.2038 361.44 52.4835 359.554 52.2173C358.108 51.982 357.327 52.5023 356.579 53.4809C355.395 54.9816 353.791 55.9398 352.045 56.6823C351.701 56.83 351.357 56.9777 351.013 57.1253C350.587 55.5811 351.176 54.8987 352.523 54.8965C352.867 54.8984 353.26 54.7425 353.536 54.5166C354.856 53.4716 355.657 52.0951 356.096 50.4355C356.469 49.101 356.5 49.1107 357.816 49.5475C358.574 49.7792 358.974 49.4874 359.355 48.4658C356.531 48.6716 353.698 48.9091 350.842 49.1053C350.551 49.1542 350.244 49.0262 349.919 48.9613L349.941 49.0024Z" fill="#A1ACBC"/>
</g>
<defs>
<clipPath id="clip0_548_190">
<rect width="518.919" height="176" fill="white"/>
</clipPath>
</defs>
</svg>
