<svg width="164" height="74" viewBox="0 0 164 74" fill="none" xmlns="http://www.w3.org/2000/svg">
<path d="M49.9245 59.9318V67.212H48.6698V59.9318H49.9245ZM52.8938 63.1169V64.1119H49.6046V63.1169H52.8938ZM53.3087 59.9318V60.9318H49.6046V59.9318H53.3087Z" fill="#929CA5"/>
<path d="M57.3327 65.937V61.8018H58.5424V67.212H57.4027L57.3327 65.937ZM57.5027 64.8119L57.9076 64.8019C57.9076 65.1653 57.8676 65.5003 57.7876 65.807C57.7076 66.1103 57.5843 66.3753 57.4177 66.602C57.2511 66.8253 57.0378 67.0003 56.7779 67.127C56.5179 67.2504 56.2063 67.312 55.8431 67.312C55.5798 67.312 55.3382 67.2737 55.1183 67.197C54.8983 67.1204 54.7084 67.002 54.5484 66.842C54.3918 66.682 54.2701 66.4737 54.1835 66.217C54.0968 65.9603 54.0535 65.6536 54.0535 65.297V61.8018H55.2582V65.307C55.2582 65.5036 55.2815 65.6686 55.3282 65.802C55.3749 65.932 55.4382 66.037 55.5182 66.117C55.5981 66.197 55.6914 66.2537 55.7981 66.287C55.9047 66.3203 56.018 66.337 56.138 66.337C56.4813 66.337 56.7512 66.2703 56.9478 66.137C57.1478 66.0003 57.2894 65.817 57.3727 65.587C57.4594 65.357 57.5027 65.0986 57.5027 64.8119Z" fill="#929CA5"/>
<path d="M62.2565 61.8018V62.6819H59.2073V61.8018H62.2565ZM60.0871 60.4768H61.2918V65.717C61.2918 65.8836 61.3151 66.012 61.3618 66.102C61.4117 66.1887 61.4801 66.247 61.5667 66.277C61.6533 66.307 61.755 66.322 61.8716 66.322C61.9549 66.322 62.0349 66.317 62.1116 66.307C62.1882 66.297 62.2499 66.287 62.2965 66.277L62.3015 67.197C62.2016 67.227 62.0849 67.2537 61.9516 67.277C61.8216 67.3004 61.6717 67.312 61.5017 67.312C61.2251 67.312 60.9802 67.2637 60.7669 67.167C60.5536 67.067 60.387 66.9053 60.267 66.682C60.147 66.4587 60.0871 66.162 60.0871 65.792V60.4768Z" fill="#929CA5"/>
<path d="M66.4405 65.937V61.8018H67.6502V67.212H66.5105L66.4405 65.937ZM66.6105 64.8119L67.0154 64.8019C67.0154 65.1653 66.9754 65.5003 66.8954 65.807C66.8154 66.1103 66.6921 66.3753 66.5255 66.602C66.3589 66.8253 66.1456 67.0003 65.8857 67.127C65.6257 67.2504 65.3141 67.312 64.9509 67.312C64.6876 67.312 64.446 67.2737 64.2261 67.197C64.0061 67.1204 63.8162 67.002 63.6562 66.842C63.4996 66.682 63.3779 66.4737 63.2913 66.217C63.2046 65.9603 63.1613 65.6536 63.1613 65.297V61.8018H64.366V65.307C64.366 65.5036 64.3894 65.6686 64.436 65.802C64.4827 65.932 64.546 66.037 64.626 66.117C64.706 66.197 64.7993 66.2537 64.9059 66.287C65.0125 66.3203 65.1258 66.337 65.2458 66.337C65.5891 66.337 65.859 66.2703 66.0556 66.137C66.2556 66.0003 66.3972 65.817 66.4805 65.587C66.5672 65.357 66.6105 65.0986 66.6105 64.8119Z" fill="#929CA5"/>
<path d="M70.0947 62.8319V67.212H68.8899V61.8018H70.0397L70.0947 62.8319ZM71.7493 61.7668L71.7393 62.8869C71.6659 62.8735 71.586 62.8635 71.4993 62.8569C71.416 62.8502 71.3327 62.8469 71.2494 62.8469C71.0428 62.8469 70.8611 62.8769 70.7045 62.9369C70.5479 62.9935 70.4162 63.0769 70.3096 63.1869C70.2063 63.2935 70.1263 63.4235 70.0697 63.5769C70.013 63.7302 69.9797 63.9019 69.9697 64.0919L69.6948 64.1119C69.6948 63.7719 69.7281 63.4569 69.7947 63.1669C69.8614 62.8769 69.9614 62.6219 70.0947 62.4018C70.2313 62.1818 70.4012 62.0102 70.6045 61.8868C70.8112 61.7635 71.0494 61.7018 71.3194 61.7018C71.3927 61.7018 71.471 61.7085 71.5543 61.7218C71.641 61.7352 71.7059 61.7502 71.7493 61.7668Z" fill="#929CA5"/>
<path d="M74.7885 67.312C74.3886 67.312 74.027 67.247 73.7038 67.117C73.3839 66.9837 73.1106 66.7987 72.884 66.562C72.6607 66.3253 72.4891 66.047 72.3691 65.727C72.2491 65.407 72.1892 65.0619 72.1892 64.6919V64.4919C72.1892 64.0686 72.2508 63.6852 72.3741 63.3419C72.4974 62.9985 72.669 62.7052 72.889 62.4618C73.1089 62.2152 73.3689 62.0268 73.6688 61.8968C73.9687 61.7668 74.2936 61.7018 74.6436 61.7018C75.0301 61.7018 75.3684 61.7668 75.6583 61.8968C75.9483 62.0268 76.1882 62.2102 76.3781 62.4468C76.5714 62.6802 76.7147 62.9585 76.808 63.2819C76.9047 63.6052 76.953 63.9619 76.953 64.3519V64.8669H72.774V64.0019H75.7633V63.9069C75.7566 63.6902 75.7133 63.4869 75.6333 63.2969C75.5567 63.1069 75.4384 62.9535 75.2784 62.8369C75.1185 62.7202 74.9052 62.6619 74.6386 62.6619C74.4386 62.6619 74.2603 62.7052 74.1037 62.7919C73.9504 62.8752 73.8221 62.9969 73.7188 63.1569C73.6155 63.3169 73.5355 63.5102 73.4788 63.7369C73.4255 63.9602 73.3989 64.2119 73.3989 64.4919V64.6919C73.3989 64.9286 73.4305 65.1486 73.4938 65.352C73.5605 65.552 73.6571 65.727 73.7838 65.877C73.9104 66.027 74.0637 66.1453 74.2437 66.232C74.4236 66.3153 74.6286 66.357 74.8585 66.357C75.1484 66.357 75.4067 66.2987 75.6333 66.182C75.8599 66.0653 76.0566 65.9003 76.2232 65.687L76.858 66.302C76.7414 66.472 76.5898 66.6353 76.4031 66.792C76.2165 66.9453 75.9882 67.0704 75.7183 67.167C75.4517 67.2637 75.1418 67.312 74.7885 67.312Z" fill="#929CA5"/>
<path d="M80.5621 59.9318H83.1365C83.6897 59.9318 84.1613 60.0151 84.5512 60.1818C84.9411 60.3484 85.2394 60.5951 85.446 60.9218C85.6559 61.2451 85.7609 61.6451 85.7609 62.1218C85.7609 62.4852 85.6942 62.8052 85.5609 63.0819C85.4276 63.3585 85.2394 63.5919 84.9961 63.7819C84.7528 63.9686 84.4629 64.1136 84.1263 64.2169L83.7464 64.4019H81.4319L81.4219 63.4069H83.1565C83.4564 63.4069 83.7064 63.3535 83.9063 63.2469C84.1063 63.1402 84.2563 62.9952 84.3562 62.8119C84.4595 62.6252 84.5112 62.4152 84.5112 62.1818C84.5112 61.9285 84.4612 61.7085 84.3612 61.5218C84.2646 61.3318 84.1146 61.1868 83.9113 61.0868C83.7081 60.9835 83.4498 60.9318 83.1365 60.9318H81.8168V67.212H80.5621V59.9318ZM84.7161 67.212L83.0066 63.9419L84.3212 63.9369L86.0558 67.147V67.212H84.7161Z" fill="#929CA5"/>
<path d="M89.2751 67.312C88.8751 67.312 88.5136 67.247 88.1903 67.117C87.8704 66.9837 87.5971 66.7987 87.3705 66.562C87.1472 66.3253 86.9756 66.047 86.8556 65.727C86.7357 65.407 86.6757 65.0619 86.6757 64.6919V64.4919C86.6757 64.0686 86.7373 63.6852 86.8606 63.3419C86.9839 62.9985 87.1556 62.7052 87.3755 62.4618C87.5955 62.2152 87.8554 62.0268 88.1553 61.8968C88.4552 61.7668 88.7802 61.7018 89.1301 61.7018C89.5167 61.7018 89.8549 61.7668 90.1448 61.8968C90.4348 62.0268 90.6747 62.2102 90.8647 62.4468C91.058 62.6802 91.2013 62.9585 91.2946 63.2819C91.3912 63.6052 91.4395 63.9619 91.4395 64.3519V64.8669H87.2605V64.0019H90.2498V63.9069C90.2432 63.6902 90.1998 63.4869 90.1198 63.2969C90.0432 63.1069 89.9249 62.9535 89.7649 62.8369C89.605 62.7202 89.3917 62.6619 89.1251 62.6619C88.9251 62.6619 88.7468 62.7052 88.5902 62.7919C88.4369 62.8752 88.3086 62.9969 88.2053 63.1569C88.102 63.3169 88.022 63.5102 87.9654 63.7369C87.912 63.9602 87.8854 64.2119 87.8854 64.4919V64.6919C87.8854 64.9286 87.917 65.1486 87.9804 65.352C88.047 65.552 88.1437 65.727 88.2703 65.877C88.3969 66.027 88.5502 66.1453 88.7302 66.232C88.9101 66.3153 89.1151 66.357 89.345 66.357C89.635 66.357 89.8932 66.2987 90.1198 66.182C90.3465 66.0653 90.5431 65.9003 90.7097 65.687L91.3446 66.302C91.2279 66.472 91.0763 66.6353 90.8897 66.792C90.703 66.9453 90.4748 67.0704 90.2048 67.167C89.9382 67.2637 89.6283 67.312 89.2751 67.312Z" fill="#929CA5"/>
<path d="M95.4286 66.127V63.5469C95.4286 63.3535 95.3936 63.1869 95.3236 63.0469C95.2536 62.9069 95.147 62.7985 95.0037 62.7219C94.8637 62.6452 94.6871 62.6069 94.4738 62.6069C94.2772 62.6069 94.1072 62.6402 93.9639 62.7069C93.8206 62.7735 93.709 62.8635 93.629 62.9769C93.549 63.0902 93.509 63.2185 93.509 63.3619H92.3093C92.3093 63.1485 92.361 62.9419 92.4643 62.7419C92.5676 62.5418 92.7176 62.3635 92.9142 62.2068C93.1108 62.0502 93.3457 61.9268 93.619 61.8368C93.8923 61.7468 94.1989 61.7018 94.5388 61.7018C94.9454 61.7018 95.3053 61.7702 95.6185 61.9068C95.9351 62.0435 96.1834 62.2502 96.3634 62.5268C96.5466 62.8002 96.6383 63.1435 96.6383 63.5569V65.962C96.6383 66.2087 96.6549 66.4303 96.6883 66.627C96.7249 66.8203 96.7766 66.9887 96.8432 67.132V67.212H95.6085C95.5519 67.082 95.5069 66.917 95.4736 66.717C95.4436 66.5137 95.4286 66.317 95.4286 66.127ZM95.6035 63.9219L95.6135 64.6669H94.7487C94.5255 64.6669 94.3288 64.6886 94.1589 64.7319C93.9889 64.7719 93.8473 64.8319 93.734 64.9119C93.6207 64.9919 93.5357 65.0886 93.479 65.2019C93.4224 65.3153 93.3941 65.4436 93.3941 65.587C93.3941 65.7303 93.4274 65.862 93.494 65.982C93.5607 66.0986 93.6573 66.1903 93.784 66.257C93.9139 66.3237 94.0706 66.357 94.2539 66.357C94.5005 66.357 94.7154 66.307 94.8987 66.207C95.0853 66.1036 95.232 65.9786 95.3386 65.832C95.4452 65.682 95.5019 65.5403 95.5086 65.407L95.8985 65.942C95.8585 66.0786 95.7902 66.2253 95.6935 66.382C95.5969 66.5387 95.4702 66.6887 95.3136 66.832C95.1603 66.972 94.9754 67.087 94.7587 67.177C94.5455 67.267 94.2988 67.312 94.0189 67.312C93.6657 67.312 93.3507 67.242 93.0741 67.102C92.7975 66.9587 92.5809 66.767 92.4243 66.527C92.2677 66.2837 92.1894 66.0086 92.1894 65.702C92.1894 65.4153 92.2427 65.1619 92.3493 64.9419C92.4593 64.7186 92.6192 64.5319 92.8292 64.3819C93.0425 64.2319 93.3024 64.1186 93.609 64.0419C93.9156 63.9619 94.2655 63.9219 94.6588 63.9219H95.6035Z" fill="#929CA5"/>
<path d="M101.197 66.092V59.5317H102.407V67.212H101.312L101.197 66.092ZM97.678 64.5669V64.4619C97.678 64.0519 97.7264 63.6786 97.823 63.3419C97.9196 63.0019 98.0596 62.7102 98.2429 62.4668C98.4262 62.2202 98.6495 62.0318 98.9127 61.9018C99.176 61.7685 99.4726 61.7018 99.8025 61.7018C100.129 61.7018 100.416 61.7652 100.662 61.8918C100.909 62.0185 101.119 62.2002 101.292 62.4368C101.465 62.6702 101.604 62.9502 101.707 63.2769C101.81 63.6002 101.884 63.9602 101.927 64.3569V64.6919C101.884 65.0786 101.81 65.432 101.707 65.752C101.604 66.072 101.465 66.3487 101.292 66.582C101.119 66.8153 100.907 66.9953 100.657 67.122C100.411 67.2487 100.122 67.312 99.7925 67.312C99.4659 67.312 99.171 67.2437 98.9077 67.107C98.6478 66.9703 98.4262 66.7787 98.2429 66.532C98.0596 66.2853 97.9196 65.9953 97.823 65.662C97.7264 65.3253 97.678 64.9603 97.678 64.5669ZM98.8827 64.4619V64.5669C98.8827 64.8136 98.9044 65.0436 98.9477 65.257C98.9944 65.4703 99.066 65.6586 99.1627 65.822C99.2593 65.982 99.3843 66.1086 99.5376 66.202C99.6942 66.292 99.8808 66.337 100.097 66.337C100.371 66.337 100.596 66.277 100.772 66.157C100.949 66.037 101.087 65.8753 101.187 65.672C101.291 65.4653 101.36 65.2353 101.397 64.9819V64.0769C101.377 63.8802 101.335 63.6969 101.272 63.5269C101.212 63.3569 101.131 63.2085 101.027 63.0819C100.924 62.9519 100.796 62.8519 100.642 62.7819C100.492 62.7085 100.314 62.6719 100.107 62.6719C99.8875 62.6719 99.7009 62.7185 99.5476 62.8119C99.3943 62.9052 99.2677 63.0335 99.1677 63.1969C99.071 63.3602 98.9994 63.5502 98.9527 63.7669C98.9061 63.9836 98.8827 64.2152 98.8827 64.4619Z" fill="#929CA5"/>
<path d="M105.236 66.622L106.706 61.8018H107.996L105.826 68.0371C105.776 68.1704 105.711 68.3154 105.631 68.4721C105.551 68.6287 105.446 68.7771 105.316 68.9171C105.19 69.0604 105.031 69.1754 104.841 69.2621C104.651 69.3521 104.421 69.3971 104.151 69.3971C104.045 69.3971 103.942 69.3871 103.842 69.3671C103.745 69.3504 103.653 69.3321 103.567 69.3121L103.562 68.3921C103.595 68.3954 103.635 68.3987 103.682 68.4021C103.732 68.4054 103.772 68.4071 103.802 68.4071C104.002 68.4071 104.168 68.3821 104.301 68.3321C104.435 68.2854 104.543 68.2087 104.626 68.1021C104.713 67.9954 104.786 67.852 104.846 67.672L105.236 66.622ZM104.406 61.8018L105.691 65.852L105.906 67.122L105.071 67.337L103.107 61.8018H104.406Z" fill="#929CA5"/>
<path d="M111.355 59.9318H113.929C114.482 59.9318 114.954 60.0151 115.344 60.1818C115.734 60.3484 116.032 60.5951 116.239 60.9218C116.449 61.2451 116.554 61.6451 116.554 62.1218C116.554 62.4852 116.487 62.8052 116.354 63.0819C116.22 63.3585 116.032 63.5919 115.789 63.7819C115.545 63.9686 115.255 64.1136 114.919 64.2169L114.539 64.4019H112.225L112.215 63.4069H113.949C114.249 63.4069 114.499 63.3535 114.699 63.2469C114.899 63.1402 115.049 62.9952 115.149 62.8119C115.252 62.6252 115.304 62.4152 115.304 62.1818C115.304 61.9285 115.254 61.7085 115.154 61.5218C115.057 61.3318 114.907 61.1868 114.704 61.0868C114.501 60.9835 114.242 60.9318 113.929 60.9318H112.609V67.212H111.355V59.9318ZM115.509 67.212L113.799 63.9419L115.114 63.9369L116.848 67.147V67.212H115.509Z" fill="#929CA5"/>
<path d="M120.068 67.312C119.668 67.312 119.306 67.247 118.983 67.117C118.663 66.9837 118.39 66.7987 118.163 66.562C117.94 66.3253 117.768 66.047 117.648 65.727C117.528 65.407 117.468 65.0619 117.468 64.6919V64.4919C117.468 64.0686 117.53 63.6852 117.653 63.3419C117.777 62.9985 117.948 62.7052 118.168 62.4618C118.388 62.2152 118.648 62.0268 118.948 61.8968C119.248 61.7668 119.573 61.7018 119.923 61.7018C120.309 61.7018 120.648 61.7668 120.937 61.8968C121.227 62.0268 121.467 62.2102 121.657 62.4468C121.851 62.6802 121.994 62.9585 122.087 63.2819C122.184 63.6052 122.232 63.9619 122.232 64.3519V64.8669H118.053V64.0019H121.042V63.9069C121.036 63.6902 120.992 63.4869 120.912 63.2969C120.836 63.1069 120.718 62.9535 120.558 62.8369C120.398 62.7202 120.184 62.6619 119.918 62.6619C119.718 62.6619 119.539 62.7052 119.383 62.7919C119.23 62.8752 119.101 62.9969 118.998 63.1569C118.895 63.3169 118.815 63.5102 118.758 63.7369C118.705 63.9602 118.678 64.2119 118.678 64.4919V64.6919C118.678 64.9286 118.71 65.1486 118.773 65.352C118.84 65.552 118.936 65.727 119.063 65.877C119.19 66.027 119.343 66.1453 119.523 66.232C119.703 66.3153 119.908 66.357 120.138 66.357C120.428 66.357 120.686 66.2987 120.912 66.182C121.139 66.0653 121.336 65.9003 121.502 65.687L122.137 66.302C122.021 66.472 121.869 66.6353 121.682 66.792C121.496 66.9453 121.267 67.0704 120.997 67.167C120.731 67.2637 120.421 67.312 120.068 67.312Z" fill="#929CA5"/>
<path d="M126.221 66.127V63.5469C126.221 63.3535 126.186 63.1869 126.116 63.0469C126.046 62.9069 125.94 62.7985 125.796 62.7219C125.656 62.6452 125.48 62.6069 125.266 62.6069C125.07 62.6069 124.9 62.6402 124.757 62.7069C124.613 62.7735 124.502 62.8635 124.422 62.9769C124.342 63.0902 124.302 63.2185 124.302 63.3619H123.102C123.102 63.1485 123.154 62.9419 123.257 62.7419C123.36 62.5418 123.51 62.3635 123.707 62.2068C123.903 62.0502 124.138 61.9268 124.412 61.8368C124.685 61.7468 124.991 61.7018 125.331 61.7018C125.738 61.7018 126.098 61.7702 126.411 61.9068C126.728 62.0435 126.976 62.2502 127.156 62.5268C127.339 62.8002 127.431 63.1435 127.431 63.5569V65.962C127.431 66.2087 127.448 66.4303 127.481 66.627C127.518 66.8203 127.569 66.9887 127.636 67.132V67.212H126.401C126.344 67.082 126.299 66.917 126.266 66.717C126.236 66.5137 126.221 66.317 126.221 66.127ZM126.396 63.9219L126.406 64.6669H125.541C125.318 64.6669 125.121 64.6886 124.951 64.7319C124.782 64.7719 124.64 64.8319 124.527 64.9119C124.413 64.9919 124.328 65.0886 124.272 65.2019C124.215 65.3153 124.187 65.4436 124.187 65.587C124.187 65.7303 124.22 65.862 124.287 65.982C124.353 66.0986 124.45 66.1903 124.577 66.257C124.707 66.3237 124.863 66.357 125.046 66.357C125.293 66.357 125.508 66.307 125.691 66.207C125.878 66.1036 126.025 65.9786 126.131 65.832C126.238 65.682 126.294 65.5403 126.301 65.407L126.691 65.942C126.651 66.0786 126.583 66.2253 126.486 66.382C126.389 66.5387 126.263 66.6887 126.106 66.832C125.953 66.972 125.768 67.087 125.551 67.177C125.338 67.267 125.091 67.312 124.812 67.312C124.458 67.312 124.143 67.242 123.867 67.102C123.59 66.9587 123.374 66.767 123.217 66.527C123.06 66.2837 122.982 66.0086 122.982 65.702C122.982 65.4153 123.035 65.1619 123.142 64.9419C123.252 64.7186 123.412 64.5319 123.622 64.3819C123.835 64.2319 124.095 64.1186 124.402 64.0419C124.708 63.9619 125.058 63.9219 125.451 63.9219H126.396Z" fill="#929CA5"/>
<path d="M129.98 59.5317V67.212H128.771V59.5317H129.98Z" fill="#929CA5"/>
<path d="M138.733 66.217V67.212H134.869V66.217H138.733ZM135.224 59.9318V67.212H133.969V59.9318H135.224ZM138.228 62.9719V63.9519H134.869V62.9719H138.228ZM138.708 59.9318V60.9318H134.869V59.9318H138.708Z" fill="#929CA5"/>
<path d="M142.672 65.747C142.672 65.627 142.642 65.5186 142.582 65.422C142.522 65.322 142.407 65.2319 142.237 65.1519C142.071 65.0719 141.824 64.9986 141.498 64.9319C141.211 64.8686 140.948 64.7936 140.708 64.7069C140.471 64.6169 140.268 64.5086 140.098 64.3819C139.928 64.2552 139.796 64.1052 139.703 63.9319C139.61 63.7586 139.563 63.5586 139.563 63.3319C139.563 63.1119 139.611 62.9035 139.708 62.7069C139.805 62.5102 139.943 62.3368 140.123 62.1868C140.303 62.0368 140.521 61.9185 140.778 61.8318C141.038 61.7452 141.328 61.7018 141.647 61.7018C142.101 61.7018 142.489 61.7785 142.812 61.9318C143.139 62.0818 143.389 62.2868 143.562 62.5468C143.735 62.8035 143.822 63.0935 143.822 63.4169H142.617C142.617 63.2735 142.581 63.1402 142.507 63.0169C142.437 62.8902 142.331 62.7885 142.187 62.7119C142.044 62.6319 141.864 62.5919 141.647 62.5919C141.441 62.5919 141.269 62.6252 141.133 62.6919C140.999 62.7552 140.899 62.8385 140.833 62.9419C140.769 63.0452 140.738 63.1585 140.738 63.2819C140.738 63.3719 140.754 63.4535 140.788 63.5269C140.824 63.5969 140.884 63.6619 140.968 63.7219C141.051 63.7786 141.164 63.8319 141.308 63.8819C141.454 63.9319 141.637 63.9802 141.857 64.0269C142.271 64.1136 142.626 64.2252 142.922 64.3619C143.222 64.4953 143.452 64.6686 143.612 64.8819C143.772 65.0919 143.852 65.3586 143.852 65.682C143.852 65.922 143.8 66.142 143.697 66.342C143.597 66.5387 143.45 66.7103 143.257 66.857C143.064 67.0003 142.832 67.112 142.562 67.192C142.296 67.272 141.996 67.312 141.662 67.312C141.173 67.312 140.758 67.2254 140.418 67.052C140.078 66.8753 139.82 66.6503 139.643 66.377C139.47 66.1003 139.383 65.8136 139.383 65.517H140.548C140.561 65.7403 140.623 65.9186 140.733 66.052C140.846 66.182 140.986 66.277 141.153 66.337C141.323 66.3937 141.498 66.422 141.677 66.422C141.894 66.422 142.076 66.3937 142.222 66.337C142.369 66.277 142.481 66.197 142.557 66.097C142.634 65.9936 142.672 65.877 142.672 65.747Z" fill="#929CA5"/>
<path d="M147.386 61.8018V62.6819H144.337V61.8018H147.386ZM145.217 60.4768H146.421V65.717C146.421 65.8836 146.445 66.012 146.491 66.102C146.541 66.1887 146.61 66.247 146.696 66.277C146.783 66.307 146.885 66.322 147.001 66.322C147.085 66.322 147.164 66.317 147.241 66.307C147.318 66.297 147.379 66.287 147.426 66.277L147.431 67.197C147.331 67.227 147.214 67.2537 147.081 67.277C146.951 67.3004 146.801 67.312 146.631 67.312C146.355 67.312 146.11 67.2637 145.896 67.167C145.683 67.067 145.517 66.9053 145.397 66.682C145.277 66.4587 145.217 66.162 145.217 65.792V60.4768Z" fill="#929CA5"/>
<path d="M151.365 66.127V63.5469C151.365 63.3535 151.33 63.1869 151.26 63.0469C151.19 62.9069 151.084 62.7985 150.94 62.7219C150.8 62.6452 150.624 62.6069 150.41 62.6069C150.214 62.6069 150.044 62.6402 149.9 62.7069C149.757 62.7735 149.646 62.8635 149.566 62.9769C149.486 63.0902 149.446 63.2185 149.446 63.3619H148.246C148.246 63.1485 148.298 62.9419 148.401 62.7419C148.504 62.5418 148.654 62.3635 148.851 62.2068C149.047 62.0502 149.282 61.9268 149.556 61.8368C149.829 61.7468 150.135 61.7018 150.475 61.7018C150.882 61.7018 151.242 61.7702 151.555 61.9068C151.872 62.0435 152.12 62.2502 152.3 62.5268C152.483 62.8002 152.575 63.1435 152.575 63.5569V65.962C152.575 66.2087 152.592 66.4303 152.625 66.627C152.662 66.8203 152.713 66.9887 152.78 67.132V67.212H151.545C151.488 67.082 151.443 66.917 151.41 66.717C151.38 66.5137 151.365 66.317 151.365 66.127ZM151.54 63.9219L151.55 64.6669H150.685C150.462 64.6669 150.265 64.6886 150.095 64.7319C149.925 64.7719 149.784 64.8319 149.671 64.9119C149.557 64.9919 149.472 65.0886 149.416 65.2019C149.359 65.3153 149.331 65.4436 149.331 65.587C149.331 65.7303 149.364 65.862 149.431 65.982C149.497 66.0986 149.594 66.1903 149.721 66.257C149.851 66.3237 150.007 66.357 150.19 66.357C150.437 66.357 150.652 66.307 150.835 66.207C151.022 66.1036 151.169 65.9786 151.275 65.832C151.382 65.682 151.438 65.5403 151.445 65.407L151.835 65.942C151.795 66.0786 151.727 66.2253 151.63 66.382C151.533 66.5387 151.407 66.6887 151.25 66.832C151.097 66.972 150.912 67.087 150.695 67.177C150.482 67.267 150.235 67.312 149.955 67.312C149.602 67.312 149.287 67.242 149.011 67.102C148.734 66.9587 148.517 66.767 148.361 66.527C148.204 66.2837 148.126 66.0086 148.126 65.702C148.126 65.4153 148.179 65.1619 148.286 64.9419C148.396 64.7186 148.556 64.5319 148.766 64.3819C148.979 64.2319 149.239 64.1186 149.546 64.0419C149.852 63.9619 150.202 63.9219 150.595 63.9219H151.54Z" fill="#929CA5"/>
<path d="M156.314 61.8018V62.6819H153.265V61.8018H156.314ZM154.144 60.4768H155.349V65.717C155.349 65.8836 155.373 66.012 155.419 66.102C155.469 66.1887 155.537 66.247 155.624 66.277C155.711 66.307 155.812 66.322 155.929 66.322C156.012 66.322 156.092 66.317 156.169 66.307C156.246 66.297 156.307 66.287 156.354 66.277L156.359 67.197C156.259 67.227 156.142 67.2537 156.009 67.277C155.879 67.3004 155.729 67.312 155.559 67.312C155.283 67.312 155.038 67.2637 154.824 67.167C154.611 67.067 154.444 66.9053 154.324 66.682C154.204 66.4587 154.144 66.162 154.144 65.792V60.4768Z" fill="#929CA5"/>
<path d="M159.628 67.312C159.228 67.312 158.867 67.247 158.543 67.117C158.224 66.9837 157.95 66.7987 157.724 66.562C157.5 66.3253 157.329 66.047 157.209 65.727C157.089 65.407 157.029 65.0619 157.029 64.6919V64.4919C157.029 64.0686 157.09 63.6852 157.214 63.3419C157.337 62.9985 157.509 62.7052 157.729 62.4618C157.949 62.2152 158.209 62.0268 158.508 61.8968C158.808 61.7668 159.133 61.7018 159.483 61.7018C159.87 61.7018 160.208 61.7668 160.498 61.8968C160.788 62.0268 161.028 62.2102 161.218 62.4468C161.411 62.6802 161.554 62.9585 161.648 63.2819C161.744 63.6052 161.793 63.9619 161.793 64.3519V64.8669H157.614V64.0019H160.603V63.9069C160.596 63.6902 160.553 63.4869 160.473 63.2969C160.396 63.1069 160.278 62.9535 160.118 62.8369C159.958 62.7202 159.745 62.6619 159.478 62.6619C159.278 62.6619 159.1 62.7052 158.943 62.7919C158.79 62.8752 158.662 62.9969 158.558 63.1569C158.455 63.3169 158.375 63.5102 158.318 63.7369C158.265 63.9602 158.238 64.2119 158.238 64.4919V64.6919C158.238 64.9286 158.27 65.1486 158.333 65.352C158.4 65.552 158.497 65.727 158.623 65.877C158.75 66.027 158.903 66.1453 159.083 66.232C159.263 66.3153 159.468 66.357 159.698 66.357C159.988 66.357 160.246 66.2987 160.473 66.182C160.7 66.0653 160.896 65.9003 161.063 65.687L161.698 66.302C161.581 66.472 161.429 66.6353 161.243 66.792C161.056 66.9453 160.828 67.0704 160.558 67.167C160.291 67.2637 159.981 67.312 159.628 67.312Z" fill="#929CA5"/>
<path fill-rule="evenodd" clip-rule="evenodd" d="M115.872 28.238C115.904 28.2826 115.923 28.3346 115.962 28.3581C116.178 28.4472 116.356 28.5826 116.314 28.8355C116.274 29.0777 116.222 29.3623 116.065 29.534C115.824 29.8303 115.551 30.0819 115.434 30.4624C115.418 30.5153 115.378 30.5723 115.326 30.591C114.976 30.7769 114.62 30.9571 114.258 31.1316C114.206 31.1504 114.14 31.1416 114.066 31.1539C114.005 30.6728 114.12 30.5231 114.586 30.515C114.655 30.5133 114.746 30.4831 114.807 30.4326C115.177 30.0947 115.518 29.7365 115.659 29.2364C115.716 29.0112 115.633 28.9048 115.406 28.928C115.204 28.947 114.999 29.0115 114.789 29.0167C114.453 29.0181 114.12 28.9739 113.784 28.9753C113.494 28.979 113.201 29.0282 112.904 29.0531C112.597 29.0747 112.276 29.1037 111.961 29.1115C111.639 29.1055 111.313 29.0752 110.983 29.0554C110.517 29.0285 110.146 29.1461 109.838 29.549C109.689 29.7345 109.405 29.8675 109.162 29.9434C108.704 30.0807 108.216 30.1628 107.723 30.0352C107.659 30.0158 107.546 30.085 107.481 30.1461C107.011 30.5459 106.567 30.9766 106.084 31.3488C105.854 31.5329 105.548 31.6244 105.265 31.7573C105.132 31.2081 105.288 31.0014 105.763 30.9966C105.9 31.0037 106.055 30.9124 106.175 30.822C106.597 30.4653 106.854 30.0008 106.974 29.4593C107.026 29.1748 107.135 29.0462 107.462 29.1464C107.812 29.2531 108.02 29.0626 108.114 28.6057C107.904 28.6109 107.698 28.6405 107.498 28.614C106.335 28.4587 105.178 28.294 104.029 28.1197C103.776 28.0771 103.38 28.4646 103.466 28.7107C103.492 28.7765 103.596 28.8544 103.684 28.8697C103.969 28.957 104.265 29.0126 104.553 29.0893C105.082 29.251 105.24 29.8311 104.862 30.2357C104.573 30.5401 104.329 30.8819 104.064 31.1822C103.792 31.5037 103.292 31.628 102.887 31.8165C102.845 31.8385 102.682 31.7306 102.685 31.7201C102.72 31.5688 102.776 31.4241 102.853 31.2858C102.89 31.2394 103.008 31.1945 103.071 31.2139C103.343 31.3085 103.521 31.1433 103.664 30.9789C103.918 30.6753 104.173 30.3717 104.35 30.0211C104.477 29.7941 104.351 29.6749 104.068 29.6924C103.475 29.7421 102.888 29.7707 102.307 29.6278C102.166 29.5963 102.003 29.6388 101.863 29.6423C101.212 29.6515 100.576 29.6883 99.9315 29.6414C99.3988 29.6056 98.9181 29.5512 98.5531 30.0638C98.4283 30.2452 98.1333 30.34 97.9073 30.3981C97.4099 30.5118 96.9074 30.5663 96.4038 30.4354C96.3159 30.4201 96.2022 30.4894 96.1235 30.5578C95.7118 30.8828 95.3433 31.2556 94.9032 31.5603C94.6076 31.7705 94.2394 31.8776 93.8901 32.0366C93.7296 31.5021 93.9097 31.2913 94.396 31.2897C94.5709 31.2853 94.7812 31.1647 94.9323 31.049C95.3195 30.7282 95.5569 30.2921 95.6812 29.81C95.7547 29.5319 95.8602 29.4138 96.1848 29.5247C96.5942 29.6614 96.8839 29.3569 96.8674 28.8433C96.2201 28.8419 95.5728 28.8405 94.9214 28.8147C94.2699 28.789 93.6314 28.7209 92.9459 28.7309C93.0314 28.7918 93.1072 28.8843 93.213 28.9166C93.5133 29.0316 93.8095 29.1221 94.1098 29.237C94.6078 29.424 94.6472 30.014 94.2747 30.3625C93.967 30.6499 93.6162 30.8894 93.4055 31.2758C93.3285 31.4141 93.0961 31.4933 92.9263 31.557C92.6207 31.6485 92.3175 31.6945 92.0078 31.7617C91.9866 31.3391 92.1124 31.1926 92.4832 31.1903C92.5393 31.1959 92.606 31.2048 92.6474 31.1828C93.0926 30.9374 93.5092 30.6718 93.7531 30.2146C93.8236 30.0974 93.8565 29.8763 93.7986 29.8008C93.7196 29.7188 93.5236 29.7167 93.3658 29.7032C92.9803 29.6778 92.5883 29.6735 92.1922 29.6449C91.7994 29.6057 91.413 29.5454 91.0201 29.5062C90.4589 29.4502 89.888 29.4259 89.3365 29.3382C88.7882 29.2399 88.3157 29.2342 87.897 29.6957C87.7574 29.8496 87.4721 29.9126 87.2485 29.9252C86.7834 29.9332 86.3165 29.8714 85.8366 29.8519C85.7456 29.8471 85.6374 29.8603 85.5757 29.9108C85.2355 30.1536 84.9131 30.4133 84.5835 30.6593C84.1645 30.9705 83.6744 31.0981 83.176 31.1769C83.0873 30.7105 83.3088 30.4777 83.7099 30.5657C83.8051 30.5948 83.9197 30.5604 84.0026 30.5164C84.5964 30.2009 84.9792 29.7053 85.1943 29.0775C85.2663 28.8799 85.3662 28.818 85.5819 28.907C85.9783 29.086 86.2959 28.9172 86.4146 28.4912C86.4428 28.3611 86.4604 28.2277 86.5016 28.0554C86.4202 28.0189 86.342 27.9719 86.2533 27.9217C86.1822 27.8768 86.1064 27.8344 86.0261 27.7944C86.0277 27.7641 86.0282 27.7372 86.0276 27.7139C86.2151 27.6557 86.4025 27.5974 86.59 27.5391C86.5894 27.5158 86.5853 27.4914 86.5777 27.466C86.4484 27.4727 86.3085 27.4762 86.1719 27.4691C85.5416 27.4498 84.9007 27.4272 84.2631 27.3941C84.0842 27.3741 84.0087 27.4319 83.9464 27.5978C83.5262 28.556 82.8331 29.2341 81.9152 29.7395C80.5797 30.4756 79.1476 30.8469 77.6399 30.8599C76.8771 30.8579 76.0993 30.6779 75.3533 30.5076C73.7246 30.1599 72.1896 29.5057 70.6449 28.8832C69.8213 28.5504 69.0073 28.186 68.1658 27.8362C68.5319 27.5089 68.8904 27.4336 69.33 27.6604C69.7199 27.8606 70.1568 27.9826 70.5776 28.1575C70.8112 28.2636 70.964 28.2178 71.0595 27.9811C71.1194 27.8607 71.1867 27.7542 71.2604 27.6264C71.1 27.508 70.9322 27.3758 70.758 27.2647C70.4127 27.032 70.2014 26.7016 70.0763 26.3165C69.9461 25.8721 69.8647 25.4196 69.8841 24.94C69.937 24.1239 69.9581 23.2981 69.9199 22.4772C69.8787 21.8173 69.4656 21.3905 68.8236 21.1826C69.0674 20.7254 69.4882 20.4842 69.936 20.3437C70.4529 20.1664 70.7928 20.6056 71.2283 20.8081C71.1393 20.6075 71.0746 20.4028 70.9759 20.2339C70.8625 20.0374 70.9403 19.934 71.0955 19.8427C71.3684 19.7066 71.6523 19.724 71.9314 19.8325C72.3872 20.0065 72.3872 20.0065 72.336 20.4763C72.5123 20.3915 72.696 20.3205 72.8829 20.2389C72.867 20.026 72.8438 19.7993 72.7994 19.5661C72.7706 19.3954 72.8241 19.2962 72.9948 19.2675C73.1029 19.2543 73.2069 19.2167 73.3118 19.2141C73.6753 19.1981 73.8008 18.9012 73.9832 18.6449C73.5272 18.7367 73.0712 18.8285 72.5769 18.9317C72.5778 18.9666 72.6049 19.0674 72.5781 19.117C72.4832 19.2382 72.3657 19.4335 72.247 19.4434C72.0933 19.4542 71.8809 19.3546 71.7936 19.2239C71.7178 19.1314 71.7677 18.8923 71.8382 18.7752C71.9429 18.6222 72.1485 18.5926 72.3195 18.7143C72.4694 18.8294 72.5808 18.8057 72.7221 18.7217C73.0153 18.5571 73.3339 18.4233 73.6197 18.2448C73.9438 18.0549 74.282 18.008 74.6514 18.0863C75.1509 18.1928 75.6569 18.2781 76.1661 18.3529C76.363 18.3899 76.425 18.4898 76.4262 18.6751C76.4432 19.0734 76.4708 19.4748 76.5017 19.8657C76.5026 19.9007 76.5246 19.9421 76.5499 19.9729C76.8927 20.3397 77.2355 20.7066 77.5783 21.0734C77.62 21.063 77.6618 21.0527 77.7035 21.0423C77.7008 20.9375 77.712 20.8253 77.702 20.7066C77.6764 20.5254 77.6403 20.341 77.6042 20.1565C77.5804 20.0452 77.5809 19.9298 77.5571 19.8185C77.5333 19.7072 77.4534 19.5903 77.454 19.4749C77.4422 19.2863 77.4654 19.0969 77.4781 18.9042C77.6409 18.9771 77.8101 19.0289 77.9388 19.1376C78.0781 19.2495 78.1692 19.2543 78.3317 19.1768C78.6258 19.0471 78.9264 18.8962 79.2772 19.0728C79.6639 19.2835 79.7312 19.5931 79.4244 19.9155C79.3733 19.9692 79.319 20.0335 79.254 20.0945C79.5449 20.3915 79.6472 20.7002 79.4301 21.1078C79.3199 21.3168 79.3513 21.5923 79.3014 21.8314C79.1298 22.6574 79.0137 22.7722 78.1804 22.8873C78.0585 22.9079 77.9227 22.9357 77.8219 22.9627C77.7691 23.7788 77.209 24.3243 76.7809 24.9679C77.4917 25.4048 78.2454 25.7393 79.0849 25.8688C79.285 25.8953 79.5021 25.9039 79.7063 25.9547C80.153 26.045 80.2044 26.1417 80.0769 26.6344C81.1842 26.7957 82.2835 26.9584 83.3746 27.1225C83.6343 26.4621 83.3023 25.5052 82.7413 25.1834C82.4434 25.0229 82.3711 25.0702 82.1642 25.3306C81.9915 25.5552 81.752 25.771 81.4993 25.8787C81.1012 26.046 80.7151 25.7198 80.7045 25.3005C80.676 24.4479 81.3309 23.7812 82.1751 23.8197C82.9526 23.8493 83.5015 24.2483 83.8826 24.9312C84.271 25.6279 84.296 26.3407 84.0895 27.1676C85.045 27.1824 85.955 27.1947 86.865 27.207C86.9211 27.2126 86.9764 27.1833 87.0316 27.154C87.7033 26.7351 88.3897 26.76 89.1108 27.0498C89.9694 27.3817 90.8241 27.4234 91.6698 26.9652C92.1223 26.7337 92.3435 26.3505 92.3523 25.8677C92.3614 25.5352 92.3112 25.2078 92.3065 24.8827C92.3091 24.5714 92.3361 24.256 92.3599 23.9511C91.8234 24.0414 91.4902 23.7315 91.2704 23.2019C91.4834 23.1861 91.6826 23.1777 91.8957 23.1619C91.8813 22.8685 91.8093 22.65 91.5219 22.4927C91.1743 22.3056 90.8566 22.0582 90.539 21.8108C89.9428 21.3395 89.7121 20.6564 89.5335 19.9544C89.5633 19.9327 89.593 19.911 89.6228 19.8892C89.7133 20.0094 89.8176 20.1222 89.9049 20.2529C89.9922 20.3836 90.0486 20.5396 90.1667 20.6451C90.2278 20.71 90.3677 20.7065 90.4629 20.7356C90.4782 20.6478 90.5211 20.5453 90.4981 20.469C90.4358 20.2187 90.3036 19.9702 90.7 19.7331C90.7461 20.0362 90.8052 20.297 90.8399 20.5619C90.8737 20.7918 90.8831 21.0259 90.938 21.2623C90.9545 21.3598 91.0547 21.4483 91.1566 21.6066C91.201 21.4237 91.2301 21.3285 91.2551 21.209C91.5463 21.2402 91.6523 21.4229 91.7284 21.6658C91.7784 21.8429 91.8804 22.0013 91.9579 22.1637C92.0837 22.0172 92.22 21.8739 92.3173 21.7071C92.4048 21.5721 92.4354 21.3965 92.5303 21.2752C92.5879 21.2003 92.7236 21.1725 92.835 21.1487C92.8594 21.1446 92.9425 21.251 92.9361 21.2721C92.8964 21.364 92.8397 21.4738 92.7642 21.5317C92.4898 21.7483 92.3581 22.2167 92.5051 22.4928C92.6593 22.7827 92.9799 22.8691 93.3586 22.7653C93.6854 22.6803 93.8793 22.4621 94.0439 22.1888C94.1282 22.0643 94.3012 21.99 94.4352 21.8923C94.4323 22.0532 94.479 22.2409 94.4232 22.3857C94.3471 22.5589 94.2181 22.716 94.0744 22.8454C93.9137 22.9928 93.7204 23.0955 93.4759 23.252C93.9786 23.3479 94.4253 23.4382 94.8613 23.5253C94.928 23.9502 94.6424 24.2791 94.2366 24.2822C94.1106 24.2783 93.9983 24.2671 93.8764 24.2876C93.5414 24.3239 93.3825 24.5412 93.4709 24.8572C93.5209 25.0343 93.5985 25.1968 93.6622 25.3665C93.9664 26.1877 94.0818 27.0207 93.5947 27.8196C93.4536 28.0539 93.2344 28.2412 93.0202 28.4878C94.294 28.6345 95.5522 28.7186 96.8245 28.5296C96.6935 28.4664 96.5624 28.4032 96.3711 28.3101C96.4922 28.2546 96.5539 28.2041 96.5994 28.2065C96.8451 28.2354 96.9993 28.1091 97.1315 27.9415C97.6798 27.2075 98.4473 27.1185 99.2504 27.3293C99.9021 27.5054 100.546 27.6328 101.216 27.4448C101.661 27.3148 102.09 27.1223 102.359 26.696C102.655 26.2201 102.558 25.7049 102.52 25.1848C102.489 24.7939 102.437 24.3965 102.385 23.9992C101.868 24.1764 101.551 23.8136 101.242 23.3492C101.48 23.3293 101.693 23.3135 101.919 23.2904C101.873 22.9873 101.763 22.7802 101.473 22.6336C100.987 22.3694 100.535 22.0694 100.103 21.7409C99.6281 21.3645 99.4636 20.8056 99.334 20.2458C99.3546 20.229 99.3751 20.2122 99.3957 20.1953C99.54 20.3666 99.6842 20.5379 99.8179 20.7059C99.8685 20.7676 99.8785 20.8862 99.9281 20.913C100.031 20.9559 100.157 20.9597 100.266 20.9815C100.274 20.8799 100.32 20.7668 100.283 20.6978C100.14 20.4461 100.033 20.2284 100.322 20.0045C100.539 20.1634 100.594 20.3998 100.635 20.6436C100.676 20.8874 100.704 21.1385 100.759 21.3749C100.79 21.5 100.894 21.6128 100.96 21.7371C100.988 21.7224 101.018 21.7123 101.05 21.7069C101.061 21.5947 101.073 21.4825 101.076 21.3565C101.342 21.3569 101.489 21.4826 101.585 21.6971C101.616 21.7872 101.618 21.8921 101.659 21.9855C101.711 22.0821 101.776 22.1714 101.841 22.2607C101.937 22.1744 102.054 22.0946 102.11 21.9847C102.183 21.8221 102.21 21.6221 102.275 21.4456C102.301 21.361 102.368 21.2545 102.445 21.2316C102.546 21.2046 102.659 21.2507 102.771 21.2619C102.752 21.3603 102.756 21.5001 102.698 21.54C102.412 21.7185 102.394 22.0022 102.391 22.2785C102.387 22.5549 102.542 22.7294 102.799 22.7964C103.169 22.9096 103.65 22.6983 103.848 22.3542C103.925 22.2159 103.981 22.0711 104.079 21.9393C104.133 21.875 104.245 21.8513 104.342 21.7999C104.369 21.9006 104.459 22.0208 104.426 22.0915C104.282 22.3714 104.104 22.6521 103.922 22.9084C103.841 23.0223 103.692 23.0924 103.499 23.2301C103.868 23.2734 104.162 23.2941 104.45 23.3359C104.637 23.3697 104.943 23.3131 104.925 23.5619C104.909 23.7651 104.722 23.997 104.54 24.1379C104.403 24.2462 104.172 24.245 103.97 24.264C103.6 24.3012 103.478 24.4721 103.62 24.8043C103.761 25.1365 103.923 25.4751 104.037 25.822C104.279 26.5434 104.374 27.2544 103.882 27.994C105.3 28.3119 106.673 28.5121 108.099 28.4627C108.119 28.3992 108.132 28.3569 108.145 28.3147C108.161 28.2618 108.163 28.2163 108.172 28.1496C107.995 28.0841 107.822 28.0079 107.603 27.9295C107.682 27.8611 107.719 27.8147 107.74 27.8211C108.098 27.8612 108.27 27.6016 108.446 27.3665C108.771 26.9457 109.2 26.7532 109.715 26.7719C110.16 26.7923 110.603 26.8932 111.042 26.9348C111.817 27.0099 112.567 26.9388 113.187 26.3884C113.628 26.0032 113.724 25.5008 113.661 24.9498C113.641 24.7125 113.53 24.4705 113.5 24.2299C113.45 23.9374 113.447 23.6473 113.422 23.3506C112.899 23.4336 112.537 23.2537 112.287 22.7494C112.485 22.706 112.67 22.6699 112.879 22.6298C112.815 22.3446 112.719 22.1302 112.408 22.012C111.966 21.8307 111.54 21.5965 111.152 21.3159C110.61 20.9307 110.323 20.3573 110.159 19.683C110.501 19.7759 110.602 20.0496 110.751 20.2802C110.893 20.497 111.045 20.5317 111.225 20.3209C111.186 20.0316 110.791 19.7722 111.22 19.4293C111.286 19.5536 111.376 19.6737 111.408 19.7988C111.492 20.0905 111.527 20.3903 111.615 20.6714C111.668 20.8379 111.773 20.9857 111.854 21.1375C111.887 21.1321 111.92 21.1231 111.955 21.1106C111.977 21.0016 111.988 20.8894 112.013 20.7699C112.257 20.7289 112.376 20.8693 112.468 21.0593C112.519 21.156 112.523 21.2958 112.585 21.3956C112.65 21.4849 112.754 21.5628 112.847 21.6374C112.921 21.5447 113.024 21.4721 113.07 21.3591C113.133 21.1932 113.153 21.0143 113.194 20.842C113.236 20.5891 113.399 20.5117 113.736 20.5452C113.645 20.6909 113.606 20.8177 113.521 20.9073C113.225 21.2329 113.217 21.7506 113.521 22.0053C113.828 22.2495 114.427 22.1437 114.663 21.7881C114.771 21.6246 114.832 21.4237 114.94 21.2602C114.997 21.1853 115.105 21.1372 115.191 21.0826C115.239 21.1898 115.333 21.2994 115.325 21.401C115.285 21.7587 115.078 22.0191 114.803 22.2357C114.714 22.3009 114.625 22.3661 114.46 22.4891C114.909 22.5338 115.285 22.5909 115.656 22.6237C115.892 22.6493 115.979 22.78 115.887 23.0061C115.785 23.2639 115.578 23.4089 115.31 23.4541C114.499 23.6106 114.455 23.6782 114.824 24.4383C115.012 24.8078 115.183 25.1952 115.291 25.5982C115.488 26.3521 115.366 27.0546 114.793 27.6423C114.725 27.714 114.697 27.879 114.711 27.9871C114.719 28.0358 114.881 28.0738 114.969 28.0891C115.275 28.1479 115.573 28.1929 115.879 28.2518L115.872 28.238ZM75.8193 29.2861C75.7262 29.8934 75.7335 29.9072 76.2956 29.9981C77.6061 30.2138 78.9045 30.0906 80.1839 29.7651C81.1121 29.5287 81.869 29.0203 82.5671 28.4015C82.8854 28.1173 83.1571 27.7958 83.314 27.3583C82.4396 27.2296 81.5969 27.1107 80.7574 26.9812C80.5044 26.9385 80.1959 26.7748 80.009 26.8564C79.8051 26.9559 79.6976 27.2698 79.5809 27.5C79.0323 28.4998 78.2408 29.1594 77.128 29.4319C77.0028 29.463 76.8768 29.4591 76.7434 29.4415C76.431 29.4038 76.1284 29.3343 75.8193 29.2861V29.2861ZM75.2848 29.1805C74.0877 28.7451 72.9256 28.3089 71.7423 27.8662C71.6321 28.0753 71.5422 28.2559 71.4459 28.4576C72.7129 28.8912 73.9482 29.3151 75.2014 29.756C75.227 29.5712 75.2548 29.3794 75.2848 29.1805Z" fill="#A1ACBC"/>
<path d="M136.046 29.3306C136.005 28.8211 136.033 28.8064 136.477 28.6765C136.63 28.6307 136.774 28.5012 136.869 28.38C137.092 28.0667 137.336 27.7599 137.488 27.4134C137.626 27.0742 137.477 26.9591 137.121 27.0239C136.738 27.1033 136.343 27.26 135.989 27.2094C135.392 27.1193 134.878 27.2859 134.325 27.3941C133.879 27.4891 133.398 27.4346 132.926 27.4289C132.432 27.4167 132.041 27.5628 131.715 27.9835C131.285 28.5223 130.647 28.6395 129.988 28.6C129.67 28.5834 129.462 28.6585 129.238 28.9368C128.726 29.5895 128.11 30.1294 127.298 30.4013C127.143 29.9611 127.275 29.7585 127.727 29.6773C127.836 29.6641 127.963 29.5875 128.056 29.5118C128.501 29.116 128.715 28.6036 128.83 28.0378C128.901 27.6548 128.942 27.6328 129.326 27.7387C129.591 27.8195 129.809 27.7127 129.91 27.4199C129.955 27.2719 129.958 27.111 129.998 26.9037C128.701 27.2122 127.433 27.3101 126.158 27.2439C126.79 27.1828 127.418 27.1322 128.053 27.0604C128.688 26.9887 129.319 26.8926 129.947 26.807C129.948 26.7767 129.951 26.7428 129.955 26.7054C129.789 26.6431 129.623 26.5808 129.425 26.5088C129.479 26.4445 129.523 26.377 129.558 26.3761C129.869 26.3439 130.006 26.1202 130.176 25.9061C130.646 25.2755 131.488 25.0587 132.265 25.2387C133.194 25.4534 134.083 25.3089 134.836 24.6607C135.295 24.2577 135.436 23.4569 135.176 22.8688C134.983 22.44 134.924 22.0288 134.992 21.5411C134.448 21.7679 134.075 21.5149 133.713 21.0343C133.939 20.9763 134.102 20.9337 134.304 20.8798C134.297 20.6002 134.148 20.4045 133.813 20.2905C133.058 20.0365 132.326 19.7434 131.871 19.0379C131.703 18.7553 131.562 18.458 131.411 18.1576C131.457 18.1331 131.501 18.104 131.542 18.0704C131.672 18.214 131.812 18.3609 131.941 18.5046C131.999 18.5801 132.034 18.6946 132.112 18.7416C132.211 18.7951 132.359 18.8404 132.442 18.7964C132.615 18.7221 132.531 18.5808 132.445 18.4851C132.289 18.2756 132.168 18.0653 132.49 17.7706C132.586 17.985 132.695 18.1571 132.763 18.3513C132.85 18.5974 132.874 18.8591 132.975 19.0979C133.034 19.2432 133.173 19.3552 133.275 19.4786C133.302 19.4639 133.327 19.4446 133.35 19.4207C133.35 19.3205 133.351 19.2167 133.353 19.1094C133.624 19.0537 133.738 19.2502 133.858 19.4256C133.902 19.5084 133.904 19.6133 133.965 19.6782C134.041 19.7707 134.14 19.8242 134.23 19.9094C134.294 19.8134 134.387 19.7377 134.419 19.632C134.471 19.4628 134.47 19.2775 134.521 19.1084C134.554 19.0027 134.606 18.8685 134.692 18.8139C134.765 18.7666 134.905 18.7981 135.021 18.7987C135.002 18.8971 135.002 19.0125 134.965 19.0938C134.903 19.2597 134.78 19.3957 134.732 19.5542C134.633 19.8015 134.691 20.0273 134.906 20.1969C135.109 20.3632 135.52 20.4194 135.708 20.2573C135.89 20.1164 136.015 19.935 136.151 19.7568C136.208 19.6819 136.206 19.5771 136.26 19.5128C136.341 19.3988 136.461 19.3084 136.56 19.2116C136.599 19.3505 136.705 19.5332 136.662 19.6357C136.496 19.9895 136.273 20.3028 136.041 20.6827C136.304 20.6937 136.601 20.7037 136.906 20.7276C137.043 20.7347 137.188 20.7906 137.329 20.822C137.274 21.0018 137.276 21.222 137.167 21.3506C137.044 21.4865 136.811 21.5308 136.638 21.605C136.517 21.6605 136.399 21.7054 136.289 21.7641C136.12 21.8627 136.092 21.9928 136.194 22.1861C136.449 22.7148 136.693 23.2403 136.921 23.7836C137.175 24.4278 137.068 25.0424 136.673 25.6152C136.612 25.7007 136.544 25.7723 136.494 25.861C136.353 26.0953 136.42 26.2545 136.697 26.293C136.992 26.3486 137.29 26.3587 137.582 26.4249C138.169 26.5467 138.348 27.0983 137.982 27.576C137.802 27.7868 137.587 27.9984 137.499 28.2489C137.375 28.6157 137.146 28.8347 136.828 29.0034C136.583 29.1249 136.323 29.2188 136.046 29.3306V29.3306Z" fill="#A1ACBC"/>
<path d="M115.879 28.2511C116.357 28.2008 116.835 28.1504 117.313 28.1001C117.809 28.0435 118.302 27.9823 118.792 27.9165C119.144 27.8622 119.137 27.8484 119.197 27.4623C119.024 27.3862 118.843 27.2962 118.62 27.1934C118.723 27.1209 118.767 27.0533 118.823 27.0589C119.128 27.0828 119.284 26.8761 119.45 26.6727C120.055 25.9792 120.826 25.8796 121.645 26.153C122.484 26.4329 123.27 26.2455 124.011 25.9054C124.505 25.6867 124.774 25.2255 124.735 24.6704C124.705 24.3144 124.602 23.9708 124.561 23.6116C124.529 23.3012 124.542 22.9931 124.538 22.668C124 22.8388 123.639 22.5435 123.354 22.075C123.549 22.0422 123.736 22.0107 123.915 21.9806C123.996 21.6009 123.8 21.4484 123.503 21.3229C122.859 21.0452 122.211 20.7431 121.786 20.1277C121.554 19.7907 121.36 19.4424 121.359 18.9913C121.51 19.1414 121.65 19.2883 121.787 19.4458C121.845 19.5212 121.872 19.622 121.939 19.6658C122.028 19.716 122.143 19.7166 122.249 19.749C122.26 19.6368 122.31 19.5132 122.276 19.4336C122.141 19.1957 122.02 18.9853 122.373 18.7003C122.453 18.9326 122.542 19.1332 122.596 19.3347C122.658 19.585 122.668 19.854 122.744 20.0969C122.797 20.2285 122.922 20.3477 123.023 20.4711C123.051 20.4564 123.075 20.4407 123.095 20.4238C123.103 20.3222 123.101 20.2174 123.101 20.102C123.433 20.0762 123.529 20.2907 123.616 20.5368C123.68 20.7066 123.669 20.9691 123.917 20.9525C124.176 20.939 124.162 20.6806 124.206 20.4976C124.248 20.3253 124.26 20.1326 124.366 20.0146C124.437 19.9324 124.622 19.9313 124.761 19.8929C124.747 20.0156 124.765 20.183 124.69 20.2408C124.45 20.4566 124.401 20.7306 124.436 20.9955C124.457 21.1523 124.612 21.3268 124.758 21.4176C125.088 21.5878 125.546 21.4505 125.748 21.1307C125.856 20.9672 125.928 20.7696 126.036 20.606C126.096 20.5206 126.211 20.4863 126.308 20.4349C126.345 20.5389 126.428 20.6452 126.41 20.7436C126.377 21.1151 126.157 21.3829 125.872 21.5963C125.793 21.6647 125.71 21.7087 125.622 21.8438C126.06 21.9005 126.493 21.9597 126.921 22.0213C127.032 22.3787 126.878 22.6553 126.493 22.7803C126.302 22.8375 126.111 22.8947 125.92 22.9519C125.698 23.0343 125.621 23.1726 125.732 23.4147C125.902 23.7671 126.055 24.1375 126.197 24.5047C126.454 25.1382 126.488 25.7843 126.203 26.4139C126.097 26.6473 125.906 26.8549 125.741 27.0933C125.791 27.12 125.848 27.1606 125.926 27.2076C125.828 27.224 125.769 27.229 125.706 27.2445C125.693 27.2635 125.678 27.286 125.663 27.312C125.759 27.3761 125.845 27.4719 125.954 27.4936C126.282 27.5939 126.637 27.6445 126.958 27.7659C127.319 27.9108 127.425 28.2439 127.252 28.6189C127.189 28.7498 127.087 28.8573 126.992 28.9785C126.81 29.2348 126.606 29.4847 126.431 29.7548C126.266 30.0282 125.405 30.5392 125.109 30.4836C125.064 30.4812 125.01 30.4301 124.991 30.3781C124.922 30.1141 125.187 29.8137 125.471 29.8311C125.527 29.8367 125.59 29.8561 125.642 29.8374C126.022 29.7685 126.717 28.8944 126.68 28.5247C126.674 28.4304 126.538 28.3079 126.45 28.2926C126.309 28.2611 126.164 28.3207 126.01 28.3315C125.815 28.3643 125.61 28.4289 125.424 28.395C124.808 28.253 124.212 28.3482 123.598 28.4264C123.141 28.4833 122.65 28.4255 122.18 28.3743C121.664 28.3206 121.254 28.4148 120.89 28.812C120.409 29.324 119.733 29.4178 119.101 29.3286C118.616 29.2497 118.354 29.424 118.104 29.752C117.707 30.2549 117.169 30.576 116.584 30.8249C116.469 30.8744 116.354 30.9239 116.238 30.9734C116.096 30.4559 116.293 30.2271 116.744 30.2264C116.86 30.227 116.991 30.1748 117.084 30.0991C117.526 29.7489 117.795 29.2876 117.941 28.7314C118.067 28.2842 118.077 28.2874 118.518 28.4338C118.772 28.5114 118.906 28.4137 119.034 28.0713C118.088 28.1403 117.138 28.2199 116.181 28.2856C116.083 28.302 115.981 28.2591 115.872 28.2373L115.879 28.2511V28.2511Z" fill="#A1ACBC"/>
<path d="M48.6698 55.8033C49.6564 55.9383 51.2213 56.0733 53.2626 56.0733C57.0048 56.0733 59.5904 55.3983 61.1553 53.947C62.346 52.8669 63.1285 51.3481 63.1285 49.3906C63.1285 46.0154 60.577 44.2266 58.3996 43.7204V43.6191C60.7811 42.7753 62.278 40.8515 62.278 38.6239C62.278 36.8351 61.5295 35.4851 60.3388 34.6076C58.944 33.46 57.0388 32.9538 54.079 32.9538C52.0378 32.9538 49.9626 33.1563 48.6698 33.46V55.8033ZM51.6296 35.4176C52.1059 35.3163 52.8883 35.2151 54.2492 35.2151C57.243 35.2151 59.2502 36.2951 59.2502 38.9277C59.2502 41.1215 57.4131 42.7753 54.3172 42.7753H51.6296V35.4176ZM51.6296 44.9692H54.079C57.311 44.9692 59.9986 46.2855 59.9986 49.3568C59.9986 52.6644 57.1749 53.7782 54.1131 53.7782C53.0584 53.7782 52.2419 53.7445 51.6296 53.6432V44.9692Z" fill="#5B5B5B"/>
<path d="M67.0066 55.8708H70.0003V31.9075H67.0066V55.8708Z" fill="#5B5B5B"/>
<path d="M78.0403 55.8708V39.5352H75.0465V55.8708H78.0403ZM76.5434 33.0888C75.4208 33.0888 74.6723 33.9325 74.6723 34.9451C74.6723 35.9576 75.3867 36.7676 76.4754 36.7676C77.6661 36.7676 78.3805 35.9576 78.3805 34.9451C78.3805 33.8988 77.6321 33.0888 76.5434 33.0888Z" fill="#5B5B5B"/>
<path d="M81.8974 55.0945C83.0541 55.7695 84.7211 56.242 86.5242 56.242C90.3685 56.242 92.6479 54.217 92.6479 51.3144C92.6479 48.8843 91.151 47.4667 88.3273 46.4205C86.184 45.5767 85.2314 44.9692 85.2314 43.6191C85.2314 42.4041 86.184 41.3915 87.953 41.3915C89.484 41.3915 90.6747 41.9653 91.3211 42.3703L92.0355 40.2103C91.151 39.6365 89.6881 39.1977 88.0211 39.1977C84.517 39.1977 82.3397 41.3578 82.3397 43.9904C82.3397 45.9479 83.7345 47.5342 86.7283 48.6143C88.9056 49.4243 89.7561 50.1668 89.7561 51.5844C89.7561 52.9682 88.7355 54.0145 86.5922 54.0145C85.0953 54.0145 83.5304 53.4069 82.6118 52.8669L81.8974 55.0945Z" fill="#5B5B5B"/>
<path d="M95.386 55.0945C96.5427 55.7695 98.2097 56.242 100.013 56.242C103.857 56.242 106.136 54.217 106.136 51.3144C106.136 48.8843 104.64 47.4667 101.816 46.4205C99.6725 45.5767 98.72 44.9692 98.72 43.6191C98.72 42.4041 99.6725 41.3915 101.442 41.3915C102.973 41.3915 104.163 41.9653 104.81 42.3703L105.524 40.2103C104.64 39.6365 103.177 39.1977 101.51 39.1977C98.0055 39.1977 95.8282 41.3578 95.8282 43.9904C95.8282 45.9479 97.2231 47.5342 100.217 48.6143C102.394 49.4243 103.245 50.1668 103.245 51.5844C103.245 52.9682 102.224 54.0145 100.081 54.0145C98.5839 54.0145 97.019 53.4069 96.1004 52.8669L95.386 55.0945Z" fill="#5B5B5B"/>
<path d="M107.956 39.5352L114.216 55.8708H117.073L123.537 39.5352H120.407L117.21 48.6818C116.665 50.2006 116.189 51.5506 115.815 52.9007H115.713C115.372 51.5506 114.93 50.2006 114.386 48.6818L111.154 39.5352H107.956Z" fill="#5B5B5B"/>
<path d="M129.37 55.8708V39.5352H126.376V55.8708H129.37ZM127.873 33.0888C126.75 33.0888 126.002 33.9325 126.002 34.9451C126.002 35.9576 126.716 36.7676 127.805 36.7676C128.996 36.7676 129.71 35.9576 129.71 34.9451C129.71 33.8988 128.962 33.0888 127.873 33.0888Z" fill="#5B5B5B"/>
<path d="M134.35 55.8708H137.344V31.9075H134.35V55.8708Z" fill="#5B5B5B"/>
<path d="M142.39 55.8708H145.384V31.9075H142.39V55.8708Z" fill="#5B5B5B"/>
<path d="M163.664 48.243C163.732 47.9055 163.766 47.4667 163.766 46.8592C163.766 43.8554 162.371 39.1977 156.962 39.1977C152.165 39.1977 149.239 43.0453 149.239 47.973C149.239 52.9007 152.267 56.242 157.336 56.242C159.955 56.242 161.793 55.6683 162.847 55.1958L162.303 53.0694C161.214 53.5419 159.887 53.9132 157.744 53.9132C154.716 53.9132 152.165 52.2594 152.097 48.243H163.664ZM152.131 46.1167C152.369 44.0579 153.662 41.324 156.723 41.324C160.092 41.324 160.908 44.2604 160.874 46.1167H152.131Z" fill="#5B5B5B"/>
<path d="M42.3833 52.3266C42.5823 52.3466 42.8179 52.4856 42.8004 52.5352C41.9826 54.8414 41.326 57.2279 40.267 59.4208C38.1168 63.8735 34.9873 67.5855 30.8207 70.3128C26.9743 72.8307 22.685 73.9997 18.0878 74C17.495 74.0001 16.8955 73.833 16.3106 73.6951C14.4588 73.2584 13.9513 72.2207 14.3987 70.3385C15.6511 65.0703 19.5666 62.6142 24.263 61.0929C26.589 60.3394 29.0384 59.9653 31.5784 59.3862C29.0645 59.2411 23.8091 60.0543 20.5104 61.801C16.4916 63.9292 15.1469 64.7618 13.0009 69.798C11.4448 69.2484 10.8314 68.5326 10.9014 67.0153C11.0708 63.3396 12.7224 60.4751 15.8978 58.576C19.2483 56.5722 22.9407 55.7273 26.8137 55.4737C30.5643 55.228 34.3326 55.0376 38.0416 54.4813C39.5324 54.2577 40.8859 53.1236 42.3833 52.3266Z" fill="#009e45"/>
<path fill-rule="evenodd" clip-rule="evenodd" d="M23.8881 29.086C24.2086 28.7153 24.5722 28.3875 24.91 28.0828C25.2133 27.8094 25.496 27.5545 25.7083 27.304C31.6937 29.7589 36.3372 33.3753 39.6353 38.6188C41.5637 41.6845 42.7719 45.0233 43.3814 48.5818C43.5882 49.7894 42.5247 50.2165 41.8042 50.4985L41.6953 50.5411C39.7776 51.2919 37.803 52.0649 35.7856 52.3307C34.1957 52.5401 32.583 52.5645 30.969 52.5888C29.7099 52.6079 28.45 52.6269 27.1995 52.7338C22.3014 53.1525 17.3906 53.7526 13.2471 56.71C12.2233 57.4408 11.358 58.3926 10.5219 59.3123L10.5216 59.3127C10.1488 59.7228 9.78176 60.1265 9.40908 60.5013V51.4219H0.318676C-0.256527 51.4219 0.122576 50.9573 0.122576 50.9573C0.395169 50.6842 0.664703 50.4078 0.934236 50.1313C1.52339 49.5271 2.11255 48.9228 2.73364 48.3532C4.0071 47.1854 5.28733 46.0249 6.56755 44.8644C8.12271 43.4546 9.67787 42.0449 11.2209 40.622C11.4282 40.4308 11.4906 40.0035 11.494 39.6847C11.5114 38.0603 11.5094 36.4358 11.5074 34.7579V34.7566C11.5067 34.2068 11.5061 33.6512 11.5061 33.0881C11.5061 33.0402 11.5056 32.9927 11.5052 32.9458C10.8218 32.9453 10.2679 32.3925 10.2679 31.7107C10.2679 31.0285 10.8222 30.4755 11.5061 30.4755H17.3876C18.0715 30.4755 18.6258 31.0285 18.6258 31.7107C18.6258 32.3702 18.1076 32.909 17.4552 32.944C17.4623 32.9823 17.4634 33.0212 17.4576 33.0607C17.3728 33.6388 17.2975 35.3556 17.2975 35.3556C17.2975 35.3556 21.5618 31.2019 23.8881 29.086ZM24.5073 38.1952H27.6029V40.6655H24.5073V38.1952ZM28.8411 38.1952H31.9366V40.6655H28.8411V38.1952ZM28.8411 41.9006H31.9366V44.3709H28.8411V41.9006ZM24.5073 41.9006H27.6029V44.3709H24.5073V41.9006Z" fill="#1f4e9f"/>
<line x1="26" y1="29.3889" x2="26" y2="19.6908" stroke="#1f4e9f" stroke-width="2"/>
<path d="M26.7742 13.2204L27.9494 15.6132C28.0343 15.769 28.1901 15.8823 28.3741 15.9106L31.0077 16.2929C31.4749 16.3636 31.659 16.93 31.3191 17.2556L29.4077 19.1104C29.2803 19.2379 29.2237 19.4361 29.252 19.606L29.7051 22.2395C29.7759 22.6926 29.2945 23.0465 28.8839 22.8342L26.5335 21.5882C26.3636 21.5032 26.1654 21.5032 26.0096 21.5882L23.6451 22.8342C23.2345 23.0465 22.7532 22.6926 22.8381 22.2395L23.277 19.606C23.3195 19.4361 23.2487 19.2379 23.1213 19.1104L21.2099 17.2556C20.8842 16.93 21.0683 16.3636 21.5213 16.2929L24.1549 15.9106C24.3389 15.8823 24.4947 15.769 24.5796 15.6132L25.7689 13.2204C25.9672 12.7957 26.5618 12.7957 26.7742 13.2204V13.2204Z" fill="#1f4e9f"/>
<path d="M26.5595 15.1472L27.2532 16.5489C27.3099 16.648 27.3948 16.7188 27.5081 16.733L29.0514 16.9595C29.3346 17.002 29.4337 17.3276 29.2355 17.5259L28.1169 18.6161C28.032 18.6869 28.0036 18.8001 28.0178 18.9134L28.2868 20.4567C28.3293 20.7257 28.0461 20.9381 27.8054 20.8107L26.4179 20.0744C26.3188 20.0178 26.2055 20.0178 26.1064 20.0744L24.7188 20.8107C24.4781 20.9381 24.195 20.7257 24.2374 20.4567L24.5065 18.9134C24.5206 18.8001 24.4923 18.6869 24.4073 18.6161L23.2888 17.5259C23.0906 17.3276 23.2039 17.002 23.4729 16.9595L25.0303 16.733C25.1294 16.7188 25.2286 16.648 25.271 16.5489L25.9648 15.1472C26.0922 14.8923 26.432 14.8923 26.5595 15.1472V15.1472Z" fill="#7090C8"/>
<path d="M26.3926 16.7046L26.704 17.3134C26.7182 17.3559 26.7607 17.3842 26.8032 17.3984L27.4828 17.4833C27.6102 17.5116 27.6527 17.6532 27.5677 17.7382L27.0722 18.2196C27.0439 18.2479 27.0297 18.2904 27.0297 18.347L27.143 19.0124C27.1713 19.1399 27.0439 19.2248 26.9447 19.1682L26.3359 18.8425C26.2934 18.8284 26.2368 18.8284 26.1943 18.8425L25.5997 19.1682C25.4864 19.2248 25.359 19.1399 25.3873 19.0124L25.5006 18.347C25.5147 18.2904 25.4864 18.2479 25.4581 18.2196L24.9625 17.7382C24.8776 17.6532 24.9342 17.5116 25.0475 17.4833L25.7271 17.3984C25.7696 17.3842 25.8121 17.3559 25.8404 17.3134L26.1377 16.7046C26.1943 16.5913 26.3501 16.5913 26.3926 16.7046V16.7046Z" fill="#8CA6D3"/>
</svg>
