<svg width="492" height="175" viewBox="0 0 492 175" fill="none" xmlns="http://www.w3.org/2000/svg">
<path d="M149.774 132.795V154.636H146.01V132.795H149.774ZM158.682 142.351V145.336H148.814V142.351H158.682ZM159.926 132.795V135.795H148.814V132.795H159.926Z" fill="#929CA5"/>
<path d="M171.999 150.811V138.405H175.628V154.636H172.208L171.999 150.811ZM172.508 147.436L173.723 147.406C173.723 148.496 173.603 149.501 173.363 150.421C173.123 151.331 172.753 152.126 172.253 152.806C171.754 153.476 171.114 154.001 170.334 154.381C169.554 154.751 168.619 154.936 167.53 154.936C166.74 154.936 166.015 154.821 165.355 154.591C164.695 154.361 164.125 154.006 163.646 153.526C163.176 153.046 162.811 152.421 162.551 151.651C162.291 150.881 162.161 149.961 162.161 148.891V138.405H165.775V148.921C165.775 149.511 165.845 150.006 165.985 150.406C166.125 150.796 166.315 151.111 166.555 151.351C166.795 151.591 167.075 151.761 167.395 151.861C167.715 151.961 168.054 152.011 168.414 152.011C169.444 152.011 170.254 151.811 170.844 151.411C171.444 151.001 171.869 150.451 172.118 149.761C172.378 149.071 172.508 148.296 172.508 147.436Z" fill="#929CA5"/>
<path d="M186.77 138.405V141.046H177.622V138.405H186.77ZM180.262 134.43H183.876V150.151C183.876 150.651 183.946 151.036 184.086 151.306C184.236 151.566 184.441 151.741 184.7 151.831C184.96 151.921 185.265 151.966 185.615 151.966C185.865 151.966 186.105 151.951 186.335 151.921C186.565 151.891 186.75 151.861 186.89 151.831L186.905 154.591C186.605 154.681 186.255 154.761 185.855 154.831C185.465 154.901 185.015 154.936 184.506 154.936C183.676 154.936 182.941 154.791 182.301 154.501C181.661 154.201 181.161 153.716 180.801 153.046C180.441 152.376 180.262 151.486 180.262 150.376V134.43Z" fill="#929CA5"/>
<path d="M199.322 150.811V138.405H202.951V154.636H199.532L199.322 150.811ZM199.832 147.436L201.047 147.406C201.047 148.496 200.927 149.501 200.687 150.421C200.447 151.331 200.077 152.126 199.577 152.806C199.077 153.476 198.437 154.001 197.657 154.381C196.878 154.751 195.943 154.936 194.853 154.936C194.063 154.936 193.338 154.821 192.679 154.591C192.019 154.361 191.449 154.006 190.969 153.526C190.499 153.046 190.134 152.421 189.874 151.651C189.614 150.881 189.484 149.961 189.484 148.891V138.405H193.098V148.921C193.098 149.511 193.168 150.006 193.308 150.406C193.448 150.796 193.638 151.111 193.878 151.351C194.118 151.591 194.398 151.761 194.718 151.861C195.038 151.961 195.378 152.011 195.738 152.011C196.768 152.011 197.577 151.811 198.167 151.411C198.767 151.001 199.192 150.451 199.442 149.761C199.702 149.071 199.832 148.296 199.832 147.436Z" fill="#929CA5"/>
<path d="M210.284 141.496V154.636H206.67V138.405H210.119L210.284 141.496ZM215.248 138.3L215.218 141.661C214.998 141.621 214.758 141.591 214.498 141.571C214.248 141.551 213.998 141.541 213.749 141.541C213.129 141.541 212.584 141.631 212.114 141.811C211.644 141.981 211.249 142.231 210.929 142.561C210.619 142.881 210.379 143.271 210.209 143.731C210.039 144.191 209.939 144.706 209.909 145.276L209.085 145.336C209.085 144.316 209.185 143.371 209.385 142.501C209.585 141.631 209.884 140.866 210.284 140.206C210.694 139.546 211.204 139.03 211.814 138.66C212.434 138.29 213.149 138.105 213.958 138.105C214.178 138.105 214.413 138.125 214.663 138.165C214.923 138.205 215.118 138.25 215.248 138.3Z" fill="#929CA5"/>
<path d="M224.366 154.936C223.166 154.936 222.082 154.741 221.112 154.351C220.152 153.951 219.332 153.396 218.652 152.686C217.982 151.976 217.468 151.141 217.108 150.181C216.748 149.221 216.568 148.186 216.568 147.076V146.476C216.568 145.206 216.753 144.056 217.123 143.026C217.493 141.996 218.007 141.116 218.667 140.386C219.327 139.646 220.107 139.08 221.007 138.69C221.907 138.3 222.881 138.105 223.931 138.105C225.091 138.105 226.106 138.3 226.975 138.69C227.845 139.08 228.565 139.631 229.135 140.341C229.715 141.041 230.145 141.876 230.424 142.846C230.714 143.816 230.859 144.886 230.859 146.056V147.601H218.322V145.006H227.29V144.721C227.27 144.071 227.14 143.461 226.9 142.891C226.67 142.321 226.315 141.861 225.836 141.511C225.356 141.161 224.716 140.986 223.916 140.986C223.316 140.986 222.781 141.116 222.311 141.376C221.852 141.626 221.467 141.991 221.157 142.471C220.847 142.951 220.607 143.531 220.437 144.211C220.277 144.881 220.197 145.636 220.197 146.476V147.076C220.197 147.786 220.292 148.446 220.482 149.056C220.682 149.656 220.972 150.181 221.352 150.631C221.732 151.081 222.191 151.436 222.731 151.696C223.271 151.946 223.886 152.071 224.576 152.071C225.446 152.071 226.221 151.896 226.9 151.546C227.58 151.196 228.17 150.701 228.67 150.061L230.574 151.906C230.225 152.416 229.77 152.906 229.21 153.376C228.65 153.836 227.965 154.211 227.155 154.501C226.355 154.791 225.426 154.936 224.366 154.936Z" fill="#929CA5"/>
<path d="M241.687 132.795H249.41C251.07 132.795 252.484 133.045 253.654 133.545C254.824 134.045 255.718 134.785 256.338 135.765C256.968 136.735 257.283 137.935 257.283 139.366C257.283 140.456 257.083 141.416 256.683 142.246C256.283 143.076 255.718 143.776 254.989 144.346C254.259 144.906 253.389 145.341 252.379 145.651L251.24 146.206H244.296L244.266 143.221H249.47C250.37 143.221 251.12 143.061 251.719 142.741C252.319 142.421 252.769 141.986 253.069 141.436C253.379 140.876 253.534 140.246 253.534 139.546C253.534 138.785 253.384 138.125 253.084 137.565C252.794 136.995 252.344 136.56 251.734 136.26C251.125 135.95 250.35 135.795 249.41 135.795H245.451V154.636H241.687V132.795ZM254.149 154.636L249.02 144.826L252.964 144.811L258.168 154.441V154.636H254.149Z" fill="#929CA5"/>
<path d="M267.826 154.936C266.626 154.936 265.541 154.741 264.571 154.351C263.612 153.951 262.792 153.396 262.112 152.686C261.442 151.976 260.927 151.141 260.567 150.181C260.207 149.221 260.027 148.186 260.027 147.076V146.476C260.027 145.206 260.212 144.056 260.582 143.026C260.952 141.996 261.467 141.116 262.127 140.386C262.787 139.646 263.567 139.08 264.466 138.69C265.366 138.3 266.341 138.105 267.391 138.105C268.55 138.105 269.565 138.3 270.435 138.69C271.305 139.08 272.025 139.631 272.594 140.341C273.174 141.041 273.604 141.876 273.884 142.846C274.174 143.816 274.319 144.886 274.319 146.056V147.601H261.782V145.006H270.75V144.721C270.73 144.071 270.6 143.461 270.36 142.891C270.13 142.321 269.775 141.861 269.295 141.511C268.815 141.161 268.175 140.986 267.376 140.986C266.776 140.986 266.241 141.116 265.771 141.376C265.311 141.626 264.926 141.991 264.616 142.471C264.306 142.951 264.066 143.531 263.896 144.211C263.737 144.881 263.657 145.636 263.657 146.476V147.076C263.657 147.786 263.751 148.446 263.941 149.056C264.141 149.656 264.431 150.181 264.811 150.631C265.191 151.081 265.651 151.436 266.191 151.696C266.731 151.946 267.346 152.071 268.035 152.071C268.905 152.071 269.68 151.896 270.36 151.546C271.04 151.196 271.63 150.701 272.129 150.061L274.034 151.906C273.684 152.416 273.229 152.906 272.669 153.376C272.109 153.836 271.425 154.211 270.615 154.501C269.815 154.791 268.885 154.936 267.826 154.936Z" fill="#929CA5"/>
<path d="M286.286 151.381V143.641C286.286 143.061 286.181 142.561 285.971 142.141C285.761 141.721 285.441 141.396 285.011 141.166C284.591 140.936 284.062 140.821 283.422 140.821C282.832 140.821 282.322 140.921 281.892 141.121C281.462 141.321 281.127 141.591 280.887 141.931C280.647 142.271 280.527 142.656 280.527 143.086H276.928C276.928 142.446 277.083 141.826 277.393 141.226C277.703 140.626 278.153 140.091 278.743 139.621C279.333 139.15 280.038 138.78 280.857 138.51C281.677 138.24 282.597 138.105 283.617 138.105C284.836 138.105 285.916 138.31 286.856 138.72C287.806 139.13 288.551 139.751 289.09 140.581C289.64 141.401 289.915 142.431 289.915 143.671V150.886C289.915 151.626 289.965 152.291 290.065 152.881C290.175 153.461 290.33 153.966 290.53 154.396V154.636H286.826C286.656 154.246 286.521 153.751 286.421 153.151C286.331 152.541 286.286 151.951 286.286 151.381ZM286.811 144.766L286.841 147.001H284.247C283.577 147.001 282.987 147.066 282.477 147.196C281.967 147.316 281.542 147.496 281.202 147.736C280.862 147.976 280.607 148.266 280.437 148.606C280.268 148.946 280.183 149.331 280.183 149.761C280.183 150.191 280.283 150.586 280.482 150.946C280.682 151.296 280.972 151.571 281.352 151.771C281.742 151.971 282.212 152.071 282.762 152.071C283.502 152.071 284.147 151.921 284.696 151.621C285.256 151.311 285.696 150.936 286.016 150.496C286.336 150.046 286.506 149.621 286.526 149.221L287.696 150.826C287.576 151.236 287.371 151.676 287.081 152.146C286.791 152.616 286.411 153.066 285.941 153.496C285.481 153.916 284.926 154.261 284.277 154.531C283.637 154.801 282.897 154.936 282.057 154.936C280.997 154.936 280.053 154.726 279.223 154.306C278.393 153.876 277.743 153.301 277.273 152.581C276.803 151.851 276.568 151.026 276.568 150.106C276.568 149.246 276.728 148.486 277.048 147.826C277.378 147.156 277.858 146.596 278.488 146.146C279.128 145.696 279.908 145.356 280.827 145.126C281.747 144.886 282.797 144.766 283.977 144.766H286.811Z" fill="#929CA5"/>
<path d="M303.592 151.276V131.595H307.221V154.636H303.937L303.592 151.276ZM293.034 146.701V146.386C293.034 145.156 293.179 144.036 293.469 143.026C293.759 142.006 294.179 141.131 294.729 140.401C295.279 139.661 295.949 139.095 296.739 138.705C297.528 138.305 298.418 138.105 299.408 138.105C300.388 138.105 301.247 138.295 301.987 138.675C302.727 139.055 303.357 139.601 303.877 140.311C304.397 141.011 304.812 141.851 305.122 142.831C305.431 143.801 305.651 144.881 305.781 146.071V147.076C305.651 148.236 305.431 149.296 305.122 150.256C304.812 151.216 304.397 152.046 303.877 152.746C303.357 153.446 302.722 153.986 301.972 154.366C301.232 154.746 300.368 154.936 299.378 154.936C298.398 154.936 297.513 154.731 296.724 154.321C295.944 153.911 295.279 153.336 294.729 152.596C294.179 151.856 293.759 150.986 293.469 149.986C293.179 148.976 293.034 147.881 293.034 146.701ZM296.649 146.386V146.701C296.649 147.441 296.714 148.131 296.844 148.771C296.984 149.411 297.198 149.976 297.488 150.466C297.778 150.946 298.153 151.326 298.613 151.606C299.083 151.876 299.643 152.011 300.293 152.011C301.113 152.011 301.787 151.831 302.317 151.471C302.847 151.111 303.262 150.626 303.562 150.016C303.872 149.396 304.082 148.706 304.192 147.946V145.231C304.132 144.641 304.007 144.091 303.817 143.581C303.637 143.071 303.392 142.626 303.082 142.246C302.772 141.856 302.387 141.556 301.927 141.346C301.477 141.126 300.943 141.016 300.323 141.016C299.663 141.016 299.103 141.156 298.643 141.436C298.183 141.716 297.803 142.101 297.503 142.591C297.213 143.081 296.999 143.651 296.859 144.301C296.719 144.951 296.649 145.646 296.649 146.386Z" fill="#929CA5"/>
<path d="M315.709 152.866L320.118 138.405H323.987L317.479 157.111C317.329 157.511 317.134 157.946 316.894 158.416C316.654 158.886 316.339 159.331 315.949 159.751C315.569 160.181 315.094 160.526 314.524 160.786C313.954 161.056 313.265 161.191 312.455 161.191C312.135 161.191 311.825 161.161 311.525 161.101C311.235 161.051 310.96 160.996 310.7 160.936L310.685 158.176C310.785 158.186 310.905 158.196 311.045 158.206C311.195 158.216 311.315 158.221 311.405 158.221C312.005 158.221 312.505 158.146 312.905 157.996C313.305 157.856 313.63 157.626 313.879 157.306C314.139 156.986 314.359 156.556 314.539 156.016L315.709 152.866ZM313.22 138.405L317.074 150.556L317.719 154.366L315.214 155.011L309.321 138.405H313.22Z" fill="#929CA5"/>
<path d="M334.065 132.795H341.788C343.447 132.795 344.862 133.045 346.032 133.545C347.201 134.045 348.096 134.785 348.716 135.765C349.346 136.735 349.661 137.935 349.661 139.366C349.661 140.456 349.461 141.416 349.061 142.246C348.661 143.076 348.096 143.776 347.366 144.346C346.637 144.906 345.767 145.341 344.757 145.651L343.617 146.206H336.674L336.644 143.221H341.848C342.748 143.221 343.497 143.061 344.097 142.741C344.697 142.421 345.147 141.986 345.447 141.436C345.757 140.876 345.912 140.246 345.912 139.546C345.912 138.785 345.762 138.125 345.462 137.565C345.172 136.995 344.722 136.56 344.112 136.26C343.502 135.95 342.728 135.795 341.788 135.795H337.829V154.636H334.065V132.795ZM346.527 154.636L341.398 144.826L345.342 144.811L350.546 154.441V154.636H346.527Z" fill="#929CA5"/>
<path d="M360.203 154.936C359.004 154.936 357.919 154.741 356.949 154.351C355.989 153.951 355.17 153.396 354.49 152.686C353.82 151.976 353.305 151.141 352.945 150.181C352.585 149.221 352.405 148.186 352.405 147.076V146.476C352.405 145.206 352.59 144.056 352.96 143.026C353.33 141.996 353.845 141.116 354.505 140.386C355.165 139.646 355.944 139.08 356.844 138.69C357.744 138.3 358.719 138.105 359.768 138.105C360.928 138.105 361.943 138.3 362.813 138.69C363.683 139.08 364.402 139.631 364.972 140.341C365.552 141.041 365.982 141.876 366.262 142.846C366.552 143.816 366.697 144.886 366.697 146.056V147.601H354.16V145.006H363.128V144.721C363.108 144.071 362.978 143.461 362.738 142.891C362.508 142.321 362.153 141.861 361.673 141.511C361.193 141.161 360.553 140.986 359.753 140.986C359.154 140.986 358.619 141.116 358.149 141.376C357.689 141.626 357.304 141.991 356.994 142.471C356.684 142.951 356.444 143.531 356.274 144.211C356.114 144.881 356.034 145.636 356.034 146.476V147.076C356.034 147.786 356.129 148.446 356.319 149.056C356.519 149.656 356.809 150.181 357.189 150.631C357.569 151.081 358.029 151.436 358.569 151.696C359.109 151.946 359.723 152.071 360.413 152.071C361.283 152.071 362.058 151.896 362.738 151.546C363.418 151.196 364.007 150.701 364.507 150.061L366.412 151.906C366.062 152.416 365.607 152.906 365.047 153.376C364.487 153.836 363.802 154.211 362.993 154.501C362.193 154.791 361.263 154.936 360.203 154.936Z" fill="#929CA5"/>
<path d="M378.664 151.381V143.641C378.664 143.061 378.559 142.561 378.349 142.141C378.139 141.721 377.819 141.396 377.389 141.166C376.969 140.936 376.439 140.821 375.8 140.821C375.21 140.821 374.7 140.921 374.27 141.121C373.84 141.321 373.505 141.591 373.265 141.931C373.025 142.271 372.905 142.656 372.905 143.086H369.306C369.306 142.446 369.461 141.826 369.771 141.226C370.081 140.626 370.531 140.091 371.121 139.621C371.711 139.15 372.415 138.78 373.235 138.51C374.055 138.24 374.975 138.105 375.995 138.105C377.214 138.105 378.294 138.31 379.234 138.72C380.184 139.13 380.928 139.751 381.468 140.581C382.018 141.401 382.293 142.431 382.293 143.671V150.886C382.293 151.626 382.343 152.291 382.443 152.881C382.553 153.461 382.708 153.966 382.908 154.396V154.636H379.204C379.034 154.246 378.899 153.751 378.799 153.151C378.709 152.541 378.664 151.951 378.664 151.381ZM379.189 144.766L379.219 147.001H376.624C375.955 147.001 375.365 147.066 374.855 147.196C374.345 147.316 373.92 147.496 373.58 147.736C373.24 147.976 372.985 148.266 372.815 148.606C372.645 148.946 372.56 149.331 372.56 149.761C372.56 150.191 372.66 150.586 372.86 150.946C373.06 151.296 373.35 151.571 373.73 151.771C374.12 151.971 374.59 152.071 375.14 152.071C375.88 152.071 376.524 151.921 377.074 151.621C377.634 151.311 378.074 150.936 378.394 150.496C378.714 150.046 378.884 149.621 378.904 149.221L380.074 150.826C379.954 151.236 379.749 151.676 379.459 152.146C379.169 152.616 378.789 153.066 378.319 153.496C377.859 153.916 377.304 154.261 376.654 154.531C376.015 154.801 375.275 154.936 374.435 154.936C373.375 154.936 372.43 154.726 371.601 154.306C370.771 153.876 370.121 153.301 369.651 152.581C369.181 151.851 368.946 151.026 368.946 150.106C368.946 149.246 369.106 148.486 369.426 147.826C369.756 147.156 370.236 146.596 370.866 146.146C371.506 145.696 372.285 145.356 373.205 145.126C374.125 144.886 375.175 144.766 376.354 144.766H379.189Z" fill="#929CA5"/>
<path d="M389.941 131.595V154.636H386.312V131.595H389.941Z" fill="#929CA5"/>
<path d="M416.2 151.651V154.636H404.608V151.651H416.2ZM405.672 132.795V154.636H401.908V132.795H405.672ZM414.685 141.916V144.856H404.608V141.916H414.685ZM416.125 132.795V135.795H404.608V132.795H416.125Z" fill="#929CA5"/>
<path d="M428.017 150.241C428.017 149.881 427.927 149.556 427.747 149.266C427.567 148.966 427.222 148.696 426.712 148.456C426.212 148.216 425.473 147.996 424.493 147.796C423.633 147.606 422.843 147.381 422.123 147.121C421.414 146.851 420.804 146.526 420.294 146.146C419.784 145.766 419.389 145.316 419.109 144.796C418.829 144.276 418.689 143.676 418.689 142.996C418.689 142.336 418.834 141.711 419.124 141.121C419.414 140.531 419.829 140.011 420.369 139.561C420.909 139.11 421.564 138.755 422.333 138.495C423.113 138.235 423.983 138.105 424.943 138.105C426.302 138.105 427.467 138.335 428.437 138.795C429.417 139.245 430.167 139.861 430.686 140.641C431.206 141.411 431.466 142.281 431.466 143.251H427.852C427.852 142.821 427.742 142.421 427.522 142.051C427.312 141.671 426.992 141.366 426.562 141.136C426.133 140.896 425.593 140.776 424.943 140.776C424.323 140.776 423.808 140.876 423.398 141.076C422.998 141.266 422.698 141.516 422.498 141.826C422.308 142.136 422.213 142.476 422.213 142.846C422.213 143.116 422.263 143.361 422.363 143.581C422.473 143.791 422.653 143.986 422.903 144.166C423.153 144.336 423.493 144.496 423.923 144.646C424.363 144.796 424.913 144.941 425.573 145.081C426.812 145.341 427.877 145.676 428.767 146.086C429.667 146.486 430.356 147.006 430.836 147.646C431.316 148.276 431.556 149.076 431.556 150.046C431.556 150.766 431.401 151.426 431.091 152.026C430.791 152.616 430.351 153.131 429.772 153.571C429.192 154.001 428.497 154.336 427.687 154.576C426.887 154.816 425.988 154.936 424.988 154.936C423.518 154.936 422.273 154.676 421.254 154.156C420.234 153.626 419.459 152.951 418.929 152.131C418.409 151.301 418.149 150.441 418.149 149.551H421.644C421.684 150.221 421.869 150.756 422.198 151.156C422.538 151.546 422.958 151.831 423.458 152.011C423.968 152.181 424.493 152.266 425.033 152.266C425.683 152.266 426.227 152.181 426.667 152.011C427.107 151.831 427.442 151.591 427.672 151.291C427.902 150.981 428.017 150.631 428.017 150.241Z" fill="#929CA5"/>
<path d="M442.159 138.405V141.046H433.011V138.405H442.159ZM435.65 134.43H439.264V150.151C439.264 150.651 439.334 151.036 439.474 151.306C439.624 151.566 439.829 151.741 440.089 151.831C440.349 151.921 440.654 151.966 441.004 151.966C441.254 151.966 441.494 151.951 441.724 151.921C441.954 151.891 442.139 151.861 442.279 151.831L442.294 154.591C441.994 154.681 441.644 154.761 441.244 154.831C440.854 154.901 440.404 154.936 439.894 154.936C439.064 154.936 438.33 154.791 437.69 154.501C437.05 154.201 436.55 153.716 436.19 153.046C435.83 152.376 435.65 151.486 435.65 150.376V134.43Z" fill="#929CA5"/>
<path d="M454.096 151.381V143.641C454.096 143.061 453.991 142.561 453.781 142.141C453.571 141.721 453.251 141.396 452.821 141.166C452.401 140.936 451.871 140.821 451.231 140.821C450.642 140.821 450.132 140.921 449.702 141.121C449.272 141.321 448.937 141.591 448.697 141.931C448.457 142.271 448.337 142.656 448.337 143.086H444.738C444.738 142.446 444.893 141.826 445.203 141.226C445.513 140.626 445.963 140.091 446.553 139.621C447.142 139.15 447.847 138.78 448.667 138.51C449.487 138.24 450.407 138.105 451.426 138.105C452.646 138.105 453.726 138.31 454.666 138.72C455.615 139.13 456.36 139.751 456.9 140.581C457.45 141.401 457.725 142.431 457.725 143.671V150.886C457.725 151.626 457.775 152.291 457.875 152.881C457.985 153.461 458.14 153.966 458.34 154.396V154.636H454.636C454.466 154.246 454.331 153.751 454.231 153.151C454.141 152.541 454.096 151.951 454.096 151.381ZM454.621 144.766L454.651 147.001H452.056C451.386 147.001 450.797 147.066 450.287 147.196C449.777 147.316 449.352 147.496 449.012 147.736C448.672 147.976 448.417 148.266 448.247 148.606C448.077 148.946 447.992 149.331 447.992 149.761C447.992 150.191 448.092 150.586 448.292 150.946C448.492 151.296 448.782 151.571 449.162 151.771C449.552 151.971 450.022 152.071 450.572 152.071C451.311 152.071 451.956 151.921 452.506 151.621C453.066 151.311 453.506 150.936 453.826 150.496C454.146 150.046 454.316 149.621 454.336 149.221L455.505 150.826C455.385 151.236 455.181 151.676 454.891 152.146C454.601 152.616 454.221 153.066 453.751 153.496C453.291 153.916 452.736 154.261 452.086 154.531C451.446 154.801 450.707 154.936 449.867 154.936C448.807 154.936 447.862 154.726 447.032 154.306C446.203 153.876 445.553 153.301 445.083 152.581C444.613 151.851 444.378 151.026 444.378 150.106C444.378 149.246 444.538 148.486 444.858 147.826C445.188 147.156 445.668 146.596 446.298 146.146C446.938 145.696 447.717 145.356 448.637 145.126C449.557 144.886 450.607 144.766 451.786 144.766H454.621Z" fill="#929CA5"/>
<path d="M468.942 138.405V141.046H459.794V138.405H468.942ZM462.434 134.43H466.048V150.151C466.048 150.651 466.118 151.036 466.258 151.306C466.408 151.566 466.613 151.741 466.873 151.831C467.133 151.921 467.438 151.966 467.788 151.966C468.037 151.966 468.277 151.951 468.507 151.921C468.737 151.891 468.922 151.861 469.062 151.831L469.077 154.591C468.777 154.681 468.427 154.761 468.027 154.831C467.638 154.901 467.188 154.936 466.678 154.936C465.848 154.936 465.113 154.791 464.473 154.501C463.833 154.201 463.334 153.716 462.974 153.046C462.614 152.376 462.434 151.486 462.434 150.376V134.43Z" fill="#929CA5"/>
<path d="M478.885 154.936C477.685 154.936 476.6 154.741 475.631 154.351C474.671 153.951 473.851 153.396 473.171 152.686C472.501 151.976 471.987 151.141 471.627 150.181C471.267 149.221 471.087 148.186 471.087 147.076V146.476C471.087 145.206 471.272 144.056 471.642 143.026C472.011 141.996 472.526 141.116 473.186 140.386C473.846 139.646 474.626 139.08 475.526 138.69C476.425 138.3 477.4 138.105 478.45 138.105C479.61 138.105 480.624 138.3 481.494 138.69C482.364 139.08 483.084 139.631 483.654 140.341C484.234 141.041 484.663 141.876 484.943 142.846C485.233 143.816 485.378 144.886 485.378 146.056V147.601H472.841V145.006H481.809V144.721C481.789 144.071 481.659 143.461 481.419 142.891C481.189 142.321 480.834 141.861 480.354 141.511C479.875 141.161 479.235 140.986 478.435 140.986C477.835 140.986 477.3 141.116 476.83 141.376C476.37 141.626 475.986 141.991 475.676 142.471C475.366 142.951 475.126 143.531 474.956 144.211C474.796 144.881 474.716 145.636 474.716 146.476V147.076C474.716 147.786 474.811 148.446 475.001 149.056C475.201 149.656 475.491 150.181 475.871 150.631C476.25 151.081 476.71 151.436 477.25 151.696C477.79 151.946 478.405 152.071 479.095 152.071C479.965 152.071 480.739 151.896 481.419 151.546C482.099 151.196 482.689 150.701 483.189 150.061L485.093 151.906C484.743 152.416 484.289 152.906 483.729 153.376C483.169 153.836 482.484 154.211 481.674 154.501C480.874 154.791 479.945 154.936 478.885 154.936Z" fill="#929CA5"/>
<path fill-rule="evenodd" clip-rule="evenodd" d="M347.614 37.7137C347.712 37.8476 347.768 38.0036 347.885 38.0741C348.532 38.3413 349.067 38.7476 348.94 39.5062C348.821 40.233 348.665 41.0866 348.195 41.6019C347.472 42.4906 346.651 43.2454 346.302 44.3871C346.254 44.5456 346.132 44.7165 345.976 44.7728C344.927 45.3305 343.859 45.8711 342.774 46.3946C342.618 46.451 342.418 46.4245 342.198 46.4614C342.015 45.0182 342.36 44.569 343.756 44.5448C343.965 44.5396 344.236 44.4489 344.421 44.2974C345.529 43.2838 346.552 42.2092 346.976 40.709C347.148 40.0333 346.898 39.7143 346.218 39.7836C345.61 39.8407 344.996 40.0343 344.366 40.05C343.359 40.054 342.358 39.9215 341.351 39.9256C340.48 39.9368 339.602 40.0845 338.712 40.1591C337.79 40.2239 336.826 40.3108 335.882 40.3343C334.916 40.3164 333.937 40.2253 332.949 40.1659C331.551 40.0853 330.437 40.4382 329.512 41.6467C329.064 42.2033 328.214 42.6021 327.485 42.8301C326.11 43.2419 324.646 43.4881 323.167 43.1053C322.977 43.0471 322.636 43.2549 322.441 43.438C321.033 44.6375 319.701 45.9296 318.249 47.0462C317.56 47.5984 316.643 47.873 315.793 48.2718C315.394 46.6241 315.861 46.004 317.289 45.9895C317.699 46.0108 318.164 45.737 318.524 45.4657C319.789 44.3957 320.562 43.0022 320.919 41.3777C321.076 40.524 321.402 40.1382 322.386 40.439C323.433 40.7592 324.059 40.1876 324.34 38.8168C323.71 38.8324 323.093 38.9212 322.493 38.8417C319.003 38.3759 315.534 37.8817 312.085 37.3589C311.326 37.2309 310.138 38.3935 310.398 39.1319C310.476 39.3293 310.787 39.5628 311.05 39.6088C311.907 39.8707 312.793 40.0375 313.659 40.2678C315.246 40.7529 315.72 42.4931 314.586 43.7068C313.717 44.6201 312.987 45.6454 312.191 46.5464C311.376 47.5108 309.873 47.8839 308.66 48.4491C308.535 48.5151 308.044 48.1916 308.054 48.1599C308.158 47.7062 308.326 47.2719 308.557 46.857C308.668 46.7179 309.022 46.5832 309.212 46.6414C310.028 46.9254 310.561 46.4295 310.989 45.9363C311.754 45.0256 312.518 44.1149 313.048 43.0631C313.429 42.3822 313.053 42.0243 312.204 42.0769C310.423 42.2261 308.662 42.3118 306.919 41.8831C306.497 41.7887 306.007 41.9162 305.588 41.9267C303.636 41.9542 301.728 42.0646 299.793 41.9238C298.195 41.8167 296.753 41.6532 295.658 43.1911C295.284 43.7355 294.399 44.0197 293.721 44.194C292.228 44.5353 290.721 44.6987 289.21 44.3061C288.947 44.2602 288.606 44.468 288.369 44.6732C287.134 45.6481 286.029 46.7666 284.708 47.6807C283.822 48.3112 282.717 48.6324 281.669 49.1096C281.188 47.5059 281.728 46.8735 283.187 46.8687C283.711 46.8557 284.343 46.4938 284.796 46.1468C285.957 45.1843 286.67 43.8762 287.043 42.4296C287.263 41.5954 287.579 41.2413 288.553 41.5738C289.781 41.9839 290.651 41.0705 290.601 39.5296C288.659 39.5254 286.717 39.5212 284.763 39.4439C282.809 39.3666 280.893 39.1624 278.837 39.1926C279.093 39.375 279.321 39.6526 279.638 39.7497C280.539 40.0945 281.427 40.3661 282.328 40.7109C283.822 41.2717 283.941 43.0418 282.823 44.0872C281.9 44.9494 280.847 45.668 280.215 46.8272C279.984 47.2421 279.287 47.4797 278.778 47.6707C277.861 47.9453 276.951 48.0833 276.022 48.2848C275.959 47.017 276.336 46.5774 277.448 46.5708C277.617 46.5876 277.817 46.6141 277.941 46.548C279.277 45.8119 280.527 45.015 281.258 43.6435C281.47 43.292 281.568 42.6287 281.395 42.4022C281.158 42.1563 280.57 42.1499 280.096 42.1092C278.94 42.0331 277.764 42.0203 276.576 41.9345C275.397 41.8169 274.238 41.6359 273.059 41.5183C271.376 41.3504 269.663 41.2775 268.008 41.0144C266.363 40.7196 264.946 40.7024 263.69 42.0869C263.271 42.5485 262.415 42.7376 261.744 42.7753C260.349 42.7994 258.948 42.614 257.509 42.5553C257.236 42.5411 256.911 42.5807 256.726 42.7322C255.705 43.4604 254.738 44.2398 253.749 44.9778C252.492 45.9112 251.022 46.294 249.527 46.5305C249.261 45.1313 249.925 44.4329 251.129 44.6967C251.414 44.784 251.758 44.6811 252.007 44.549C253.788 43.6025 254.937 42.1157 255.582 40.2323C255.798 39.6394 256.098 39.4536 256.745 39.7208C257.934 40.2577 258.887 39.7515 259.243 38.4732C259.327 38.0829 259.38 37.683 259.504 37.1658C259.259 37.0565 259.025 36.9155 258.759 36.7647C258.545 36.6301 258.318 36.5029 258.077 36.383C258.082 36.292 258.083 36.2115 258.082 36.1416C258.644 35.9668 259.206 35.7919 259.769 35.6171C259.767 35.5472 259.755 35.474 259.732 35.3977C259.344 35.4178 258.924 35.4282 258.515 35.407C256.624 35.3491 254.701 35.2814 252.788 35.1821C252.251 35.122 252.025 35.2955 251.838 35.7932C250.578 38.6676 248.498 40.7021 245.744 42.2183C241.738 44.4266 237.442 45.5405 232.919 45.5795C230.63 45.5735 228.297 45.0335 226.059 44.5226C221.173 43.4796 216.568 41.5168 211.934 39.6492C209.463 38.6511 207.021 37.5578 204.496 36.5085C205.595 35.5265 206.67 35.3004 207.989 35.9811C209.159 36.5814 210.469 36.9475 211.732 37.4721C212.432 37.7904 212.891 37.6531 213.177 36.9431C213.357 36.582 213.559 36.2622 213.78 35.879C213.299 35.5238 212.796 35.1272 212.273 34.794C211.237 34.0959 210.603 33.1045 210.228 31.9493C209.837 30.6162 209.593 29.2584 209.651 27.8197C209.81 25.3714 209.873 22.8939 209.759 20.4314C209.635 18.4517 208.396 17.1711 206.47 16.5476C207.201 15.1761 208.464 14.4523 209.807 14.0307C211.357 13.4991 212.377 14.8166 213.684 15.4241C213.417 14.8222 213.223 14.2081 212.927 13.7014C212.586 13.1119 212.82 12.8018 213.285 12.528C214.104 12.1195 214.956 12.1717 215.793 12.4971C217.16 13.0191 217.16 13.0191 217.007 14.4287C217.536 14.1743 218.087 13.9613 218.647 13.7165C218.6 13.0778 218.53 12.3976 218.397 11.698C218.311 11.1861 218.471 10.8884 218.983 10.8022C219.308 10.7627 219.62 10.65 219.934 10.6422C221.025 10.5941 221.401 9.70349 221.949 8.93453C220.581 9.20983 219.212 9.48513 217.73 9.79476C217.732 9.8996 217.813 10.2018 217.733 10.3507C217.449 10.7145 217.096 11.3002 216.74 11.3301C216.279 11.3625 215.641 11.0636 215.38 10.6715C215.152 10.3939 215.302 9.67676 215.514 9.3253C215.827 8.86639 216.445 8.77761 216.958 9.14253C217.407 9.48804 217.741 9.41679 218.165 9.16496C219.045 8.671 220 8.26957 220.858 7.73419C221.83 7.16449 222.845 7.02387 223.953 7.2586C225.452 7.57804 226.97 7.83406 228.497 8.05836C229.088 8.16957 229.274 8.46918 229.277 9.02512C229.329 10.2198 229.411 11.4242 229.504 12.5969C229.507 12.7017 229.573 12.826 229.649 12.9185C230.677 14.019 231.705 15.1195 232.734 16.2199C232.859 16.1888 232.984 16.1577 233.109 16.1267C233.101 15.8121 233.135 15.4756 233.105 15.1196C233.028 14.576 232.92 14.0227 232.811 13.4694C232.74 13.1354 232.742 12.7892 232.67 12.4552C232.599 12.1213 232.359 11.7706 232.361 11.4243C232.326 10.8587 232.395 10.2904 232.433 9.7125C232.921 9.93116 233.429 10.0864 233.815 10.4125C234.233 10.7483 234.506 10.7625 234.994 10.5301C235.876 10.141 236.778 9.68842 237.831 10.2183C238.991 10.8504 239.193 11.7791 238.272 12.7461C238.119 12.9073 237.956 13.1002 237.761 13.2834C238.634 14.1744 238.94 15.1005 238.289 16.3231C237.959 16.9503 238.053 17.7767 237.903 18.4938C237.388 20.972 237.04 21.3164 234.54 21.6618C234.174 21.7233 233.767 21.8069 233.465 21.8879C233.306 24.3362 231.626 25.9726 230.342 27.9034C232.474 29.2142 234.735 30.2176 237.254 30.6061C237.854 30.6856 238.505 30.7113 239.118 30.864C240.458 31.1349 240.612 31.4248 240.23 32.903C243.552 33.387 246.849 33.875 250.123 34.3671C250.902 32.386 249.906 29.5152 248.223 28.5499C247.329 28.0686 247.112 28.2104 246.492 28.9916C245.973 29.6654 245.255 30.3128 244.497 30.6358C243.302 31.1376 242.144 30.1593 242.112 28.9012C242.027 26.3435 243.992 24.3433 246.524 24.4587C248.857 24.5476 250.503 25.7446 251.647 27.7934C252.812 29.8836 252.887 32.0219 252.267 34.5027C255.134 34.5468 257.864 34.5839 260.594 34.6209C260.762 34.6377 260.928 34.5497 261.094 34.4616C263.109 33.2051 265.168 33.2798 267.331 34.1492C269.907 35.1447 272.471 35.2698 275.008 33.8954C276.366 33.2007 277.029 32.0512 277.056 30.6028C277.083 29.6055 276.932 28.6231 276.918 27.6478C276.926 26.7139 277.007 25.7677 277.079 24.8532C275.469 25.124 274.469 24.1942 273.81 22.6054C274.449 22.5581 275.047 22.5327 275.686 22.4854C275.643 21.6052 275.427 20.9496 274.565 20.478C273.522 19.9164 272.569 19.1743 271.616 18.4321C269.827 17.0183 269.135 14.9688 268.599 12.863C268.689 12.7978 268.778 12.7326 268.867 12.6675C269.139 13.0279 269.452 13.3663 269.714 13.7585C269.975 14.1506 270.145 14.6185 270.499 14.9349C270.682 15.1297 271.102 15.1193 271.388 15.2066C271.433 14.9432 271.562 14.6357 271.493 14.4066C271.306 13.6559 270.91 12.9105 272.099 12.199C272.237 13.1083 272.414 13.8907 272.519 14.6854C272.62 15.3753 272.648 16.0775 272.813 16.7868C272.862 17.0793 273.163 17.3446 273.469 17.8196C273.602 17.2707 273.689 16.9853 273.764 16.6267C274.638 16.7204 274.956 17.2685 275.184 17.9972C275.334 18.5285 275.64 19.0035 275.873 19.4908C276.25 19.0513 276.659 18.6215 276.951 18.1212C277.213 17.716 277.305 17.1891 277.59 16.8254C277.763 16.6008 278.17 16.5172 278.504 16.446C278.577 16.4337 278.827 16.7527 278.807 16.8161C278.688 17.0918 278.518 17.4213 278.291 17.5948C277.468 18.2447 277.073 19.6498 277.514 20.4781C277.977 21.3479 278.939 21.6072 280.075 21.2957C281.055 21.0405 281.637 20.3861 282.13 19.566C282.383 19.1926 282.903 18.9698 283.305 18.6766C283.296 19.1594 283.436 19.7224 283.268 20.1567C283.04 20.6765 282.653 21.1477 282.222 21.5361C281.74 21.9782 281.16 22.2864 280.427 22.7557C281.935 23.0434 283.275 23.3143 284.583 23.5756C284.783 24.8505 283.926 25.837 282.709 25.8462C282.331 25.8347 281.994 25.8011 281.628 25.8626C280.623 25.9715 280.146 26.6233 280.412 27.5714C280.562 28.1027 280.794 28.59 280.986 29.0993C281.898 31.563 282.244 34.0617 280.783 36.4585C280.36 37.1614 279.702 37.7233 279.06 38.4632C282.881 38.9032 286.656 39.1556 290.472 38.5886C290.079 38.3991 289.686 38.2095 289.112 37.93C289.475 37.7636 289.661 37.6121 289.797 37.6192C290.534 37.7058 290.997 37.3271 291.394 36.8242C293.038 34.6222 295.341 34.3551 297.75 34.9876C299.705 35.516 301.636 35.8982 303.647 35.3341C304.981 34.9443 306.268 34.3668 307.075 33.0878C307.963 31.6599 307.672 30.1145 307.559 28.5541C307.467 27.3814 307.311 26.1894 307.155 24.9973C305.604 25.5289 304.653 24.4405 303.725 23.0473C304.438 22.9876 305.077 22.9402 305.757 22.8709C305.619 21.9616 305.288 21.3404 304.417 20.9004C302.959 20.1079 301.603 19.2079 300.308 18.2224C298.883 17.0934 298.39 15.4166 298.001 13.7372C298.063 13.6867 298.124 13.6362 298.186 13.5857C298.619 14.0995 299.052 14.6133 299.453 15.1174C299.604 15.3025 299.634 15.6584 299.783 15.7386C300.091 15.8674 300.469 15.879 300.796 15.9443C300.82 15.6394 300.958 15.3003 300.848 15.0932C300.42 14.338 300.099 13.6851 300.964 13.0131C301.616 13.49 301.781 14.1993 301.904 14.9306C302.028 15.6619 302.11 16.4152 302.274 17.1245C302.368 17.4998 302.681 17.8382 302.879 18.211C302.962 18.167 303.052 18.1367 303.15 18.1203C303.183 17.7838 303.217 17.4472 303.228 17.0693C304.026 17.0704 304.466 17.4477 304.755 18.0909C304.846 18.3614 304.854 18.676 304.976 18.9562C305.131 19.2461 305.326 19.514 305.522 19.7819C305.809 19.523 306.16 19.2834 306.33 18.954C306.549 18.466 306.628 17.866 306.825 17.3366C306.902 17.0829 307.104 16.7631 307.333 16.6945C307.636 16.6135 307.975 16.752 308.312 16.7855C308.256 17.0807 308.267 17.5001 308.091 17.6198C307.234 18.1552 307.182 19.0063 307.171 19.8353C307.161 20.6644 307.625 21.1878 308.396 21.389C309.507 21.7285 310.95 21.0947 311.543 20.0623C311.774 19.6474 311.942 19.2131 312.236 18.8177C312.399 18.6248 312.733 18.5535 313.023 18.3994C313.105 18.7017 313.376 19.0621 313.276 19.2744C312.846 20.1139 312.311 20.9559 311.764 21.7249C311.521 22.0667 311.075 22.2771 310.497 22.6901C311.603 22.82 312.486 22.8819 313.35 23.0073C313.909 23.1089 314.828 22.9391 314.773 23.6853C314.726 24.295 314.166 24.9908 313.62 25.4135C313.209 25.7385 312.516 25.7347 311.908 25.7918C310.799 25.9033 310.434 26.416 310.858 27.4125C311.282 28.4091 311.769 29.4251 312.11 30.4658C312.837 32.6298 313.122 34.7629 311.645 36.9817C315.899 37.9356 320.018 38.536 324.297 38.3877C324.355 38.1974 324.394 38.0706 324.433 37.9437C324.481 37.7852 324.489 37.6486 324.515 37.4486C323.985 37.252 323.465 37.0236 322.808 36.7881C323.045 36.5829 323.157 36.4438 323.22 36.4632C324.294 36.5834 324.809 35.8047 325.337 35.0992C326.313 33.837 327.6 33.2595 329.145 33.3155C330.479 33.3767 331.809 33.6794 333.125 33.804C335.45 34.0295 337.701 33.8162 339.559 32.1649C340.884 31.0094 341.172 29.502 340.983 27.8492C340.923 27.1373 340.59 26.4112 340.498 25.6896C340.35 24.812 340.339 23.9416 340.264 23.0517C338.695 23.3005 337.611 22.7609 336.859 21.2479C337.454 21.1178 338.008 21.0096 338.635 20.8891C338.445 20.0335 338.156 19.3903 337.223 19.0358C335.897 18.4917 334.62 17.7891 333.455 16.9474C331.83 15.7918 330.968 14.0717 330.476 12.0487C331.501 12.3274 331.805 13.1487 332.253 13.8404C332.679 14.4908 333.133 14.5949 333.673 13.9625C333.557 13.0946 332.372 12.3163 333.658 11.2877C333.857 11.6604 334.128 12.0208 334.222 12.3962C334.475 13.2711 334.581 14.1707 334.844 15.0139C335.004 15.5135 335.319 15.9568 335.562 16.4124C335.659 16.396 335.76 16.369 335.864 16.3314C335.929 16.0046 335.963 15.6681 336.038 15.3095C336.769 15.1864 337.126 15.6077 337.403 16.1778C337.557 16.4677 337.568 16.8871 337.754 17.1867C337.95 17.4546 338.26 17.6882 338.538 17.912C338.762 17.6337 339.072 17.4162 339.21 17.077C339.397 16.5793 339.457 16.0428 339.58 15.5257C339.708 14.7671 340.196 14.5347 341.206 14.6355C340.933 15.0724 340.817 15.453 340.561 15.7216C339.673 16.6984 339.649 18.2516 340.561 19.0158C341.482 19.7482 343.279 19.4308 343.987 18.3641C344.31 17.8735 344.495 17.2709 344.818 16.7803C344.991 16.5557 345.313 16.4113 345.571 16.2475C345.716 16.5691 345.997 16.8978 345.973 17.2027C345.853 18.2757 345.233 19.057 344.409 19.7069C344.141 19.9024 343.873 20.0979 343.379 20.4669C344.726 20.6013 345.853 20.7726 346.968 20.8708C347.673 20.9476 347.935 21.3398 347.658 22.0181C347.353 22.7915 346.734 23.2266 345.929 23.362C343.495 23.8316 343.364 24.0342 344.471 26.3147C345.034 27.4232 345.547 28.5855 345.871 29.7944C346.463 32.0562 346.097 34.1635 344.378 35.9267C344.173 36.1416 344.091 36.6367 344.131 36.961C344.156 37.1072 344.641 37.2211 344.905 37.267C345.823 37.4435 346.718 37.5786 347.636 37.7551L347.614 37.7137ZM227.457 40.858C227.177 42.6799 227.199 42.7213 228.886 42.9941C232.817 43.6412 236.713 43.2716 240.551 42.295C243.335 41.5858 245.606 40.0606 247.7 38.2041C248.655 37.3516 249.47 36.3871 249.941 35.0746C247.318 34.6887 244.79 34.3319 242.271 33.9434C241.512 33.8154 240.587 33.3243 240.026 33.569C239.414 33.8675 239.092 34.8092 238.742 35.4998C237.096 38.4992 234.721 40.4781 231.383 41.2954C231.007 41.3887 230.629 41.3771 230.229 41.3241C229.292 41.211 228.384 41.0028 227.457 40.858V40.858ZM225.853 40.5412C222.262 39.2351 218.776 37.9265 215.226 36.5985C214.895 37.2256 214.626 37.7674 214.336 38.3726C218.138 39.6734 221.843 40.9451 225.603 42.2679C225.68 41.7135 225.763 41.1379 225.853 40.5412Z" fill="#A1ACBC"/>
<path d="M408.137 40.9916C408.014 39.463 408.097 39.419 409.431 39.0291C409.889 38.8918 410.32 38.5034 410.605 38.1397C411.274 37.1998 412.006 36.2794 412.463 35.2399C412.878 34.2225 412.428 33.877 411.363 34.0713C410.214 34.3097 409.029 34.7798 407.965 34.6279C406.174 34.3577 404.633 34.8576 402.973 35.1821C401.636 35.4671 400.194 35.3036 398.777 35.2864C397.296 35.2498 396.121 35.6881 395.145 36.9503C393.853 38.5666 391.941 38.9184 389.964 38.7996C389.008 38.75 388.384 38.9753 387.712 39.8103C386.177 41.7683 384.328 43.3879 381.893 44.2038C381.429 42.883 381.823 42.2752 383.181 42.0316C383.506 41.9921 383.888 41.7623 384.166 41.535C385.501 40.3479 386.144 38.8107 386.489 37.113C386.702 35.9643 386.826 35.8982 387.978 36.2158C388.772 36.4583 389.425 36.1379 389.728 35.2596C389.864 34.8156 389.873 34.3328 389.993 33.7108C386.102 34.6363 382.299 34.9302 378.473 34.7315C380.368 34.548 382.254 34.3963 384.159 34.1811C386.064 33.9659 387.956 33.6775 389.839 33.4209C389.844 33.3299 389.852 33.2282 389.863 33.1161C389.365 32.9291 388.867 32.7422 388.274 32.5261C388.437 32.3332 388.568 32.1306 388.673 32.128C389.605 32.0314 390.018 31.3602 390.527 30.7181C391.938 28.8261 394.462 28.1759 396.795 28.7159C399.582 29.36 402.248 28.9265 404.508 26.982C405.884 25.7728 406.306 23.3704 405.527 21.6063C404.949 20.3198 404.771 19.0863 404.975 17.6229C403.344 18.3034 402.223 17.5445 401.137 16.1027C401.815 15.9285 402.305 15.8009 402.91 15.639C402.889 14.8003 402.443 14.2134 401.438 13.8712C399.172 13.1092 396.977 12.2301 395.612 10.1134C395.107 9.26564 394.686 8.37389 394.233 7.47244C394.371 7.39907 394.502 7.31189 394.625 7.21091C395.014 7.64187 395.434 8.08252 395.823 8.51348C395.997 8.73996 396.1 9.0836 396.334 9.22464C396.632 9.38509 397.077 9.52092 397.325 9.38885C397.844 9.16613 397.592 8.74226 397.333 8.45496C396.866 7.82662 396.504 7.19569 397.468 6.31145C397.757 6.95471 398.085 7.4711 398.289 8.05353C398.549 8.79193 398.621 9.57695 398.923 10.2933C399.102 10.7295 399.519 11.0653 399.823 11.4355C399.905 11.3914 399.981 11.3336 400.049 11.262C400.049 10.9612 400.051 10.6499 400.057 10.3281C400.872 10.161 401.212 10.7505 401.571 11.2766C401.704 11.5251 401.712 11.8396 401.895 12.0344C402.122 12.312 402.42 12.4724 402.689 12.728C402.881 12.44 403.159 12.2128 403.256 11.8956C403.411 11.3882 403.408 10.8323 403.563 10.3249C403.66 10.0077 403.817 9.60514 404.076 9.44135C404.293 9.29958 404.715 9.394 405.061 9.39588C405.006 9.69101 405.004 10.0372 404.895 10.2813C404.708 10.779 404.34 11.1868 404.195 11.6625C403.899 12.4042 404.073 13.0818 404.716 13.5904C405.327 14.0892 406.559 14.2579 407.124 13.7718C407.67 13.3491 408.044 12.8047 408.451 12.2701C408.623 12.0455 408.616 11.7309 408.779 11.538C409.022 11.1963 409.382 10.925 409.679 10.6344C409.795 11.0512 410.113 11.5993 409.985 11.9067C409.486 12.9682 408.817 13.908 408.122 15.0479C408.91 15.0807 409.803 15.111 410.718 15.1826C411.128 15.2039 411.562 15.3715 411.985 15.4659C411.82 16.005 411.826 16.6658 411.5 17.0516C411.132 17.4594 410.432 17.5922 409.913 17.8149C409.55 17.9813 409.197 18.116 408.865 18.2921C408.358 18.5879 408.274 18.9782 408.582 19.558C409.346 21.1441 410.079 22.7205 410.76 24.3507C411.523 26.283 411.202 28.1269 410.017 29.8454C409.835 30.1018 409.63 30.3167 409.48 30.5827C409.057 31.2856 409.258 31.7632 410.09 31.8789C410.976 32.0457 411.869 32.076 412.745 32.2745C414.507 32.6398 415.042 34.2946 413.945 35.7277C413.404 36.3601 412.759 36.9951 412.495 37.7465C412.124 38.8468 411.437 39.5038 410.484 40.0101C409.748 40.3746 408.968 40.6562 408.137 40.9916V40.9916Z" fill="#A1ACBC"/>
<path d="M347.636 37.7532C349.071 37.6021 350.505 37.4511 351.939 37.3C353.425 37.1302 354.904 36.9466 356.376 36.7491C357.432 36.5865 357.41 36.5451 357.59 35.3866C357.07 35.1582 356.528 34.8884 355.859 34.5798C356.168 34.3623 356.3 34.1598 356.468 34.1765C357.383 34.2482 357.85 33.6281 358.349 33.0177C360.165 30.9374 362.477 30.6386 364.933 31.4588C367.452 32.2984 369.81 31.7362 372.031 30.7158C373.515 30.06 374.32 28.6761 374.205 27.0109C374.115 25.9431 373.805 24.9122 373.684 23.8346C373.587 22.9034 373.626 21.9792 373.612 21.0039C371.998 21.5161 370.916 20.6303 370.061 19.2247C370.647 19.1263 371.208 19.0319 371.744 18.9416C371.988 17.8025 371.4 17.3451 370.508 16.9686C368.577 16.1353 366.633 15.229 365.359 13.3828C364.661 12.372 364.079 11.3269 364.076 9.97363C364.528 10.424 364.949 10.8646 365.359 11.337C365.533 11.5635 365.614 11.8657 365.817 11.9971C366.083 12.1478 366.43 12.1497 366.747 12.2467C366.78 11.9102 366.928 11.5393 366.828 11.3005C366.422 10.5867 366.059 9.95579 367.119 9.10067C367.357 9.79764 367.624 10.3995 367.786 11.0039C367.973 11.7546 368.004 12.5617 368.232 13.2904C368.389 13.6851 368.766 14.0429 369.069 14.4131C369.152 14.369 369.224 14.3218 369.286 14.2713C369.309 13.9665 369.301 13.6519 369.303 13.3057C370.298 13.2285 370.588 13.8718 370.848 14.6102C371.039 15.1195 371.006 15.9071 371.75 15.8571C372.526 15.8168 372.486 15.0415 372.619 14.4927C372.742 13.9756 372.78 13.3976 373.096 13.0436C373.311 12.7969 373.867 12.7936 374.284 12.6783C374.241 13.0466 374.295 13.5488 374.069 13.7223C373.35 14.3696 373.203 15.1915 373.307 15.9863C373.371 16.4568 373.836 16.9803 374.273 17.2526C375.262 17.7631 376.637 17.3512 377.243 16.392C377.566 15.9014 377.782 15.3085 378.106 14.8179C378.288 14.5616 378.632 14.4586 378.922 14.3045C379.035 14.6164 379.284 14.9355 379.229 15.2306C379.131 16.3451 378.469 17.1483 377.614 17.7886C377.378 17.9938 377.129 18.1258 376.867 18.531C378.179 18.7012 379.479 18.8787 380.764 19.0636C381.095 20.1359 380.633 20.9657 379.478 21.3406C378.905 21.5122 378.332 21.6838 377.759 21.8555C377.093 22.1028 376.862 22.5177 377.195 23.2438C377.705 24.3012 378.163 25.4123 378.59 26.5138C379.362 28.4144 379.464 30.3527 378.609 32.2414C378.29 32.9417 377.718 33.5644 377.222 34.2796C377.371 34.3598 377.542 34.4815 377.777 34.6225C377.484 34.6717 377.306 34.6867 377.118 34.7333C377.078 34.7903 377.034 34.8578 376.987 34.9359C377.275 35.1281 377.534 35.4154 377.861 35.4807C378.845 35.7814 379.909 35.9333 380.873 36.2975C381.955 36.7322 382.274 37.7314 381.757 38.8563C381.567 39.2492 381.26 39.5716 380.976 39.9353C380.428 40.7043 379.817 41.4538 379.292 42.2642C378.798 43.0843 376.213 44.6173 375.327 44.4505C375.19 44.4434 375.029 44.29 374.973 44.1341C374.764 43.3419 375.56 42.4409 376.411 42.4932C376.58 42.51 376.77 42.5682 376.926 42.5119C378.065 42.3052 380.151 39.6831 380.039 38.5738C380.021 38.291 379.613 37.9235 379.349 37.8776C378.927 37.7832 378.491 37.9619 378.03 37.9943C377.444 38.0928 376.83 38.2864 376.271 38.1849C374.423 37.7587 372.636 38.0445 370.794 38.2791C369.424 38.4495 367.95 38.2764 366.539 38.1226C364.992 37.9617 363.761 38.2441 362.668 39.4358C361.227 40.9718 359.197 41.253 357.301 40.9854C355.847 40.7488 355.062 41.2719 354.31 42.2558C353.12 43.7646 351.507 44.7279 349.752 45.4744C349.406 45.6229 349.06 45.7714 348.714 45.9198C348.286 44.3673 348.878 43.6812 350.232 43.679C350.578 43.6809 350.973 43.5242 351.251 43.297C352.578 42.2464 353.383 40.8625 353.824 39.194C354.199 37.8523 354.231 37.862 355.554 38.3012C356.316 38.5341 356.718 38.2408 357.101 37.2137C354.262 37.4206 351.413 37.6593 348.542 37.8566C348.249 37.9058 347.941 37.7771 347.614 37.7118L347.636 37.7532V37.7532Z" fill="#A1ACBC"/>
<path d="M146.01 120.41C148.97 120.815 153.664 121.22 159.788 121.22C171.015 121.22 178.771 119.195 183.466 114.841C187.038 111.601 189.386 107.044 189.386 101.172C189.386 91.0463 181.731 85.6799 175.199 84.1611V83.8573C182.344 81.326 186.834 75.5546 186.834 68.8718C186.834 63.5054 184.589 59.4553 181.017 56.8227C176.832 53.3801 171.117 51.8613 162.238 51.8613C156.114 51.8613 149.888 52.4688 146.01 53.3801V120.41ZM154.889 59.2528C156.318 58.949 158.665 58.6452 162.748 58.6452C171.729 58.6452 177.751 61.8854 177.751 69.7831C177.751 76.3646 172.24 81.326 162.952 81.326H154.889V59.2528ZM154.889 87.9075H162.238C171.933 87.9075 179.996 91.8564 179.996 101.07C179.996 110.993 171.525 114.335 162.34 114.335C159.176 114.335 156.726 114.233 154.889 113.93V87.9075Z" fill="#5B5B5B"/>
<path d="M201.02 120.612H210.001V48.7224H201.02V120.612Z" fill="#5B5B5B"/>
<path d="M234.121 120.612V71.6057H225.14V120.612H234.121ZM229.631 52.2663C226.263 52.2663 224.017 54.7976 224.017 57.8352C224.017 60.8728 226.161 63.3029 229.427 63.3029C232.999 63.3029 235.142 60.8728 235.142 57.8352C235.142 54.6964 232.897 52.2663 229.631 52.2663Z" fill="#5B5B5B"/>
<path d="M245.693 118.284C249.163 120.309 254.164 121.726 259.573 121.726C271.106 121.726 277.944 115.651 277.944 106.943C277.944 99.6529 273.453 95.4002 264.982 92.2614C258.552 89.73 255.695 87.9075 255.695 83.8573C255.695 80.2122 258.552 77.1746 263.859 77.1746C268.452 77.1746 272.024 78.8959 273.964 80.111L276.107 73.6308C273.453 71.9094 269.065 70.5931 264.064 70.5931C253.551 70.5931 247.019 77.0734 247.019 84.9711C247.019 90.8438 251.204 95.6027 260.185 98.8429C266.717 101.273 269.269 103.501 269.269 107.753C269.269 111.905 266.207 115.043 259.777 115.043C255.286 115.043 250.592 113.221 247.836 111.601L245.693 118.284Z" fill="#5B5B5B"/>
<path d="M286.158 118.284C289.628 120.309 294.629 121.726 300.039 121.726C311.572 121.726 318.41 115.651 318.41 106.943C318.41 99.6529 313.919 95.4002 305.448 92.2614C299.018 89.73 296.16 87.9075 296.16 83.8573C296.16 80.2122 299.018 77.1746 304.325 77.1746C308.918 77.1746 312.49 78.8959 314.429 80.111L316.573 73.6308C313.919 71.9094 309.53 70.5931 304.529 70.5931C294.017 70.5931 287.485 77.0734 287.485 84.9711C287.485 90.8438 291.67 95.6027 300.651 98.8429C307.183 101.273 309.734 103.501 309.734 107.753C309.734 111.905 306.673 115.043 300.243 115.043C295.752 115.043 291.057 113.221 288.302 111.601L286.158 118.284Z" fill="#5B5B5B"/>
<path d="M323.868 71.6057L342.648 120.612H351.221L370.612 71.6057H361.223L351.629 99.0454C349.996 103.602 348.567 107.652 347.445 111.702H347.138C346.118 107.652 344.791 103.602 343.158 99.0454L333.462 71.6057H323.868Z" fill="#5B5B5B"/>
<path d="M388.11 120.612V71.6057H379.129V120.612H388.11ZM383.62 52.2663C380.252 52.2663 378.006 54.7976 378.006 57.8352C378.006 60.8728 380.15 63.3029 383.416 63.3029C386.988 63.3029 389.131 60.8728 389.131 57.8352C389.131 54.6964 386.886 52.2663 383.62 52.2663Z" fill="#5B5B5B"/>
<path d="M403.05 120.612H412.031V48.7224H403.05V120.612Z" fill="#5B5B5B"/>
<path d="M427.17 120.612H436.151V48.7224H427.17V120.612Z" fill="#5B5B5B"/>
<path d="M490.991 97.7291C491.195 96.7165 491.298 95.4002 491.298 93.5777C491.298 84.5661 487.113 70.5931 470.885 70.5931C456.495 70.5931 447.717 82.136 447.717 96.919C447.717 111.702 456.801 121.726 472.008 121.726C479.867 121.726 485.378 120.005 488.542 118.587L486.909 112.208C483.643 113.626 479.663 114.74 473.233 114.74C464.149 114.74 456.495 109.778 456.291 97.7291H490.991ZM456.393 91.3501C457.107 85.1736 460.985 76.9721 470.171 76.9721C480.275 76.9721 482.724 85.7812 482.622 91.3501H456.393Z" fill="#5B5B5B"/>
<path d="M127.15 109.98C127.747 110.04 128.454 110.457 128.401 110.606C125.948 117.524 123.978 124.684 120.801 131.262C114.35 144.621 104.962 155.756 92.4622 163.939C80.923 171.492 68.055 174.999 54.2633 175C52.485 175 50.6866 174.499 48.9319 174.085C43.3765 172.775 41.8538 169.662 43.1962 164.015C46.9533 148.211 58.6998 140.843 72.7891 136.279C79.7669 134.018 87.1152 132.896 94.7353 131.159C87.1935 130.723 71.4272 133.163 61.5313 138.403C49.4747 144.788 45.4407 147.285 39.0026 162.394C34.3343 160.745 32.4942 158.598 32.7041 154.046C33.2124 143.019 38.1673 134.425 47.6935 128.728C57.7448 122.717 68.8221 120.182 80.4411 119.421C91.6928 118.684 102.998 118.113 114.125 116.444C118.597 115.773 122.658 112.371 127.15 109.98Z" fill="#26A65B"/>
<path fill-rule="evenodd" clip-rule="evenodd" d="M71.6642 40.2579C72.6259 39.1458 73.7165 38.1624 74.7301 37.2485C75.64 36.4281 76.4879 35.6635 77.125 34.9119C95.0812 42.2768 109.012 53.126 118.906 68.8563C124.691 78.0535 128.316 88.0698 130.144 98.7455C130.765 102.368 127.574 103.65 125.413 104.496L125.086 104.623C119.333 106.876 113.409 109.195 107.357 109.992C102.587 110.62 97.7491 110.693 92.907 110.767C89.1298 110.824 85.35 110.881 81.5984 111.201C66.9041 112.457 52.1717 114.258 39.7413 123.13C36.6699 125.322 34.074 128.178 31.5657 130.937L31.5647 130.938C30.4463 132.168 29.3453 133.379 28.2273 134.504V107.266H0.956027C-0.769582 107.266 0.367729 105.872 0.367729 105.872C1.18551 105.053 1.99411 104.223 2.80271 103.394C4.57017 101.581 6.33764 99.7685 8.20092 98.0597C12.0213 94.5562 15.862 91.0746 19.7026 87.5931C24.3681 83.3639 29.0336 79.1347 33.6626 74.8661C34.2847 74.2924 34.4719 73.0106 34.4821 72.054C34.5341 67.181 34.5282 62.3074 34.5222 57.2737V57.2698C34.5202 55.6204 34.5182 53.9537 34.5182 52.2643C34.5182 52.1206 34.5169 51.9782 34.5157 51.8374C32.4653 51.836 30.8036 50.1776 30.8036 48.132C30.8036 46.0855 32.4667 44.4265 34.5183 44.4265H52.1628C54.2144 44.4265 55.8775 46.0855 55.8775 48.132C55.8775 50.1106 54.3228 51.727 52.3656 51.832C52.3868 51.9469 52.3901 52.0637 52.3727 52.1822C52.1183 53.9165 51.8925 59.0668 51.8925 59.0668C51.8925 59.0668 64.6855 46.6056 71.6642 40.2579ZM73.522 67.5855H82.8086V74.9964H73.522V67.5855ZM86.5233 67.5855H95.8099V74.9964H86.5233V67.5855ZM86.5233 78.7019H95.8099V86.1128H86.5233V78.7019ZM73.522 78.7019H82.8086V86.1128H73.522V78.7019Z" fill="#446CB2"/>
</svg>
