<svg width="316" height="194" viewBox="0 0 316 194" fill="none" xmlns="http://www.w3.org/2000/svg">
<g clip-path="url(#clip0_1330_14204)">
<path d="M250.293 9.78516H250.293C236.065 9.78516 224.531 22.5972 224.531 38.4016V58.4813H230.701L234.273 51.0416L233.38 58.4813H273.037L276.285 51.7179L275.473 58.4813H279.938V42.7151C279.938 24.5284 266.665 9.78516 250.293 9.78516Z" fill="#2F2E41"/>
<path d="M237.858 45.8753C237.858 45.8753 245.899 64.6546 235.178 68.4105L245.899 103.823L264.125 102.75L268.949 90.9457L267.877 73.2394L266.269 61.4353C266.269 61.4353 255.012 64.118 256.084 44.2656L237.858 45.8753Z" fill="#FFB8B8"/>
<path d="M233.57 67.874C233.57 67.874 215.88 66.2643 217.488 79.1415C219.096 92.0188 220.704 94.7016 220.704 94.7016L222.313 114.017L212.664 119.919H203.551C203.551 119.919 175.676 126.358 189.613 133.333C203.551 140.308 208.375 127.968 208.375 127.968C208.375 127.968 234.106 127.968 235.714 123.675C237.322 119.383 233.57 67.874 233.57 67.874Z" fill="#FFB8B8"/>
<path d="M267.877 62.5082C267.877 62.5082 284.495 56.6061 285.567 69.4834C286.639 82.3606 286.639 83.4337 286.639 83.4337L289.855 101.676C289.855 101.676 296.288 117.773 296.288 122.602C296.288 127.431 301.112 142.454 301.112 142.454C301.112 142.454 307.545 163.38 300.576 162.843C293.607 162.307 292.535 140.308 292.535 140.308L278.062 111.334L273.774 93.6282L267.877 62.5082Z" fill="#FFB8B8"/>
<path d="M236.249 65.7273H231.96L231.424 88.2624C231.424 88.2624 224.456 97.9204 233.033 106.505L235.177 120.456L274.309 118.846L276.989 104.359C276.989 104.359 282.349 92.5549 274.845 81.8238L267.876 59.8252H264.124C264.124 59.8252 272.814 91.8993 254.475 92.5549C239.465 93.0914 236.249 65.7273 236.249 65.7273Z" fill="#446CB2"/>
<path d="M255.419 193.618C255.487 186.794 255.547 182.697 255.547 182.697C255.547 182.697 255.143 186.794 254.456 193.618H212.355C223.48 158.533 233.682 129.698 234.095 128.541C234.098 128.528 234.101 128.516 234.107 128.504L235.406 124.172V124.169L235.955 122.333V122.324L236.537 120.4L237.323 117.773L272.165 116.701L273.139 118.894L276.455 126.356C276.743 126.44 277.016 126.569 277.264 126.739C283.227 130.648 290.671 159.289 297.457 193.618L255.419 193.618Z" fill="#2F2E41"/>
<path d="M275.918 112.407L233.57 114.017C233.57 114.017 231.637 128.504 233.57 128.504C234.106 128.504 278.062 132.26 277.526 125.821C276.99 119.382 275.918 112.407 275.918 112.407Z" fill="#2F2E41"/>
<path d="M246.142 52.0209C254.46 52.0209 261.204 45.2712 261.204 36.945C261.204 28.6188 254.46 21.8691 246.142 21.8691C237.823 21.8691 231.08 28.6188 231.08 36.945C231.08 45.2712 237.823 52.0209 246.142 52.0209Z" fill="#FFB8B8"/>
<path d="M257.616 17.6688C255.03 14.3352 251.215 12.2236 246.956 12.2236H246.45C236.698 12.2236 228.793 21.0561 228.793 31.9514V31.9515H232.061L232.588 27.9311L233.362 31.9515H252.742L254.365 28.5501L253.959 31.9515H257.772C259.551 40.795 256.995 49.6385 250.103 58.482H256.598L259.845 51.6793L259.033 58.482H271.413L273.849 42.8358C273.849 31.1182 267.047 21.1819 257.616 17.6688Z" fill="#2F2E41"/>
<path d="M261.176 19.3159C266.505 19.3159 270.825 14.9919 270.825 9.65793C270.825 4.324 266.505 0 261.176 0C255.847 0 251.527 4.324 251.527 9.65793C251.527 14.9919 255.847 19.3159 261.176 19.3159Z" fill="#2F2E41"/>
<path d="M176.868 99.8575C184.133 99.8575 190.021 93.9631 190.021 86.692C190.021 79.4208 184.133 73.5264 176.868 73.5264C169.604 73.5264 163.715 79.4208 163.715 86.692C163.715 93.9631 169.604 99.8575 176.868 99.8575Z" fill="#446CB2"/>
<path d="M82.5872 76.3969C82.5827 76.7742 82.4861 77.1446 82.3059 77.4759C82.1256 77.8073 81.8671 78.0894 81.5529 78.2978L81.4664 78.3519H42.502L42.6587 77.874C42.6857 77.7892 45.538 69.5039 58.1652 71.1036C59.3562 70.6961 70.978 66.8979 77.9348 71.165C81.0214 73.0587 82.5872 74.8189 82.5872 76.3969Z" fill="#F2F2F2"/>
<path d="M144.809 143.802C148.731 143.886 151.851 146.731 151.851 146.731C151.851 146.731 148.612 149.439 144.69 149.355C140.768 149.27 137.648 146.426 137.648 146.426C137.648 146.426 140.887 143.718 144.809 143.802Z" fill="#446CB2"/>
<path d="M125.092 130.402C128.635 132.086 132.698 130.944 132.698 130.944C132.698 130.944 131.016 127.07 127.473 125.385C123.93 123.7 119.867 124.842 119.867 124.842C119.867 124.842 121.549 128.717 125.092 130.402Z" fill="#446CB2"/>
<path d="M125.452 128.728C129.358 128.37 132.777 130.846 132.777 130.846C132.777 130.846 129.863 133.901 125.957 134.259C122.05 134.616 118.631 132.14 118.631 132.14C118.631 132.14 121.545 129.085 125.452 128.728Z" fill="#3F3D56"/>
<path d="M139.771 129.405C139.397 133.313 141.855 136.747 141.855 136.747C141.855 136.747 144.92 133.843 145.295 129.935C145.669 126.026 143.211 122.593 143.211 122.593C143.211 122.593 140.146 125.496 139.771 129.405Z" fill="#3F3D56"/>
<path d="M158.168 153.375C156.119 156.723 156.824 160.888 156.824 160.888C156.824 160.888 160.851 159.624 162.9 156.276C164.949 152.927 164.244 148.763 164.244 148.763C164.244 148.763 160.217 150.026 158.168 153.375Z" fill="#3F3D56"/>
<path d="M152.225 189.778L152.524 189.576C151.471 188.047 150.896 186.239 150.873 184.383C150.881 181.667 152.214 179.156 153.502 176.726C153.742 176.276 153.98 175.826 154.209 175.377C155.172 173.546 155.939 171.618 156.498 169.625C158.497 162.189 156.529 153.416 151.234 146.158C147.033 140.399 140.77 135.364 132.088 130.764L131.92 131.082C140.552 135.656 146.774 140.657 150.943 146.37C156.175 153.542 158.121 162.2 156.15 169.531C155.598 171.5 154.84 173.404 153.889 175.213C153.66 175.66 153.422 176.108 153.184 176.557C151.875 179.025 150.521 181.577 150.512 184.382C150.536 186.311 151.132 188.189 152.225 189.778Z" fill="#3F3D56"/>
<path d="M114.976 131.238C116.867 131.238 118.4 129.704 118.4 127.811C118.4 125.919 116.867 124.385 114.976 124.385C113.085 124.385 111.553 125.919 111.553 127.811C111.553 129.704 113.085 131.238 114.976 131.238Z" fill="#3F3D56"/>
<path d="M201.199 193.827H12.7285L15.9088 189.821L62.5706 131.061L64.7185 128.356L83.998 104.077L106.964 75.1562L136.519 112.375L201.199 193.827Z" fill="#3F3D56"/>
<path d="M137.954 113.052C136.74 113.773 135.473 114.4 134.163 114.928C127.487 117.583 120.062 117.657 113.335 115.133C105.38 112.111 98.7687 105.558 90.3463 104.352C87.7694 103.983 85.1659 104.144 82.5605 104.3L106.782 73.7979L137.954 113.052Z" fill="#F2F2F2"/>
<path d="M146.912 73.8802C147.554 75.867 147.128 78.0281 146.605 80.0494C146.082 82.0707 145.46 84.1383 145.727 86.2091C146.305 90.6838 150.682 93.5537 154.746 95.5071C158.809 97.4606 163.38 99.4878 165.171 103.628C166.162 105.919 166.115 108.502 166.5 110.968C167.337 116.173 170.103 120.871 174.246 124.126C170.796 124.044 167.705 121.944 165.263 119.504C162.821 117.063 160.795 114.208 158.167 111.969C154.625 108.951 150.201 107.224 146.043 105.137C141.885 103.051 137.742 100.369 135.59 96.2417C133.39 92.0227 133.633 86.8637 135.174 82.3612C136.318 79.0173 138.422 73.8283 141.131 71.4412C143.263 69.5622 146.106 71.3823 146.912 73.8802Z" fill="#F2F2F2"/>
<path d="M254.372 167.485H130.227V193.817H254.372V167.485Z" fill="#F2F2F2"/>
<path d="M126.264 170.371L139.778 142.056H247.707L257.797 170.371H126.264Z" fill="#3F3D56"/>
<path d="M210.048 143.859H159.957V160.452H210.048V143.859Z" fill="#F2F2F2"/>
<path d="M163.2 130.333L155.271 146.925H214.732L210.047 130.333H163.2Z" fill="#3F3D56"/>
<path d="M203.921 172.716H164.371V193.817H203.921V172.716Z" fill="#CCCCCC"/>
<path d="M156.173 173.438H135.092V193.817H156.173V173.438Z" fill="#CCCCCC"/>
<path d="M221.671 174.699H210.77V193.816H221.671V174.699Z" fill="#3F3D56"/>
<path d="M238.788 175.782H233.473V180.742H238.788V175.782Z" fill="#446CB2"/>
<path d="M245.905 175.782H240.59V180.742H245.905V175.782Z" fill="#446CB2"/>
<path d="M238.788 182.545H233.473V187.685H238.788V182.545Z" fill="#446CB2"/>
<path d="M245.905 182.545H240.59V187.685H245.905V182.545Z" fill="#446CB2"/>
<path d="M168.713 148.399H164.553V152.281H168.713V148.399Z" fill="#3F3D56"/>
<path d="M174.281 148.399H170.121V152.281H174.281V148.399Z" fill="#3F3D56"/>
<path d="M168.713 153.692H164.553V157.715H168.713V153.692Z" fill="#3F3D56"/>
<path d="M174.281 153.692H170.121V157.715H174.281V153.692Z" fill="#3F3D56"/>
<path d="M199.883 148.399H195.723V152.281H199.883V148.399Z" fill="#3F3D56"/>
<path d="M205.453 148.399H201.293V152.281H205.453V148.399Z" fill="#3F3D56"/>
<path d="M199.883 153.692H195.723V157.715H199.883V153.692Z" fill="#3F3D56"/>
<path d="M205.453 153.692H201.293V157.715H205.453V153.692Z" fill="#3F3D56"/>
<path d="M184.388 148.399H180.229V152.281H184.388V148.399Z" fill="#3F3D56"/>
<path d="M189.957 148.399H185.797V152.281H189.957V148.399Z" fill="#3F3D56"/>
<path d="M184.388 153.692H180.229V157.715H184.388V153.692Z" fill="#3F3D56"/>
<path d="M189.957 153.692H185.797V157.715H189.957V153.692Z" fill="#3F3D56"/>
<path d="M215.82 176.637H213.201V179.081H215.82V176.637Z" fill="#F2F2F2"/>
<path d="M219.328 176.637H216.709V179.081H219.328V176.637Z" fill="#F2F2F2"/>
<path d="M215.82 179.969H213.201V182.502H215.82V179.969Z" fill="#F2F2F2"/>
<path d="M219.328 179.969H216.709V182.502H219.328V179.969Z" fill="#F2F2F2"/>
<path d="M220.229 186.332C220.627 186.332 220.949 186.009 220.949 185.611C220.949 185.213 220.627 184.89 220.229 184.89C219.83 184.89 219.508 185.213 219.508 185.611C219.508 186.009 219.83 186.332 220.229 186.332Z" fill="#F2F2F2"/>
<path d="M176.778 126.008H170.832V127.438H172.021V131.599H175.589V127.438H176.778V126.008Z" fill="#F2F2F2"/>
<path d="M164.599 187.683C163.575 191.473 160.066 193.82 160.066 193.82C160.066 193.82 158.219 190.022 159.243 186.232C160.267 182.442 163.776 180.095 163.776 180.095C163.776 180.095 165.624 183.892 164.599 187.683Z" fill="#446CB2"/>
<path d="M155.28 187.683C156.304 191.473 159.813 193.82 159.813 193.82C159.813 193.82 161.661 190.022 160.637 186.232C159.612 182.442 156.104 180.095 156.104 180.095C156.104 180.095 154.256 183.892 155.28 187.683Z" fill="#446CB2"/>
<path d="M156.786 186.868C159.597 189.607 159.941 193.817 159.941 193.817C159.941 193.817 155.727 193.587 152.916 190.848C150.105 188.11 149.762 183.899 149.762 183.899C149.762 183.899 153.976 184.13 156.786 186.868Z" fill="#3F3D56"/>
<path d="M163.094 186.868C160.283 189.607 159.939 193.817 159.939 193.817C159.939 193.817 164.153 193.587 166.964 190.848C169.775 188.11 170.118 183.899 170.118 183.899C170.118 183.899 165.904 184.13 163.094 186.868Z" fill="#3F3D56"/>
<path d="M316 193.64H0V194H316V193.64Z" fill="#3F3D56"/>
<path d="M204.255 91.0493C204.251 91.4265 204.154 91.797 203.974 92.1283C203.794 92.4596 203.535 92.7418 203.221 92.9502L203.134 93.0043H164.17L164.327 92.5264C164.354 92.4416 167.206 84.1563 179.833 85.756C181.024 85.3484 192.646 81.5502 199.603 85.8173C202.689 87.711 204.255 89.4712 204.255 91.0493Z" fill="#F2F2F2"/>
<path d="M84.3137 136.884C84.3093 137.261 84.2127 137.632 84.0324 137.963C83.8522 138.295 83.5937 138.577 83.2795 138.785L83.193 138.839H44.2285L44.3853 138.361C44.4123 138.277 47.2646 129.991 59.8918 131.591C61.0828 131.183 72.7046 127.385 79.6614 131.652C82.7479 133.546 84.3137 135.306 84.3137 136.884Z" fill="#F2F2F2"/>
</g>
<defs>
<clipPath id="clip0_1330_14204">
<rect width="316" height="194" fill="white"/>
</clipPath>
</defs>
</svg>
