<svg width="576" height="189" viewBox="0 0 576 189" fill="none" xmlns="http://www.w3.org/2000/svg">
<path d="M128.615 155.236H86.3645V68.1261H85.1641V65.636H87.7849V62.4493H90.8014V61.2514V57.6069V54.445H94.4418V48.7955H94.8791H95.317V54.445H97.2794L98.4655 57.6069H106.407V62.4493H127.195V65.636H129.815V68.1261H128.615V155.236" fill="#DDE0E6"/>
<path d="M94.8837 48.7959C94.4497 48.7959 94.0977 48.4441 94.0977 48.0103C94.0977 47.5759 94.4497 47.224 94.8837 47.224C95.3183 47.224 95.6703 47.5759 95.6703 48.0103C95.6703 48.4441 95.3183 48.7959 94.8837 48.7959Z" fill="#ECEFF2"/>
<path d="M579.907 173.472H27.3281V160.337H162.707V64.019H162.005V62.9056H167.001V56.2129H166.356V55.1412H170.941V51.2938H170.225V50.4711H172.504V46.8364H174.682V39.6033H174.944H175.203H175.408V46.8364H176.289V33.8615H176.55H176.81H177.014V46.8364H177.307H179.192V50.4711H181.166V51.2938H180.755V55.1412H185.341V56.2129H184.695V62.9056H189.69V64.019H188.99V160.337H229.581V87.9807H233.578V44.6818H238.239V16.0741H247.265V0.42498H248.536V16.0741H251.332V3.57264H252.602V16.0741H266.879V33.0843H269.47V44.6818H276.723V87.9807H279.533V160.337H432.176L426.476 32.4327L478.496 43.225V160.337H579.907V173.472" fill="#D2D7DF"/>
<path d="M405.197 129.393C406.297 129.999 407.429 130.544 408.587 131.026L407.402 133.909C407.133 133.824 406.847 133.778 406.55 133.778C404.996 133.778 403.737 135.036 403.737 136.589C403.737 138.143 404.996 139.401 406.55 139.401C408.104 139.401 409.363 138.143 409.363 136.589C409.363 135.443 408.678 134.459 407.694 134.02L408.876 131.144C412.575 132.642 416.538 133.494 420.625 133.643L420.528 136.591C419.006 136.626 417.781 137.87 417.781 139.401C417.781 140.955 419.04 142.214 420.594 142.214C422.148 142.214 423.407 140.955 423.407 139.401C423.407 137.932 422.279 136.726 420.841 136.601L420.937 133.652C421.26 133.661 421.583 133.665 421.907 133.665C425.842 133.665 429.677 133.014 433.289 131.763L434.3 134.63C433.342 135.079 432.679 136.05 432.679 137.177C432.679 138.73 433.939 139.989 435.492 139.989C437.046 139.989 438.306 138.73 438.306 137.177C438.306 135.624 437.046 134.365 435.492 134.365C435.177 134.365 434.873 134.418 434.59 134.514L433.584 131.66C435.319 131.042 437.002 130.284 438.617 129.393L451.856 153.78H391.959L405.197 129.393ZM398.057 122.855C397.835 122.633 397.617 122.408 397.402 122.181L404.497 115.536C406.039 117.158 407.804 118.564 409.742 119.708L405.1 128.261C402.556 126.795 400.189 124.985 398.057 122.855V122.855ZM397.188 121.953C394.143 118.682 391.819 114.904 390.294 110.817L399.424 107.457C400.529 110.389 402.193 113.049 404.285 115.308L397.188 121.953ZM388.179 99.0172C388.179 98.7031 388.183 98.3903 388.192 98.0775L397.898 98.3936C397.892 98.6004 397.889 98.8085 397.889 99.0172C397.889 101.876 398.393 104.619 399.315 107.165L390.187 110.524C388.866 106.884 388.179 103.003 388.179 99.0172V99.0172ZM391.203 85.0219L400.037 89.0983C398.781 91.8551 398.032 94.8895 397.91 98.0807L388.201 97.7653C388.363 93.3014 389.391 88.989 391.203 85.0219V85.0219ZM398.057 75.1791C398.28 74.9573 398.505 74.7395 398.731 74.5249L405.38 81.6155C403.226 83.6601 401.451 86.0996 400.17 88.8154L391.334 84.7384C392.977 81.2311 395.236 77.999 398.057 75.1791ZM410.542 67.258L413.776 76.429C410.719 77.532 407.948 79.2378 405.608 81.4028L398.959 74.3102C402.35 71.158 406.283 68.7772 410.542 67.258V67.258ZM421.907 65.3057C422.221 65.3057 422.534 65.3102 422.847 65.3187L422.531 75.0198C422.323 75.0146 422.116 75.0119 421.907 75.0119C419.164 75.0119 416.528 75.475 414.071 76.325L410.837 67.1546C414.35 65.9384 418.08 65.3057 421.907 65.3057V65.3057ZM423.159 65.3278C427.132 65.4721 430.986 66.3007 434.582 67.7568L430.886 76.7529C428.385 75.7423 425.676 75.1407 422.843 75.0315L423.159 65.3278ZM445.756 75.1791C445.979 75.4009 446.197 75.6259 446.412 75.8528L439.317 82.4973C437.038 80.0995 434.27 78.1706 431.175 76.8713L434.871 67.8752C438.891 69.5478 442.584 72.0087 445.756 75.1791ZM446.626 76.0805C449.67 79.3523 451.996 83.1295 453.52 87.2168L444.39 90.5765C443.285 87.6448 441.621 84.9849 439.53 82.7256L446.626 76.0805ZM455.635 99.0172C455.635 99.3307 455.631 99.6435 455.622 99.9563L445.916 99.6409C445.922 99.4334 445.924 99.2253 445.924 99.0172C445.924 96.1577 445.421 93.4146 444.499 90.8691L453.628 87.5102C454.947 91.1501 455.635 95.0307 455.635 99.0172V99.0172ZM452.611 113.012L443.777 108.936C445.033 106.179 445.781 103.145 445.904 99.9531L455.613 100.268C455.451 104.733 454.423 109.045 452.611 113.012V113.012ZM445.756 122.855C445.534 123.076 445.309 123.294 445.083 123.509L438.434 116.418C440.588 114.374 442.363 111.934 443.644 109.218L452.48 113.295C450.837 116.803 448.578 120.035 445.756 122.855V122.855ZM430.038 121.605C431.25 121.168 432.416 120.636 433.529 120.018L438.17 128.569C436.598 129.435 434.961 130.174 433.271 130.776L430.038 121.605ZM421.283 123.014C421.491 123.019 421.698 123.023 421.907 123.023C424.65 123.023 427.286 122.559 429.743 121.709L432.977 130.879C429.464 132.095 425.734 132.729 421.907 132.729C421.593 132.729 421.28 132.724 420.967 132.715L421.283 123.014ZM412.929 121.281C415.429 122.292 418.138 122.893 420.971 123.002L420.655 132.705C416.682 132.562 412.828 131.732 409.232 130.276L412.929 121.281ZM410.285 120.018C411.046 120.441 411.831 120.823 412.639 121.162L408.943 130.158C407.816 129.69 406.715 129.159 405.644 128.569L410.285 120.018ZM419.772 101.231L409.966 119.295C408.072 118.177 406.346 116.801 404.84 115.216L419.772 101.231ZM420.192 99.8145C420.243 99.9232 420.304 100.026 420.373 100.123L420.245 100.36L404.626 114.988C402.577 112.774 400.947 110.168 399.864 107.295L420.192 99.8145ZM420.018 99.1122C420.025 99.2533 420.047 99.3899 420.085 99.5212L399.755 107.003C398.852 104.508 398.358 101.819 398.358 99.0172C398.358 98.8137 398.361 98.6108 398.366 98.4085L420.018 99.1122ZM420.129 98.3688C420.079 98.5061 420.046 98.6498 420.029 98.7994L398.378 98.0963C398.5 94.9689 399.232 91.9955 400.463 89.2947L420.129 98.3688ZM420.504 97.7491C420.411 97.8518 420.33 97.9643 420.261 98.0859L400.596 89.0118C401.85 86.3512 403.59 83.9613 405.7 81.9576L420.504 97.7491ZM421.133 97.2919C420.989 97.3563 420.854 97.4389 420.733 97.5358L405.928 81.7449C408.222 79.6235 410.936 77.9521 413.932 76.8706L421.133 97.2919ZM421.812 97.1287C421.68 97.1352 421.552 97.1553 421.428 97.1878L414.227 76.7666C416.635 75.9341 419.219 75.4802 421.907 75.4802C422.111 75.4802 422.314 75.4828 422.516 75.488L421.812 97.1287ZM422.478 97.2145C422.365 97.1787 422.246 97.1534 422.125 97.139L422.828 75.5004C425.603 75.607 428.257 76.1962 430.707 77.1867L422.478 97.2145ZM423.176 97.6145C423.053 97.5039 422.916 97.4096 422.768 97.3335L430.997 77.3051C434.029 78.5784 436.741 80.4683 438.975 82.818L423.176 97.6145ZM423.622 98.2193C423.559 98.0846 423.48 97.9585 423.389 97.8427L439.188 83.0462C441.238 85.26 442.867 87.8659 443.95 90.7384L423.622 98.2193ZM423.796 98.9223C423.789 98.7805 423.766 98.6439 423.73 98.5126L444.059 91.0311C444.962 93.5258 445.455 96.2149 445.455 99.0172C445.455 99.2201 445.452 99.423 445.447 99.6253L423.796 98.9223ZM423.685 99.665C423.734 99.5284 423.769 99.384 423.785 99.2344L445.436 99.9375C445.315 103.065 444.582 106.038 443.352 108.739L423.685 99.665ZM423.83 100.839L423.441 100.123C423.481 100.067 423.519 100.008 423.553 99.9485L443.218 109.022C441.963 111.683 440.224 114.073 438.114 116.076L423.83 100.839ZM424.419 101.924L437.885 116.289C436.654 117.428 435.301 118.438 433.848 119.295L424.419 101.924ZM422.681 100.742C422.785 100.695 422.884 100.64 422.976 100.577L433.305 119.606C432.214 120.212 431.071 120.734 429.882 121.163L422.681 100.742ZM422.002 100.905C422.134 100.899 422.262 100.878 422.387 100.846L429.587 121.267C427.179 122.1 424.595 122.554 421.907 122.554C421.703 122.554 421.501 122.551 421.299 122.546L422.002 100.905ZM412.817 120.729C412.025 120.396 411.254 120.021 410.509 119.606L420.838 100.577C420.905 100.622 420.974 100.663 421.046 100.7L412.817 120.729ZM421.336 100.819C421.449 100.855 421.567 100.88 421.69 100.895L420.986 122.534C418.211 122.427 415.557 121.838 413.106 120.847L421.336 100.819ZM438.715 128.261L434.072 119.708C435.56 118.83 436.945 117.797 438.206 116.631L444.855 123.723C442.964 125.481 440.904 126.999 438.715 128.261V128.261ZM569.965 172.161V160.337H553.334L547.04 113.791H546.095V108.199H542.789V113.791H541.97V111.7H539.655V113.791H534.861V108.917H533.538V105.529H524.115V108.917H522.792V113.791H521.469V141.746H513.093V70.8147H510.338V55.2592H509.455V70.8147H507.362V49.2358H506.48V70.8147H504.661V59.1346H503.78V70.8147H487.522V121.163H469.447V153.78H452.567L439.162 129.086C441.422 127.785 443.546 126.22 445.496 124.407L448.245 127.339C447.655 127.855 447.282 128.612 447.282 129.457C447.282 131.01 448.541 132.269 450.095 132.269C451.649 132.269 452.908 131.01 452.908 129.457C452.908 127.905 451.649 126.645 450.095 126.645C449.5 126.645 448.947 126.83 448.492 127.146L445.724 124.193C445.958 123.971 446.19 123.746 446.419 123.517C449.32 120.618 451.644 117.295 453.331 113.688L456.393 115.101C456.337 115.321 456.308 115.552 456.308 115.789C456.308 117.342 457.567 118.602 459.121 118.602C460.675 118.602 461.934 117.342 461.934 115.789C461.934 114.236 460.675 112.977 459.121 112.977C457.915 112.977 456.887 113.736 456.487 114.8L453.463 113.405C455.328 109.325 456.384 104.89 456.55 100.298L459.845 100.406C459.886 101.924 461.129 103.142 462.657 103.142C464.21 103.142 465.471 101.883 465.471 100.33C465.471 98.7766 464.21 97.5176 462.657 97.5176C461.183 97.5176 459.974 98.6511 459.854 100.094L456.559 99.9862C456.568 99.6637 456.573 99.3411 456.573 99.0172C456.573 94.9182 455.866 90.9283 454.508 87.1863L457.261 86.1731C457.694 87.17 458.687 87.8685 459.843 87.8685C461.397 87.8685 462.657 86.6094 462.657 85.0564C462.657 83.5034 461.397 82.2444 459.843 82.2444C458.29 82.2444 457.03 83.5034 457.03 85.0564C457.03 85.3426 457.073 85.6196 457.153 85.8804L454.401 86.893C452.834 82.6885 450.442 78.8047 447.31 75.4392L449.464 73.4219C449.969 73.9038 450.653 74.201 451.406 74.201C452.96 74.201 454.22 72.9419 454.22 71.3889C454.22 69.8359 452.96 68.5769 451.406 68.5769C449.852 68.5769 448.593 69.8359 448.593 71.3889C448.593 72.0763 448.84 72.7059 449.25 73.1943L447.095 75.2116C446.874 74.9775 446.648 74.7453 446.419 74.5164C443.159 71.2569 439.362 68.7271 435.227 67.0076L436.412 64.1246C436.682 64.2098 436.967 64.2567 437.264 64.2567C438.818 64.2567 440.077 62.997 440.077 61.444C440.077 59.8916 438.818 58.6325 437.264 58.6325C435.71 58.6325 434.45 59.8916 434.45 61.444C434.45 62.5898 435.137 63.5751 436.12 64.0128L434.938 66.8899C431.239 65.3915 427.276 64.5389 423.19 64.3913L423.318 60.4502L423.407 60.4522C424.961 60.4522 426.22 59.1938 426.22 57.6408C426.22 56.0878 424.961 54.8287 423.407 54.8287C421.854 54.8287 420.594 56.0878 420.594 57.6408C420.594 59.0572 421.642 60.2291 423.006 60.4236L422.877 64.3815C422.554 64.3731 422.232 64.3679 421.907 64.3679C417.972 64.3679 414.137 65.0195 410.525 66.2701L409.391 63.0535C410.414 62.6328 411.135 61.6273 411.135 60.4522C411.135 58.8998 409.875 57.6408 408.322 57.6408C406.767 57.6408 405.508 58.8998 405.508 60.4522C405.508 62.0058 406.767 63.2649 408.322 63.2649C408.59 63.2649 408.85 63.2265 409.096 63.1556L410.23 66.3735C405.85 67.9356 401.805 70.3835 398.318 73.6267L396.262 71.4338C396.722 70.933 397.003 70.2658 397.003 69.5322C397.003 67.9792 395.743 66.7208 394.19 66.7208C392.636 66.7208 391.377 67.9792 391.377 69.5322C391.377 71.0852 392.636 72.3443 394.19 72.3443C394.897 72.3443 395.544 72.0828 396.038 71.6517L398.09 73.8407C397.856 74.0625 397.624 74.2875 397.395 74.5164C394.494 77.4156 392.171 80.7388 390.483 84.3456L387.87 83.1399C387.965 82.8589 388.017 82.5578 388.017 82.2444C388.017 80.6913 386.757 79.4323 385.203 79.4323C383.649 79.4323 382.39 80.6913 382.39 82.2444C382.39 83.7974 383.649 85.0564 385.203 85.0564C386.333 85.0564 387.306 84.3905 387.754 83.4306L390.351 84.6291C388.486 88.7087 387.43 93.1434 387.264 97.7354L383.91 97.6262C383.869 96.1096 382.627 94.8921 381.1 94.8921C379.546 94.8921 378.286 96.1512 378.286 97.7042C378.286 99.2572 379.546 100.516 381.1 100.516C382.574 100.516 383.784 99.3821 383.902 97.939L387.255 98.0476C387.246 98.3701 387.241 98.6934 387.241 99.0172C387.241 103.116 387.948 107.105 389.306 110.848L386.553 111.861C386.121 110.864 385.127 110.165 383.971 110.165C382.416 110.165 381.157 111.424 381.157 112.977C381.157 114.53 382.416 115.789 383.971 115.789C385.525 115.789 386.784 114.53 386.784 112.977C386.784 112.691 386.741 112.414 386.661 112.154L389.413 111.141C390.98 115.345 393.372 119.229 396.505 122.595L394.35 124.612C393.845 124.129 393.161 123.833 392.408 123.833C390.854 123.833 389.594 125.092 389.594 126.645C389.594 128.198 390.854 129.457 392.408 129.457C393.961 129.457 395.221 128.198 395.221 126.645C395.221 125.957 394.974 125.328 394.564 124.84L396.719 122.822C396.94 123.056 397.165 123.289 397.395 123.517C399.591 125.713 402.031 127.577 404.652 129.086L391.247 153.78H380.392V137.039H375.966V105.249H377.687V104.557H339.658V105.249H341.379V121.281H337.651L334.094 139.552V79.6287H332.534V57.9269H324.677V49.665H320.474V42.7246H318.999V30.8267H318.617V42.7246H317.143V49.665H312.94V57.9269H305.142V79.6287H303.522V119.029H291.433V153.78H251.327V86.586H254.551V85.5286H251.327V83.6354H247.242V80.5262H213.828V83.6354H209.742V85.5286H206.518V86.586H209.742V128.415H204.277V120.566H170.56V130.151H163.209V147.997H151.306V89.666H147.338V85.6996H144.196V75.207H143.535V85.6996H142.047V72.5628H141.386V85.6996H139.557V89.666H138.575V147.997H113.942V113.791H115.099V111.478H107.494V105.199H103.857V111.478H100.55V105.199H97.2442V111.478H90.8117V105.199H71.1227V111.478H66.5252V113.791H69.1389V126.68H61.8645V155.764H51.8794V147.997H40.7629V164.934H27.3219V172.161H7.49609V192.874H587.678V172.161H569.965Z" fill="#A1ACBC"/>
<path d="M503.969 85.6469C503.969 85.2131 503.673 84.8612 503.309 84.8612C502.944 84.8612 502.648 85.2131 502.648 85.6469C502.648 86.0813 502.944 86.4331 503.309 86.4331C503.673 86.4331 503.969 86.0813 503.969 85.6469Z" fill="#CAD0D9"/>
<path d="M575.902 181.162L571.806 153.78H563.429V131.058H564.465V129.002H560.398V120.151H559.903V129.002H557.092V121.751H556.596V129.002H539.654V131.058H540.812V177.161H521.468V156.51H510.452V105.763H511.46V103.274H509.26V100.087H506.728V98.8886V95.2448V92.0828H503.673V86.4333H503.305H502.938V92.0828H501.29L500.294 95.2448H493.628V100.087H476.179V103.274H473.98V105.763H474.988V138.781H460.388V171.222L444.188 164.049V132.56H446.801V130.246H442.204V123.967H422.515V130.246H416.082V123.967H412.776V130.246H409.469V123.967H405.832V130.246H398.228V132.56H399.385V176.204H392V175.746H390.663V163.309H392V162.312H390.663V149.874H392V148.877H390.663V136.44H392V135.442H390.663V123.004H392V122.007H390.663V109.57H392V108.572H390.663V95.7007H392.953V94.6998H394.118V91.971H372.369V88.9365H373.077V88.0599H361.236V88.9365H361.943V91.971H356.553V94.6998H357.718V95.7007H360.009V108.572H358.671V109.57H360.009V122.007H358.671V123.004H360.009V135.442H358.671V136.44H360.009V148.877H358.671V149.874H360.009V162.312H358.671V163.309H360.009V175.746H358.671V176.744H360.009V186.907H352.585V147.634H322.715V176.204H317.866V87.2027H314.278V89.4939L307.658 91.1125V89.6246H304.07V91.9898L297.449 93.6079V91.902H293.861V94.4852L287.24 96.1039V94.6966H283.652V96.9812L277.032 98.5999V97.387H273.444V184.788H268.396V138.192H249.7V166.846H230.534V142.411H228.172V134.387H229.574V133.581H223.372V131.058H222.71V133.581H220.726V120.629H220.23V133.581H217.647V134.387H219.167V142.411H206.517V161.05H194.203L187.771 184.788H174.866V107.284H157.781V104.508H158.751V103.534H145.81V104.508H146.828V107.284V111.75V164.83H138.772V144.775H141.635V142.959H121.364V130.843H117.497V128.353H108.865V130.843H101.841V174.105H78.7995V142.019H59.3974V167.362H42.5602V183.576H30.4199V163.192H14.4548V180.572H0V192.874H14.4548H19.3401H27.3209H30.4199H42.5602H59.3974H65.0555H68.085H78.7995H101.841H108.865H117.497H121.364H136.486H138.772H146.828H160.338H166.994H174.866H206.517H213.827H226.166H230.534H250.027H255.265H273.444H275.237H277.032H283.652H287.24H293.861H296.86H297.449H304.07H307.658H313.349H314.278H316.072H317.866H322.715H347.405H350.931H352.585H360.009H373.077H385.04H390.663H399.385H421.045H443.949H444.188H460.388H469.446H474.988H478.488H505.597H510.452H516.256H521.468H540.812H555.194H558.139H563.429H595.613V181.162H575.902" fill="#66768E"/>
</svg>
