<svg width="630" height="505" viewBox="0 0 630 505" fill="none" xmlns="http://www.w3.org/2000/svg">
<path d="M290.115 45.6054H121.71C121.71 45.6054 138.404 0 164.101 0C189.798 0 197.848 31.4849 197.848 31.4849C197.848 31.4849 215.182 14.3735 229.422 14.3735C243.661 14.3735 256.056 37.0051 256.056 37.0051C256.056 37.0051 276.173 24.8189 290.115 45.6054Z" fill="#EBEBEB"/>
<path d="M425.097 32.6445H346.4C346.4 32.6445 363.987 7.1709 377.84 7.1709C391.693 7.1709 395.784 24.1483 395.784 24.1483C395.784 24.1483 405.575 16.2176 414.622 17.646C423.669 19.0744 425.097 32.6445 425.097 32.6445Z" fill="#EBEBEB"/>
<path d="M584.514 119.283H431.256C431.256 119.283 452.251 72.4128 474.704 69.4816C497.157 66.5503 507.915 104.314 507.915 104.314C507.915 104.314 522.392 90.9228 533.775 90.9228C545.158 90.9228 553.966 108.495 553.966 108.495C553.966 108.495 576.702 96.5026 584.514 119.283Z" fill="#EBEBEB"/>
<g filter="url(#filter0_f_2_5173)">
<path d="M211.918 455.958C301.343 455.958 373.836 447.611 373.836 437.314C373.836 427.017 301.343 418.67 211.918 418.67C122.493 418.67 50 427.017 50 437.314C50 447.611 122.493 455.958 211.918 455.958Z" fill="#EBEBEB"/>
</g>
<path d="M416.971 150.394H287.327V327.161H416.971V150.394Z" fill="#919FAC"/>
<path d="M144.692 327.162H287.326V150.394L144.692 97.2598V156.019V327.162Z" fill="#919FAC"/>
<g opacity="0.3">
<path opacity="0.3" d="M144.692 327.162H287.326V150.394L144.692 97.2598V156.019V327.162Z" fill="white"/>
</g>
<path d="M274.099 90.9512H137.312L293.933 149.264H430.735L274.099 90.9512Z" fill="#455A64"/>
<path d="M430.72 149.248H293.933V152.819H430.72V149.248Z" fill="#263238"/>
<path d="M293.933 152.82L137.312 94.5222V90.9512L293.933 149.264V152.82Z" fill="#37474F"/>
<path d="M406.02 164.708H287.327V199.347H406.02V164.708Z" fill="#455A64"/>
<path d="M406.02 164.708H400.648V199.347H406.02V164.708Z" fill="#263238"/>
<path d="M311.505 164.708H309.065V199.347H311.505V164.708Z" fill="#919FAC"/>
<path d="M335.759 164.708H333.319V199.347H335.759V164.708Z" fill="#919FAC"/>
<path d="M360.012 164.708H357.572V199.347H360.012V164.708Z" fill="#919FAC"/>
<path d="M384.266 164.708H381.826V199.347H384.266V164.708Z" fill="#919FAC"/>
<path d="M263.385 225.253H144.692V121.886L263.385 164.709V225.253Z" fill="#455A64"/>
<path d="M168.887 130.62V225.253H166.431V129.728L168.887 130.62Z" fill="#919FAC"/>
<path d="M263.385 199.349H144.692V201.804H263.385V199.349Z" fill="#919FAC"/>
<path d="M193.125 139.369V225.253H190.685V138.477L193.125 139.369Z" fill="#919FAC"/>
<path d="M217.393 148.118V225.253H214.953V147.226L217.393 148.118Z" fill="#919FAC"/>
<path d="M241.647 156.881V225.252H239.192V155.988L241.647 156.881Z" fill="#919FAC"/>
<path d="M280.125 225.253H122.165V327.162H280.125V225.253Z" fill="#919FAC"/>
<path opacity="0.5" d="M270.111 225.253H122.165V327.162H270.111V225.253Z" fill="white"/>
<path d="M254.309 254.834H222.438V327.163H254.309V254.834Z" fill="white"/>
<path d="M252.42 293.951H246.512V295.588H252.42V293.951Z" fill="#DBDBDB"/>
<path d="M250.158 258.538H226.589V292.314H250.158V258.538Z" fill="#37474F"/>
<path d="M249.756 296.66H226.187V322.878H249.756V296.66Z" fill="#37474F"/>
<g opacity="0.1">
<path opacity="0.1" d="M250.158 259.995V271.988L229.833 292.313H226.589V283.564L250.158 259.995Z" fill="white"/>
<path opacity="0.1" d="M249.459 296.672L226.172 319.958V313.947L243.462 296.672H249.459Z" fill="white"/>
<path opacity="0.1" d="M250.158 289.978V292.314H247.807L250.158 289.978Z" fill="white"/>
<path opacity="0.1" d="M240.427 258.552L226.589 272.39V266.378L234.431 258.552H240.427Z" fill="white"/>
<path opacity="0.1" d="M249.741 301.092V302.609L229.476 322.875H227.958L249.741 301.092Z" fill="white"/>
</g>
<path d="M222.438 254.834H217.989V327.163H222.438V254.834Z" fill="#919FAC"/>
<path d="M133.816 289.459H155.555V254.82H133.816V289.459Z" fill="#455A64"/>
<path d="M133.816 289.459H139.187V254.82H133.816V289.459Z" fill="#263238"/>
<path d="M159.408 289.459H181.147V254.82H159.408V289.459Z" fill="#455A64"/>
<path d="M159.408 289.459H164.779V254.82H159.408V289.459Z" fill="#263238"/>
<path d="M185.001 289.459H206.74V254.82H185.001V289.459Z" fill="#455A64"/>
<path d="M185.001 289.459H190.372V254.82H185.001V289.459Z" fill="#263238"/>
<path d="M421.614 225.253H316.342V327.162H421.614V225.253Z" fill="#919FAC"/>
<path opacity="0.3" d="M421.614 225.253H316.342V327.162H421.614V225.253Z" fill="white"/>
<path d="M497.648 225.253H421.614V327.162H497.648V225.253Z" fill="#919FAC"/>
<path d="M409.666 254.729H328.276V327.162H409.666V254.729Z" fill="#455A64"/>
<path d="M409.68 259.163H333.244V260.651H409.68V259.163Z" fill="#37474F"/>
<path d="M409.68 264.342H333.244V265.83H409.68V264.342Z" fill="#37474F"/>
<path d="M409.68 269.505H333.244V270.993H409.68V269.505Z" fill="#37474F"/>
<path d="M409.68 274.683H333.244V276.171H409.68V274.683Z" fill="#37474F"/>
<path d="M409.68 279.861H333.244V281.349H409.68V279.861Z" fill="#37474F"/>
<path d="M409.68 285.023H333.244V286.511H409.68V285.023Z" fill="#37474F"/>
<path d="M409.68 290.202H333.244V291.69H409.68V290.202Z" fill="#37474F"/>
<path d="M409.68 295.38H333.244V296.868H409.68V295.38Z" fill="#37474F"/>
<path d="M409.68 300.558H333.244V302.046H409.68V300.558Z" fill="#37474F"/>
<path d="M409.68 305.722H333.244V307.21H409.68V305.722Z" fill="#37474F"/>
<path d="M409.68 310.899H333.244V312.387H409.68V310.899Z" fill="#37474F"/>
<path d="M409.68 316.076H333.244V317.564H409.68V316.076Z" fill="#37474F"/>
<path d="M409.68 321.238H333.244V322.726H409.68V321.238Z" fill="#37474F"/>
<path d="M333.231 254.729H328.276V327.162H333.231V254.729Z" fill="#263238"/>
<path d="M328.29 246.263H348.689V237.558H328.29V246.263Z" fill="#455A64"/>
<path d="M328.29 246.263H333.244V237.558H328.29V246.263Z" fill="#263238"/>
<path d="M358.778 246.263H379.177V237.558H358.778V246.263Z" fill="#455A64"/>
<path d="M358.778 246.263H363.732V237.558H358.778V246.263Z" fill="#263238"/>
<path d="M389.28 246.263H409.68V237.558H389.28V246.263Z" fill="#455A64"/>
<path d="M389.28 246.263H394.235V237.558H389.28V246.263Z" fill="#263238"/>
<path d="M490.118 237.573H474.837V246.278H490.118V237.573Z" fill="#455A64"/>
<path d="M490.133 237.573H486.413V246.278H490.133V237.573Z" fill="#263238"/>
<path d="M467.264 237.573H451.982V246.278H467.264V237.573Z" fill="#455A64"/>
<path d="M467.278 237.573H463.559V246.278H467.278V237.573Z" fill="#263238"/>
<path d="M444.409 237.573H429.128V246.278H444.409V237.573Z" fill="#455A64"/>
<path d="M444.423 237.573H440.704V246.278H444.423V237.573Z" fill="#263238"/>
<path d="M201.948 352.634H149.23C149.23 352.634 149.35 344.792 154.528 342.709C155.934 342.096 157.503 341.957 158.995 342.314C160.488 342.672 161.823 343.505 162.801 344.688C162.801 344.688 164.913 330.255 174.57 330.255C184.227 330.255 188.854 342.709 188.854 342.709C189.677 341.523 190.826 340.601 192.163 340.057C193.5 339.513 194.966 339.369 196.383 339.644C201.74 340.343 201.948 352.634 201.948 352.634Z" fill="#37474F"/>
<path d="M497.678 398.182C497.678 398.182 495.029 385.832 489.732 383.927C484.435 382.023 481.221 387.573 481.221 387.573C481.221 387.573 479.986 375.758 472.472 372.232C464.958 368.706 459.348 375.922 459.348 375.922C459.348 375.922 453.59 360.938 443.308 360.938C433.027 360.938 427.849 382.871 427.849 382.871C427.849 382.871 421.778 376.339 415.558 380.029C409.339 383.719 409.339 398.182 409.339 398.182H497.678Z" fill="#37474F"/>
<path d="M158.679 352.634H110.053C110.053 352.634 111.66 345.774 114.874 345.298C115.843 345.207 116.818 345.417 117.664 345.899C118.51 346.381 119.188 347.111 119.605 347.991C119.605 347.991 119.457 338.424 125.557 336.802C131.658 335.18 136.627 343.617 136.627 343.617C136.627 343.617 140.407 338.796 145.555 339.153C150.703 339.51 151.894 347.366 151.894 347.366C151.894 347.366 156.61 344.613 158.679 352.634Z" fill="#455A64"/>
<path d="M418.013 398.18H357.156C357.156 398.18 357.305 389.133 363.286 386.723C364.909 386.018 366.718 385.861 368.438 386.274C370.159 386.687 371.698 387.649 372.824 389.014C372.824 389.014 375.264 372.364 386.409 372.364C397.554 372.364 402.895 386.723 402.895 386.723C403.842 385.352 405.169 384.287 406.713 383.66C408.257 383.034 409.95 382.873 411.585 383.196C417.775 384 418.013 398.18 418.013 398.18Z" fill="#455A64"/>
<path d="M277.08 361.041C277.08 361.041 278.702 353.467 281.931 352.306C285.16 351.146 287.139 354.538 287.139 354.538C287.139 354.538 287.913 347.307 292.495 345.149C297.078 342.992 300.53 347.411 300.53 347.411C300.53 347.411 304.057 338.23 310.351 338.23C316.645 338.23 319.829 351.622 319.829 351.622C319.829 351.622 323.534 347.634 327.269 349.881C331.003 352.128 331.078 361.011 331.078 361.011L277.08 361.041Z" fill="#37474F"/>
<path d="M327.656 361.04H357.623C357.623 361.04 357.623 356.576 354.647 355.386C353.846 355.041 352.955 354.965 352.108 355.168C351.26 355.372 350.501 355.845 349.945 356.517C349.945 356.517 348.74 348.318 343.249 348.318C337.759 348.318 335.14 355.386 335.14 355.386C334.671 354.712 334.016 354.189 333.256 353.88C332.495 353.571 331.661 353.489 330.855 353.645C327.79 354.047 327.656 361.04 327.656 361.04Z" fill="#455A64"/>
<defs>
<filter id="filter0_f_2_5173" x="0.998463" y="369.668" width="421.839" height="135.291" filterUnits="userSpaceOnUse" color-interpolation-filters="sRGB">
<feFlood flood-opacity="0" result="BackgroundImageFix"/>
<feBlend mode="normal" in="SourceGraphic" in2="BackgroundImageFix" result="shape"/>
<feGaussianBlur stdDeviation="24.5008" result="effect1_foregroundBlur_2_5173"/>
</filter>
</defs>
</svg>
